<svg width="50" height="35" viewBox="0 0 50 35" fill="none" xmlns="http://www.w3.org/2000/svg">
<g clip-path="url(#clip0_4647_30)">
<path d="M49.1144 17.5097C48.6523 15.9559 48.4216 15.1785 48.0867 14.3522C47.4416 12.7538 46.6205 11.4543 45.3904 9.8441C42.5115 6.0815 41.0726 4.19664 38.7246 2.6952C33.6298 -0.56593 28.2681 0.0110758 27.6566 0.0860193C25.8267 0.30907 21.8017 1.12218 18.3521 4.49167C16.398 6.40302 15.1701 9.1435 14.5953 10.5425C13.9597 21.6933 24.7646 26.1604 27.3086 28.0281C28.1259 28.4222 30.006 29.26 31.5318 30.0577C35.0556 31.899 37.4982 32.2801 38.7584 32.5031C41.5045 32.9906 45.7756 31.8897 47.8027 29.5892C49.7449 27.3846 50.3105 24.4104 49.8472 21.7597C49.7066 20.9446 49.7047 19.4952 49.1129 17.5046L49.1144 17.5097Z" fill="#577138"/>
<path d="M47.5613 16.3124C46.8254 14.3247 45.9629 13.0058 44.9389 11.4415C43.6854 9.52577 42.565 8.2197 41.6654 7.17959C39.7467 4.96173 38.7865 3.85281 37.4828 3.04761C35.2324 1.6573 33.057 1.40617 31.8205 1.27546C28.9021 0.969163 26.6717 1.5958 25.5871 1.9106C24.4715 2.23608 22.2609 2.90306 19.9518 4.73809C17.8605 6.40069 16.5738 8.90408 15.8738 10.2519C15.2312 11.4668 19.1844 21.2179 28.317 26.9815C28.7842 27.2261 30.0852 27.8274 30.8887 28.2391C31.1297 28.3626 31.3719 28.4839 31.615 28.6031C31.9779 28.7714 32.3162 28.9324 32.6346 29.0866C33.6604 29.5555 34.2955 29.7939 35.1361 30.2392C38.0482 31.7808 41.1229 31.3413 41.5789 31.2695C42.1834 31.1753 46.3865 30.5171 48.1264 27.1308C49.0443 25.3448 48.8846 23.5665 48.6664 21.1311C48.6045 20.4406 48.3963 18.5724 47.5578 16.3083" fill="#A3B34F"/>
<path d="M33.4598 28.2502C36.5207 29.4363 37.5276 30.0562 38.8383 30.218C39.2692 30.2702 43.3791 30.5318 45.7879 28.2275C47.5817 26.5131 47.6678 24.7797 47.7711 23.9623C48.1286 21.1478 47.3379 17.5385 46.4147 15.7667C45.2024 13.4391 44.8893 12.9499 41.6373 8.58717C39.2291 5.36005 38.0225 4.76287 36.7657 3.92485C34.6055 2.49479 32.1067 2.46237 30.4108 2.39157C29.1629 2.34016 26.826 2.80287 24.5862 3.59779C21.0862 4.84395 19.042 6.93189 17.6061 9.8883C16.0123 13.2973 24.0727 24.4084 29.6776 26.6794" fill="#DDE072"/>
<path d="M34.5071 21.58C36.4589 21.2344 37.7583 19.2067 38.1559 17.5643C38.7141 15.2411 37.5597 13.3022 36.7903 12.0094C36.0643 10.7927 34.7876 9.09035 32.4759 8.14081C30.3479 7.26521 28.6954 8.32727 27.9251 8.76171C24.5298 13.8444 27.1599 19.0027 32.1552 21.5782C32.7854 21.6413 34.0112 21.6676 34.5061 21.5802" fill="#A3B34F"/>
<path d="M28.8549 26.3687C29.7117 25.3331 31.3588 23.1857 32.0248 21.8503C32.0683 21.7633 32.1117 21.6712 32.1552 21.5755C32.8738 19.9946 33.5867 17.2588 33.6547 15.1039C33.7154 13.1739 33.0636 11.8698 33.0636 11.8698C32.3988 10.1147 30.4865 9.51374 29.648 9.18885C28.9595 8.93634 28.3425 8.80741 27.7164 8.73484C26.4838 8.62292 24.7738 8.75659 21.8175 9.19557C18.8892 9.61083 15.966 10.177 13.2734 10.8335C10.0088 11.6389 8.20895 12.0826 6.13474 13.0988C3.73864 14.272 1.47556 15.3803 0.495869 17.8157C-0.103741 19.3074 -0.0515924 20.8094 0.0978217 21.8074C0.0978217 21.8074 0.744306 28.337 5.18259 31.6652C8.89899 34.4557 14.3789 35.4859 18.4634 34.3558C21.6849 33.7357 24.7576 30.6789 27.3117 28.004C27.8334 27.4689 28.4621 26.8409 28.8558 26.3667L28.8549 26.3687Z" fill="#577138"/>
<path d="M24.8105 25.2741C21.8073 27.0593 17.4015 29.4814 11.8878 29.4197C11.7089 29.4177 11.53 29.4131 11.3513 29.4059C9.50206 29.3303 4.59073 29.1302 2.06378 25.8042C1.36671 24.8853 0.954793 23.8699 0.73155 23.1796L0.725691 23.1646C0.59073 22.7438 0.540925 22.4964 0.539363 22.4875C0.501414 22.3098 0.469105 22.1309 0.442488 21.9511L0.439168 21.9388L0.438191 21.9331L0.43741 21.9301C0.295613 20.9762 0.246785 19.5458 0.814753 18.1335C1.74444 15.8243 3.84796 14.7941 6.28468 13.6013C8.32608 12.6015 10.1124 12.161 13.3524 11.3611C13.7677 11.2595 14.1669 11.1628 14.5521 11.0734C14.9876 10.9733 15.406 10.8788 15.8073 10.7926C16.5712 10.6283 17.3376 10.4763 18.1062 10.3364L18.1101 10.334C19.5062 10.0825 20.7308 9.89763 21.8671 9.72975C24.7952 9.29492 26.4821 9.16164 27.6849 9.27139C28.3446 9.33011 28.8942 9.45963 29.5232 9.70345C30.3819 10.0362 31.9802 10.656 32.7526 12.214C32.9851 12.6836 33.1226 13.2038 33.162 13.7629C33.1667 13.817 33.1698 13.8728 33.1714 13.9286C33.2187 15.3325 32.647 16.7127 32.3399 17.4551C30.6146 21.6143 27.4073 23.7284 24.8093 25.2743" fill="#A3B34F"/>
<path d="M22.9186 25.4792C25.778 23.9892 28.0979 22.2789 29.294 20.947C31.2803 18.7337 32.0903 16.4834 32.2657 14.6533C32.4621 12.6027 31.1885 11.8363 30.7565 11.4634C29.1483 10.0736 26.9623 10.0958 24.9758 10.0885C24.0731 10.0855 22.7778 10.1555 18.8067 11.0313C15.6485 11.7604 15.0026 11.9185 11.1848 12.9751C8.63988 13.6921 7.20492 14.1752 6.03245 14.9204C4.39378 15.9625 2.35335 17.2593 1.83636 19.7605C1.19417 22.8635 3.46117 25.4487 3.92191 25.9379C6.14066 28.2811 9.19925 28.5625 11.3075 28.5698C12.1356 28.5726 12.9196 28.5283 13.611 28.4896C17.8948 28.2499 20.8442 26.5584 22.9186 25.481" fill="#DDE072"/>
<path d="M11.817 12.9946C11.4891 13.2457 10.9545 13.7777 10.6803 14.0624L9.91742 14.9261C8.56468 16.6457 7.59984 19.961 8.33226 20.8536C8.70804 21.3123 8.90531 21.3622 9.03968 21.4535C10.9176 22.373 12.6311 23.6352 15.4319 23.8011L17.7614 23.7983C17.95 23.7904 18.227 23.779 18.426 23.7639C18.9452 23.7167 18.7186 23.7123 19.077 23.6736C22.2994 23.1379 26.5907 20.8299 26.4252 17.5988C26.362 16.3914 24.9998 14.4136 24.075 13.5214C23.092 12.572 21.2543 11.6498 20.7729 11.4758C20.5477 11.4054 20.2784 11.3122 19.8289 11.2325C19.596 11.1893 19.3618 11.1534 19.1266 11.1248C19.0161 11.111 18.9054 11.099 18.7946 11.0888C18.6827 11.0781 18.5723 11.0722 18.4618 11.0651C16.1221 10.9177 14.0223 11.5351 12.4041 12.579C12.2698 12.6658 12.1375 12.7543 12.0102 12.8469C11.9442 12.8957 11.8799 12.9428 11.8159 12.9932" fill="#5E3108"/>
</g>
<defs>
<clipPath id="clip0_4647_30">
<rect width="50" height="35" fill="white"/>
</clipPath>
</defs>
</svg>
