<svg width="16" height="16" viewBox="0 0 16 16" fill="none" xmlns="http://www.w3.org/2000/svg">
<g clip-path="url(#clip0_4647_52)">
<path d="M6.92507 3.50002C6.82507 3.38752 6.72507 3.27502 6.62507 3.17502L5.58757 2.05002C5.41257 1.85002 5.27507 1.62502 5.25007 1.36252C5.21257 1.03752 5.25007 0.737515 5.47507 0.475015C5.52507 0.412515 5.60007 0.362515 5.66257 0.312515C5.76257 0.250015 5.87507 0.200015 5.98757 0.162515C6.38757 0.0375151 6.76257 0.0875151 7.08757 0.350015C7.26257 0.500015 7.42507 0.662515 7.58757 0.837515C8.37507 1.68752 9.16257 2.55002 9.95007 3.41252C10.3626 3.86252 10.7876 4.31252 11.1876 4.77502C11.7001 5.35002 12.0876 6.00002 12.2876 6.75002C12.3626 7.03752 12.4126 7.32502 12.4251 7.61252C12.4751 8.78752 12.1251 9.83752 11.3751 10.75C10.8251 11.425 10.1251 11.8625 9.28757 12.0875C8.98757 12.1625 8.68757 12.2125 8.37507 12.2375C8.15007 12.25 7.91257 12.2625 7.68757 12.25C6.51257 12.1875 5.51257 11.7125 4.70007 10.85C4.31257 10.4375 4.01257 9.98751 3.80007 9.46251C3.67507 9.13751 3.60007 8.81252 3.57507 8.47502C3.51257 7.66252 3.61257 6.87502 3.96257 6.13752C4.18757 5.66252 4.51257 5.26252 4.88757 4.90002C5.45007 4.35002 6.10007 3.92502 6.81257 3.58752L6.88757 3.55002C6.91257 3.52502 6.91257 3.51252 6.92507 3.50002ZM8.21257 8.67502C8.18757 8.70002 8.17507 8.71252 8.16257 8.73752L7.36257 9.52501C7.18757 9.70001 7.03757 9.88752 6.93757 10.1125C6.86257 10.2625 6.83757 10.425 6.88757 10.5875C7.05007 11.05 7.62507 11.225 7.98757 10.975C8.12507 10.875 8.25007 10.7625 8.37507 10.65L10.0876 9.03752C10.3626 8.77502 10.5876 8.47502 10.7126 8.11252C10.7376 8.03752 10.7501 7.96252 10.7501 7.88752C10.7501 7.72502 10.6876 7.58752 10.6126 7.45002C10.4751 7.20002 10.2876 6.98752 10.0876 6.77502L9.15007 5.83752C8.85007 5.53752 8.56257 5.23752 8.25007 4.95002C8.06257 4.77502 7.83757 4.66252 7.57507 4.67502C7.28757 4.68752 7.05007 4.81252 6.90007 5.06252C6.83757 5.16252 6.81257 5.27502 6.81257 5.38752C6.82507 5.62502 6.93757 5.83752 7.10007 6.00002C7.36257 6.27502 7.63757 6.53752 7.91257 6.80002C8.01257 6.90002 8.11257 7.01252 8.20007 7.10002H6.30007C6.02507 7.10002 5.75007 7.08752 5.48757 7.10002C5.32507 7.11252 5.17507 7.16252 5.05007 7.28752C4.82507 7.51252 4.76257 7.78752 4.81257 8.10002C4.86257 8.38752 5.03757 8.58751 5.33757 8.65001C5.43757 8.67501 5.55007 8.67502 5.66257 8.67502C5.96257 8.68752 6.26257 8.70002 6.56257 8.70002L7.26257 8.68752H7.81257C7.93757 8.67502 8.06257 8.67502 8.21257 8.67502Z" fill="#F56D39"/>
<path d="M8.21267 8.67507H7.26267L6.56267 8.68757C6.26267 8.68757 5.96267 8.67507 5.66267 8.66257C5.55017 8.66257 5.45017 8.65007 5.33767 8.63757C5.03767 8.57507 4.87517 8.37507 4.81267 8.08757C4.75017 7.78757 4.82517 7.50007 5.05017 7.27507C5.17517 7.16257 5.32517 7.10007 5.48767 7.08757C5.76267 7.07507 6.02517 7.08757 6.30017 7.08757H8.20017C8.11267 6.98757 8.01267 6.88757 7.91267 6.78757C7.63767 6.51257 7.36267 6.26257 7.10017 5.98757C6.93767 5.81257 6.82517 5.61257 6.81267 5.37507C6.81267 5.26257 6.83767 5.15007 6.90017 5.05007C7.05017 4.80007 7.28767 4.68757 7.57517 4.66257C7.85017 4.65007 8.06267 4.76257 8.25017 4.93757C8.55017 5.22507 8.85017 5.52507 9.15017 5.82507L10.0877 6.76257C10.2877 6.96257 10.4752 7.18757 10.6127 7.43757C10.6877 7.57507 10.7502 7.71257 10.7502 7.87507C10.7502 7.95007 10.7377 8.02507 10.7127 8.10007C10.5752 8.46257 10.3627 8.76257 10.0877 9.02507C9.52517 9.56257 8.95017 10.1001 8.37517 10.6376C8.25017 10.7501 8.12517 10.8626 7.98767 10.9626C7.62517 11.2126 7.03767 11.0376 6.88767 10.5751C6.83767 10.4126 6.86267 10.2501 6.93767 10.1001C7.05017 9.87507 7.20017 9.68757 7.36267 9.51257L8.16267 8.72507C8.17517 8.71257 8.18767 8.68757 8.21267 8.67507Z" fill="white"/>
<path d="M2.2375 15.65H1.725V15.3375C1.6375 15.4625 1.5375 15.55 1.425 15.6C1.3125 15.6625 1.1875 15.6875 1.075 15.6875C0.8375 15.6875 0.625 15.5875 0.45 15.4C0.275 15.2 0.1875 14.9375 0.1875 14.5875C0.1875 14.2375 0.275 13.9625 0.4375 13.775C0.6 13.5875 0.8125 13.5 1.075 13.5C1.3125 13.5 1.5125 13.6 1.6875 13.7875V12.75H2.2375V15.65ZM0.75 14.55C0.75 14.775 0.775 14.9375 0.8375 15.0375C0.925 15.1875 1.05 15.25 1.2125 15.25C1.3375 15.25 1.45 15.2 1.5375 15.0875C1.625 14.975 1.675 14.8125 1.675 14.6C1.675 14.3625 1.6375 14.1875 1.55 14.075C1.4625 13.975 1.35 13.9125 1.2125 13.9125C1.075 13.9125 0.975 13.9625 0.8875 14.075C0.8 14.1875 0.75 14.35 0.75 14.55ZM2.65 14.575C2.65 14.3875 2.7 14.2125 2.7875 14.0375C2.875 13.8625 3.0125 13.7375 3.175 13.6375C3.3375 13.55 3.525 13.5 3.7375 13.5C4.05 13.5 4.3125 13.6 4.5125 13.8125C4.7125 14.0125 4.8125 14.275 4.8125 14.5875C4.8125 14.9 4.7125 15.1625 4.5 15.375C4.3 15.5875 4.0375 15.6875 3.725 15.6875C3.5375 15.6875 3.35 15.65 3.175 15.5625C3 15.475 2.8625 15.35 2.775 15.175C2.7 15.0125 2.65 14.8125 2.65 14.575ZM3.225 14.6C3.225 14.8125 3.275 14.9625 3.375 15.075C3.475 15.1875 3.6 15.2375 3.7375 15.2375C3.8875 15.2375 4 15.1875 4.1 15.075C4.2 14.9625 4.25 14.8 4.25 14.5875C4.25 14.3875 4.2 14.225 4.1 14.1125C4 14 3.875 13.95 3.7375 13.95C3.5875 13.95 3.475 14 3.375 14.1125C3.275 14.2375 3.225 14.3875 3.225 14.6ZM7.075 14.175L6.525 14.275C6.5125 14.1625 6.4625 14.0875 6.4 14.025C6.3375 13.9625 6.25 13.9375 6.15 13.9375C6.0125 13.9375 5.9 13.9875 5.825 14.075C5.7375 14.175 5.7 14.325 5.7 14.55C5.7 14.8 5.7375 14.975 5.825 15.075C5.9125 15.175 6.025 15.225 6.1625 15.225C6.2625 15.225 6.35 15.2 6.425 15.1375C6.4875 15.075 6.5375 14.975 6.5625 14.825L7.1125 14.9125C7.05 15.1625 6.95 15.35 6.7875 15.475C6.625 15.6 6.4125 15.6625 6.1375 15.6625C5.825 15.6625 5.5875 15.5625 5.4 15.375C5.2125 15.1875 5.125 14.9125 5.125 14.575C5.125 14.225 5.2125 13.9625 5.4 13.7625C5.5875 13.575 5.825 13.475 6.1375 13.475C6.3875 13.475 6.6 13.525 6.75 13.6375C6.9125 13.775 7.0125 13.95 7.075 14.175ZM8.4625 13.55V13.9875H8.0875V14.8375C8.0875 15.0125 8.0875 15.1125 8.1 15.1375C8.1125 15.1625 8.125 15.1875 8.15 15.2125C8.175 15.225 8.2125 15.2375 8.25 15.2375C8.3 15.2375 8.375 15.225 8.475 15.1875L8.525 15.6125C8.4 15.6625 8.25 15.7 8.0875 15.7C7.9875 15.7 7.9 15.6875 7.8125 15.65C7.7375 15.6125 7.675 15.575 7.6375 15.525C7.6 15.475 7.575 15.4 7.5625 15.3125C7.55 15.25 7.55 15.1125 7.55 14.925V14.0125H7.3V13.575H7.55V13.1625L8.1125 12.8375V13.575H8.4625V13.55ZM9.375 15.65H8.825V13.55H9.3375V13.85C9.425 13.7125 9.5 13.6125 9.575 13.575C9.65 13.5375 9.725 13.5125 9.8125 13.5125C9.9375 13.5125 10.0625 13.55 10.175 13.6125L10 14.1C9.9125 14.0375 9.825 14.0125 9.7375 14.0125C9.6625 14.0125 9.6 14.0375 9.5375 14.075C9.4875 14.1125 9.4375 14.2 9.4125 14.3125C9.3875 14.425 9.375 14.6375 9.375 15V15.65ZM10.425 13.2625V12.75H10.975V13.2625H10.425ZM10.425 15.65V13.55H10.975V15.65H10.425ZM13.45 15.65H12.9V14.575C12.9 14.35 12.8875 14.2 12.8625 14.1375C12.8375 14.075 12.8 14.025 12.75 13.9875C12.7 13.95 12.6375 13.9375 12.5625 13.9375C12.4625 13.9375 12.375 13.9625 12.3 14.0125C12.225 14.0625 12.175 14.1375 12.1375 14.225C12.1125 14.3125 12.1 14.475 12.1 14.7125V15.6625H11.55V13.5625H12.0625V13.875C12.25 13.6375 12.475 13.525 12.75 13.525C12.875 13.525 12.9875 13.55 13.0875 13.5875C13.1875 13.6375 13.2625 13.6875 13.3125 13.7625C13.3625 13.825 13.4 13.9125 13.425 14C13.45 14.0875 13.45 14.2125 13.45 14.375V15.65ZM15.225 14.975L15.775 15.0625C15.7 15.2625 15.5875 15.425 15.4375 15.525C15.2875 15.625 15.0875 15.6875 14.8625 15.6875C14.5 15.6875 14.225 15.5625 14.05 15.325C13.9125 15.1375 13.8375 14.8875 13.8375 14.6C13.8375 14.25 13.925 13.975 14.1125 13.7875C14.3 13.5875 14.525 13.4875 14.8 13.4875C15.1125 13.4875 15.3625 13.5875 15.5375 13.8C15.7125 14 15.8 14.325 15.8 14.75H14.4125C14.4125 14.9125 14.4625 15.0375 14.55 15.1375C14.6375 15.225 14.7375 15.275 14.875 15.275C14.9625 15.275 15.0375 15.25 15.1 15.2C15.15 15.1625 15.2 15.0875 15.225 14.975ZM15.2625 14.425C15.2625 14.2625 15.2125 14.1375 15.1375 14.0625C15.0625 13.9875 14.9625 13.9375 14.85 13.9375C14.725 13.9375 14.625 13.9875 14.55 14.075C14.475 14.1625 14.4375 14.2875 14.4375 14.4375H15.2625V14.425Z" fill="#141414"/>
</g>
<defs>
<clipPath id="clip0_4647_52">
<rect width="16" height="16" fill="white"/>
</clipPath>
</defs>
</svg>
