<svg width="35" height="35" viewBox="0 0 35 35" fill="none" xmlns="http://www.w3.org/2000/svg">
<mask id="mask0_4640_23" style="mask-type:luminance" maskUnits="userSpaceOnUse" x="0" y="0" width="35" height="35">
<path d="M17.5 35C27.165 35 35 27.165 35 17.5C35 7.83502 27.165 0 17.5 0C7.83502 0 0 7.83502 0 17.5C0 27.165 7.83502 35 17.5 35Z" fill="white"/>
</mask>
<g mask="url(#mask0_4640_23)">
<path d="M0 0L0.546875 1.50391L0 3.07617V4.64844L2.1875 8.33984L0 12.0312V14.2188L2.1875 17.5L0 20.7812V22.9688L2.1875 26.6602L0 30.3516V35L1.50391 34.4531L3.07617 35H4.64844L8.33984 32.8125L12.0312 35H14.2188L17.5 32.8125L20.7812 35H22.9688L26.6602 32.8125L30.3516 35H35L34.4531 33.4961L35 31.9238V30.3516L32.8125 26.6602L35 22.9688V20.7812L32.8125 17.5L35 14.2188V12.0312L32.8125 8.33984L35 4.64844V0L33.4961 0.546875L31.9238 0H30.3516L26.6602 2.1875L22.9688 0H20.7812L17.5 2.1875L14.2188 0H12.0312L8.33984 2.1875L4.64844 0H0Z" fill="#EEEEEE"/>
<path d="M22.9688 0V7.38281L30.3516 0H22.9688ZM35 4.64844L27.6172 12.0312H35V4.64844ZM0 12.0312H7.38281L0 4.64844V12.0312ZM4.64844 0L12.0312 7.38281V0H4.64844ZM12.0312 35V27.6172L4.64844 35H12.0312ZM0 30.3516L7.38281 22.9688H0V30.3516ZM35 22.9688H27.6172L35 30.3516V22.9688ZM30.3516 35L22.9688 27.6172V35H30.3516Z" fill="#0052B4"/>
<path d="M0 0V3.07617L8.95508 12.0312H12.0312L0 0ZM14.2188 0V14.2188H0V20.7812H14.2188V35H20.7812V20.7812H35V14.2188H20.7812V0H14.2188ZM31.9238 0L22.9688 8.95508V12.0312L35 0H31.9238ZM12.0312 22.9688L0 35H3.07617L12.0312 26.0449V22.9688ZM22.9688 22.9688L35 35V31.9238L26.0449 22.9688H22.9688Z" fill="#D80027"/>
</g>
</svg>
