<svg width="16" height="16" viewBox="0 0 16 16" fill="none" xmlns="http://www.w3.org/2000/svg">
<g clip-path="url(#clip0_4647_50)">
<path d="M7.10162 15.9481C6.86375 15.9197 6.61425 15.8831 6.54738 15.8666C6.44896 15.8433 6.34997 15.8224 6.2505 15.8041C6.1369 15.7821 6.02419 15.7557 5.91262 15.725C5.3945 15.5765 5.35738 15.5643 4.96675 15.4046C4.60738 15.2581 3.94525 14.9158 3.71875 14.7601C3.65675 14.7171 3.59875 14.6825 3.58987 14.6825C3.581 14.6825 3.43613 14.5805 3.26763 14.4558C2.19638 13.663 1.39213 12.7005 0.811 11.515C0.711 11.3113 0.629375 11.1307 0.629375 11.1137C0.629375 11.097 0.611375 11.0506 0.589375 11.0116C0.544 10.9305 0.479375 10.7557 0.42725 10.5751C0.404847 10.4983 0.378775 10.4227 0.349125 10.3485C0.32475 10.291 0.305125 10.221 0.305125 10.1927C0.305125 10.1643 0.28075 10.0721 0.251 9.98709C0.22125 9.90271 0.19725 9.80309 0.19725 9.76584C0.19725 9.72884 0.173875 9.60084 0.145 9.48134C0.07475 9.18634 0 8.42221 0 7.99396C0 7.56621 0.07475 6.80209 0.145 6.50721C0.17375 6.38759 0.19725 6.25721 0.19725 6.21721C0.19725 6.17709 0.215375 6.09846 0.23725 6.04221C0.25975 5.98621 0.2885 5.88559 0.30175 5.81871C0.3155 5.75184 0.34675 5.63659 0.372125 5.56184L0.445875 5.34609C0.5 5.18446 0.55025 5.04771 0.57425 4.99446C0.588 4.96471 0.641625 4.84321 0.693875 4.72446C0.778375 4.53259 0.9595 4.17071 1.06537 3.98134C1.104 3.91196 1.11863 3.88896 1.32763 3.56234C1.65875 3.04384 2.22462 2.39871 2.75137 1.93884C2.937 1.77671 3.55713 1.30596 3.585 1.30596C3.59275 1.30596 3.65125 1.27084 3.71537 1.22784C3.88375 1.11509 4.04887 1.01934 4.26412 0.911461C4.34139 0.873249 4.41791 0.833534 4.49363 0.792336C4.52925 0.771836 4.59612 0.741086 4.9395 0.587336C5.01512 0.553586 5.09663 0.522836 5.3315 0.440711C5.38325 0.422711 5.48725 0.384586 5.5615 0.356711C5.63625 0.328961 5.72413 0.305961 5.75688 0.305961C5.78913 0.305961 5.874 0.283461 5.94537 0.255711C6.01662 0.227836 6.146 0.196086 6.23338 0.185336C6.32038 0.175086 6.436 0.150711 6.49025 0.131586C6.544 0.113086 6.6915 0.0890859 6.81787 0.0784609C6.98258 0.0635536 7.14685 0.0441714 7.3105 0.0203359C7.6465 -0.0289141 8.377 -0.0289141 8.7095 0.0203359C8.86655 0.0428738 9.02414 0.0614214 9.18213 0.0759609C9.30125 0.0858359 9.45313 0.110711 9.52 0.131211C9.58688 0.151211 9.70262 0.176211 9.77687 0.185336C9.85112 0.195211 9.97612 0.225961 10.0546 0.254211C10.1334 0.282961 10.2226 0.305961 10.2534 0.305961C10.2841 0.305961 10.3476 0.323086 10.394 0.344586C10.4409 0.365586 10.54 0.400711 10.6147 0.422711C10.689 0.445211 10.8164 0.489586 10.8985 0.522336C10.98 0.554961 11.0894 0.597961 11.1416 0.617461C11.2379 0.653711 11.9491 1.00959 12.0459 1.07021C12.831 1.55984 13.2349 1.87971 13.7779 2.44071C14.4326 3.11746 14.8672 3.76196 15.3096 4.71071C15.3409 4.77771 15.3886 4.87684 15.416 4.93046C15.4429 4.98471 15.4654 5.04821 15.4654 5.07171C15.4654 5.09546 15.4879 5.16671 15.5156 5.23034C15.5909 5.40321 15.6553 5.59996 15.6856 5.75034C15.7006 5.82409 15.7285 5.91534 15.7475 5.95296C15.7666 5.99046 15.789 6.08584 15.7979 6.16396C15.8066 6.24196 15.8325 6.36996 15.8545 6.44759C15.982 6.88896 16.0454 8.18934 15.9683 8.76446C15.9454 8.93534 15.9195 9.14196 15.9108 9.22346C15.896 9.36309 15.8222 9.72396 15.7592 9.96659L15.6943 10.2235C15.5718 10.7181 15.269 11.4227 14.8994 12.0746C14.7529 12.3333 14.2617 13.0331 14.169 13.1151C14.1606 13.1223 14.1191 13.1713 14.0771 13.223C14.0351 13.2752 13.9004 13.4212 13.7784 13.5472C13.2407 14.1023 12.8071 14.4456 12.0459 14.9183C11.9556 14.9745 11.19 15.3485 11.0469 15.4066C10.9726 15.4363 10.8486 15.4866 10.7715 15.5178C10.6949 15.5487 10.6094 15.5746 10.5825 15.5751C10.5556 15.5755 10.4849 15.5995 10.4253 15.6282C10.3658 15.657 10.29 15.681 10.2564 15.6815C10.2231 15.682 10.126 15.7055 10.0405 15.7337C9.95512 15.7625 9.83637 15.7933 9.77675 15.8025C9.71725 15.8118 9.58987 15.8372 9.49312 15.8587C9.3965 15.8802 9.10438 15.9222 8.84475 15.952C8.2656 16.0196 7.68047 16.0183 7.10162 15.9481ZM7.6895 14.3856C7.727 14.3563 7.76563 14.2981 7.77588 14.2572C7.79838 14.1668 11.4301 6.88596 11.4985 6.79471C11.5561 6.71759 11.5615 6.59409 11.5087 6.55059C11.481 6.52721 11.1332 6.51984 10.205 6.52134C9.50875 6.52284 8.92338 6.52334 8.90425 6.52284C8.876 6.52184 8.87013 6.05659 8.873 4.06384C8.875 2.71171 8.86863 1.59309 8.85888 1.57759C8.84913 1.56184 8.811 1.54921 8.77388 1.54921C8.72163 1.54921 8.69725 1.57171 8.66512 1.65021C8.6045 1.79621 8.437 2.12771 7.62162 3.71084C7.45226 4.03938 7.2833 4.36813 7.11475 4.69709C6.97025 4.97984 6.74225 5.42371 6.60887 5.68334C6.24987 6.38124 5.89162 7.07953 5.53412 7.77821C4.9175 8.98271 4.84287 9.12634 4.81637 9.15809C4.76512 9.22009 4.73725 9.36309 4.76613 9.41684C4.79238 9.46609 4.84475 9.46809 6.1465 9.46609C6.89063 9.46521 7.50437 9.46909 7.51075 9.47484C7.52787 9.49246 7.5215 14.1386 7.50387 14.2493C7.49225 14.3221 7.5 14.3606 7.53325 14.3938C7.59075 14.4515 7.6065 14.451 7.6895 14.3856Z" fill="#049688"/>
</g>
<defs>
<clipPath id="clip0_4647_50">
<rect width="16" height="16" fill="white"/>
</clipPath>
</defs>
</svg>
