<svg width="19" height="19" viewBox="0 0 19 19" fill="none" xmlns="http://www.w3.org/2000/svg">
<path d="M19.0012 1.47446V0.636914C18.8323 0.636914 18.6703 0.569811 18.5508 0.450367C18.4314 0.330922 18.3643 0.16892 18.3643 0H17.5267C17.5196 0.164163 17.4494 0.319249 17.3308 0.432904C17.2121 0.546559 17.0541 0.610004 16.8898 0.610004C16.7255 0.610004 16.5675 0.546559 16.4489 0.432904C16.3302 0.319249 16.26 0.164163 16.2529 0H15.4124C15.4024 0.16896 15.3258 0.327064 15.1994 0.439585C15.073 0.552106 14.907 0.609843 14.7381 0.600112C14.5826 0.589844 14.4363 0.523221 14.3264 0.412738C14.2166 0.302256 14.1509 0.155503 14.1415 0H13.304C13.2951 0.169303 13.2194 0.328169 13.0936 0.441773C12.9677 0.555378 12.802 0.614453 12.6326 0.606048C12.4748 0.597242 12.3257 0.530563 12.2139 0.41876C12.1021 0.306956 12.0354 0.157869 12.0266 0H11.189C11.182 0.164163 11.1117 0.319249 10.9931 0.432904C10.8744 0.546559 10.7164 0.610004 10.5521 0.610004C10.3878 0.610004 10.2298 0.546559 10.1112 0.432904C9.9925 0.319249 9.9223 0.164163 9.91521 0H9.07766C9.07289 0.0837147 9.05165 0.165666 9.01516 0.24116C8.97867 0.316654 8.92765 0.384208 8.86501 0.439953C8.80238 0.495698 8.72936 0.538538 8.65014 0.566021C8.57092 0.593504 8.48706 0.605089 8.40335 0.600112C8.24776 0.589315 8.10131 0.522622 7.99102 0.412334C7.88073 0.302045 7.81404 0.155598 7.80324 0H6.9657C6.96363 0.0833327 6.94507 0.16543 6.91109 0.241548C6.87711 0.317667 6.82838 0.386298 6.76773 0.443477C6.70707 0.500656 6.63569 0.54525 6.5577 0.574682C6.47971 0.604114 6.39666 0.617801 6.31335 0.614952C6.15207 0.609071 5.99899 0.542412 5.88482 0.428351C5.77065 0.314291 5.70384 0.161271 5.6978 0H4.86026C4.8552 0.165633 4.78585 0.322788 4.6669 0.438161C4.54795 0.553534 4.38876 0.618058 4.22305 0.618058C4.05734 0.618058 3.89814 0.553534 3.77919 0.438161C3.66024 0.322788 3.59089 0.165633 3.58583 0H2.74829C2.74148 0.168475 2.66858 0.327486 2.54537 0.442588C2.42215 0.557691 2.25855 0.619617 2.09001 0.614952C1.92873 0.609071 1.77564 0.542412 1.66147 0.428351C1.5473 0.314291 1.4805 0.161271 1.47446 0H0.636915C0.636915 0.170358 0.568653 0.334187 0.451123 0.451123C0.331005 0.569927 0.168946 0.636669 0 0.636914V1.47446C0.168269 1.48126 0.327041 1.55425 0.441765 1.67753C0.556489 1.80082 0.61788 1.96442 0.612578 2.13274C0.607703 2.29394 0.541688 2.44725 0.427925 2.56157C0.314163 2.67588 0.161175 2.74264 0 2.74829V3.58583C0.0834754 3.58874 0.165557 3.60809 0.241546 3.64276C0.317535 3.67744 0.385938 3.72676 0.442839 3.78791C0.49974 3.84905 0.544021 3.92082 0.573147 3.99911C0.602274 4.07739 0.615673 4.16065 0.612578 4.24412C0.607703 4.40532 0.541688 4.55863 0.427925 4.67294C0.314163 4.78725 0.161175 4.85401 0 4.85966V5.69721C0.16892 5.69721 0.330922 5.76431 0.450367 5.88376C0.569811 6.0032 0.636915 6.1652 0.636915 6.33412C0.636915 6.50304 0.569811 6.66505 0.450367 6.78449C0.330922 6.90394 0.16892 6.97104 0 6.97104V7.80858C0.08508 7.80598 0.169816 7.8205 0.249182 7.85126C0.328549 7.88202 0.400929 7.92841 0.46203 7.98767C0.523131 8.04693 0.57171 8.11786 0.604883 8.19625C0.638057 8.27464 0.655151 8.3589 0.655151 8.44401C0.655151 8.52913 0.638057 8.61339 0.604883 8.69178C0.57171 8.77017 0.523131 8.84109 0.46203 8.90036C0.400929 8.95962 0.328549 9.00601 0.249182 9.03677C0.169816 9.06753 0.08508 9.08205 0 9.07945V9.91996C0.0834754 9.92287 0.165557 9.94221 0.241546 9.97689C0.317535 10.0116 0.385938 10.0609 0.442839 10.122C0.49974 10.1832 0.544021 10.2549 0.573147 10.3332C0.602274 10.4115 0.615673 10.4948 0.612578 10.5782C0.607524 10.7391 0.541362 10.892 0.427559 11.0058C0.313755 11.1196 0.160863 11.1858 0 11.1908V12.0313C0.08508 12.0287 0.169816 12.0432 0.249182 12.074C0.328549 12.1048 0.400929 12.1512 0.46203 12.2104C0.523131 12.2697 0.57171 12.3406 0.604883 12.419C0.638057 12.4974 0.655151 12.5816 0.655151 12.6668C0.655151 12.7519 0.638057 12.8361 0.604883 12.9145C0.57171 12.9929 0.523131 13.0638 0.46203 13.1231C0.400929 13.1824 0.328549 13.2288 0.249182 13.2595C0.169816 13.2903 0.08508 13.3048 0 13.3022V14.1427C0.083266 14.1455 0.165171 14.1646 0.241033 14.199C0.316895 14.2335 0.385226 14.2825 0.442118 14.3434C0.49901 14.4043 0.543348 14.4757 0.572597 14.5537C0.601846 14.6318 0.615432 14.7148 0.612578 14.798C0.608125 14.9594 0.542245 15.1129 0.428395 15.2273C0.314545 15.3417 0.161314 15.4083 0 15.4136V16.2511C0.165633 16.2562 0.322788 16.3255 0.438161 16.4445C0.553534 16.5634 0.618058 16.7226 0.618058 16.8883C0.618058 17.054 0.553534 17.2132 0.438161 17.3322C0.322788 17.4511 0.165633 17.5205 0 17.5255V18.3661C0.34962 18.3661 0.636915 18.6504 0.636915 19H1.47446C1.4856 18.8312 1.5631 18.6738 1.69001 18.562C1.81692 18.4502 1.98293 18.3932 2.15174 18.4034C2.47287 18.4248 2.72633 18.6789 2.74829 19H3.58583C3.59292 18.8358 3.66313 18.6807 3.78179 18.5671C3.90046 18.4534 4.05843 18.39 4.22275 18.39C4.38706 18.39 4.54504 18.4534 4.6637 18.5671C4.78237 18.6807 4.85257 18.8358 4.85966 19H5.69721C5.7043 18.8358 5.7745 18.6807 5.89317 18.5671C6.01184 18.4534 6.16981 18.39 6.33412 18.39C6.49844 18.39 6.65641 18.4534 6.77508 18.5671C6.89375 18.6807 6.96395 18.8358 6.97104 19H7.80858C7.816 18.8319 7.88916 18.6735 8.01231 18.5589C8.13546 18.4443 8.29871 18.3827 8.46687 18.3874C8.62766 18.3935 8.78026 18.4599 8.89431 18.5735C9.00837 18.687 9.07552 18.8392 9.08241 19H9.91996C9.92947 18.8312 10.0054 18.673 10.1312 18.56C10.257 18.447 10.4224 18.3883 10.5913 18.3969C10.916 18.4129 11.1784 18.6753 11.1944 19H12.0319C12.0414 18.8312 12.1174 18.673 12.2432 18.56C12.369 18.447 12.5344 18.3883 12.7033 18.3969C13.028 18.4129 13.2903 18.6753 13.3063 19H14.1439C14.1549 18.8382 14.227 18.6866 14.3455 18.5759C14.464 18.4652 14.6201 18.4037 14.7823 18.4037C14.9445 18.4037 15.1006 18.4652 15.2191 18.5759C15.3376 18.6866 15.4097 18.8382 15.4207 19H16.2588C16.2674 18.8373 16.3382 18.6841 16.4564 18.572C16.5746 18.4598 16.7313 18.3973 16.8943 18.3973C17.0572 18.3973 17.2139 18.4598 17.3321 18.572C17.4504 18.6841 17.5211 18.8373 17.5297 19H18.3637C18.3645 18.8316 18.4319 18.6704 18.5513 18.5515C18.6706 18.4327 18.8322 18.366 19.0006 18.3661V17.5255C18.8319 17.515 18.6741 17.4382 18.5617 17.3119C18.4493 17.1856 18.3914 17.02 18.4005 16.8512C18.4107 16.6958 18.4774 16.5494 18.5879 16.4396C18.6983 16.3298 18.8451 16.264 19.0006 16.2547V15.4171C18.8364 15.41 18.6813 15.3398 18.5677 15.2212C18.454 15.1025 18.3906 14.9445 18.3906 14.7802C18.3906 14.6159 18.454 14.4579 18.5677 14.3393C18.6813 14.2206 18.8364 14.1504 19.0006 14.1433V13.3028C18.832 13.2919 18.6744 13.2151 18.5621 13.0888C18.4498 12.9626 18.3917 12.7972 18.4005 12.6285C18.4107 12.473 18.4774 12.3267 18.5879 12.2168C18.6983 12.107 18.8451 12.0413 19.0006 12.0319V11.1914C18.9169 11.1876 18.8347 11.1673 18.7589 11.1316C18.683 11.096 18.615 11.0456 18.5587 10.9836C18.5023 10.9215 18.4588 10.8489 18.4307 10.77C18.4025 10.6911 18.3902 10.6073 18.3945 10.5236C18.4033 10.3658 18.47 10.2167 18.5818 10.1049C18.6936 9.99307 18.8427 9.92639 19.0006 9.91758V9.0836C18.8315 9.07245 18.6737 8.99507 18.5614 8.86827C18.449 8.74147 18.3912 8.57548 18.4005 8.40632C18.4107 8.25088 18.4774 8.10452 18.5879 7.99469C18.6983 7.88487 18.8451 7.81912 19.0006 7.80977V6.97223C18.8364 6.96514 18.6813 6.89493 18.5677 6.77627C18.454 6.6576 18.3906 6.49963 18.3906 6.33531C18.3906 6.171 18.454 6.01302 18.5677 5.89436C18.6813 5.77569 18.8364 5.70549 19.0006 5.6984V4.86085C18.8315 4.8497 18.6737 4.77232 18.5614 4.64552C18.449 4.51872 18.3912 4.35273 18.4005 4.18357C18.4117 4.02848 18.4787 3.88268 18.589 3.77305C18.6992 3.66342 18.8454 3.59735 19.0006 3.58702V2.74948C18.8318 2.74087 18.6733 2.66579 18.5598 2.54065C18.4462 2.41552 18.3868 2.2505 18.3945 2.0817C18.4028 1.92365 18.4693 1.77427 18.5813 1.66236C18.6932 1.55045 18.8425 1.48394 19.0006 1.47565L19.0012 1.47446ZM15.7804 9.26227L10.713 14.1908C11.1706 14.262 11.6158 14.3665 12.0919 14.3665C13.2511 14.3665 14.5843 14.0145 15.4842 13.6429L15.0236 15.816C13.6969 16.4529 12.8837 16.5064 12.0919 16.5064C11.2235 16.5064 10.3948 16.2214 9.54838 16.2214C9.06876 16.2214 8.37961 16.2588 7.95579 16.5402L7.03752 14.9138L12.2652 9.73832H6.24924L5.10185 15.1233H2.59218L5.20691 2.794H13.5105L12.9793 5.28289H7.20432L6.70986 7.59846H16.1882L15.7804 9.26227Z" fill="black"/>
</svg>
