<svg width="16" height="16" viewBox="0 0 16 16" fill="none" xmlns="http://www.w3.org/2000/svg">
<g clip-path="url(#clip0_4647_815)">
<path d="M6.58592 1.41419L5.88992 2.11019L6.84492 3.06519L7.84492 4.06519C8.07268 3.95252 8.32543 3.89984 8.57924 3.91215C8.83305 3.92446 9.07951 4.00134 9.2953 4.13552C9.51109 4.2697 9.68907 4.45674 9.81237 4.67892C9.93567 4.9011 10.0002 5.15108 9.99992 5.40519C9.99454 5.63194 9.94174 5.85506 9.84492 6.06019L10.8749 7.06019C11.145 6.90412 11.4612 6.84719 11.7688 6.89922C12.0763 6.95125 12.3562 7.10897 12.5599 7.34519C12.7023 7.48173 12.8149 7.64625 12.8906 7.82842C12.9664 8.01058 13.0036 8.20644 12.9999 8.40369C13.0002 8.79755 12.8467 9.17596 12.5719 9.45819C12.4337 9.60255 12.2671 9.71679 12.0826 9.79371C11.8982 9.87063 11.6998 9.90859 11.4999 9.90519C11.3022 9.90829 11.106 9.87136 10.9229 9.7966C10.7399 9.72184 10.5739 9.61081 10.4349 9.47019C10.1994 9.26471 10.0427 8.98375 9.99167 8.67543C9.94058 8.36711 9.9983 8.05063 10.1549 7.78019L9.15492 6.75019C9.10441 6.77304 9.05266 6.79307 8.99992 6.81019V10.0002C9.29021 10.1036 9.5416 10.2939 9.71992 10.5452C9.90194 10.795 9.99997 11.0961 9.99992 11.4052C10.0039 11.6032 9.96689 11.7999 9.89136 11.983C9.81582 12.166 9.70333 12.3316 9.56092 12.4692C9.28864 12.7411 8.92169 12.8972 8.53692 12.9047C8.25889 12.9134 7.98397 12.8441 7.74327 12.7047C7.50257 12.5652 7.30568 12.3612 7.17489 12.1157C7.0441 11.8702 6.98462 11.593 7.00319 11.3155C7.02175 11.0379 7.11761 10.7711 7.27992 10.5452C7.45825 10.2939 7.70964 10.1036 7.99992 10.0002V6.81019C7.70901 6.70796 7.45729 6.51742 7.27992 6.26519C7.09729 6.0157 6.99918 5.71437 6.99992 5.40519C6.9995 5.17772 7.0526 4.95334 7.15492 4.75019L5.20492 2.80019L1.41542 6.58619C1.22959 6.77188 1.08216 6.99237 0.981555 7.23506C0.880952 7.47774 0.829148 7.73787 0.829102 8.00058C0.829055 8.26329 0.880768 8.52344 0.981285 8.76616C1.0818 9.00888 1.22915 9.22943 1.41492 9.41519L6.58592 14.5862C6.96098 14.9611 7.4696 15.1718 7.99992 15.1718C8.53025 15.1718 9.03887 14.9611 9.41392 14.5862L14.5859 9.41419C14.9609 9.03913 15.1715 8.53051 15.1715 8.00019C15.1715 7.46986 14.9609 6.96124 14.5859 6.58619L9.41392 1.41419C9.03887 1.03924 8.53025 0.828613 7.99992 0.828613C7.4696 0.828613 6.96098 1.03924 6.58592 1.41419Z" fill="#E64A19"/>
</g>
<defs>
<clipPath id="clip0_4647_815">
<rect width="16" height="16" fill="white"/>
</clipPath>
</defs>
</svg>
