<svg width="21" height="19" viewBox="0 0 21 19" fill="none" xmlns="http://www.w3.org/2000/svg">
<path d="M8.02765 0.14978C5.36051 0.727432 3.17433 2.16306 1.67024 4.33775C-0.96192 8.16894 -0.437236 13.3083 2.92074 16.5874C3.92638 17.5728 5.4567 18.5242 6.61101 18.8895C7.0395 19.0254 7.09197 19.0254 7.28435 18.898C7.49422 18.762 7.50297 18.7281 7.50297 17.7512V16.7488L6.73343 16.7912C5.83273 16.8337 5.13315 16.6808 4.7134 16.3325C4.56474 16.2136 4.27617 15.8058 4.07504 15.4321C3.74274 14.8034 3.49789 14.5146 2.8158 13.9285C2.58844 13.7331 2.57969 13.7246 2.7371 13.6142C3.11312 13.3423 3.87391 13.6057 4.35487 14.1663C5.19436 15.1602 5.51792 15.4236 5.99888 15.5255C6.42737 15.6104 6.82088 15.5765 7.41552 15.4066C7.49422 15.3811 7.59916 15.2027 7.65163 14.9988C7.7041 14.8034 7.84401 14.5061 7.95769 14.3447L8.16757 14.0474L7.45925 13.9115C5.97264 13.6142 5.05445 13.096 4.45106 12.2125C3.8914 11.397 3.70776 10.6919 3.69902 9.37521C3.69902 8.13496 3.83893 7.62527 4.38985 6.92869C4.6347 6.62287 4.66093 6.52943 4.59098 6.35104C4.45981 6.04522 4.49479 4.754 4.6347 4.36324C4.74838 4.07441 4.8096 4.02344 5.0457 3.99796C5.43922 3.95548 6.17377 4.20183 6.91707 4.60959L7.55544 4.96637L8.1151 4.83895C8.91087 4.66056 11.2982 4.66905 12.0152 4.83895L12.5574 4.97487L13.0646 4.67755C13.738 4.28678 14.5949 3.98097 15.0234 3.98097C15.3645 3.98097 15.3645 3.98946 15.5044 4.4227C15.653 4.9239 15.6793 5.83285 15.5481 6.26609C15.4782 6.52093 15.4956 6.59739 15.688 6.84374C16.6412 8.067 16.7461 10.0973 15.9416 11.7623C15.3995 12.8581 14.2539 13.6226 12.7148 13.903L11.9803 14.0389L12.2514 14.5061L12.5312 14.9818L12.5574 16.8762L12.5924 18.7705L12.811 18.9065C13.0121 19.0339 13.0559 19.0339 13.4756 18.8895C14.1752 18.6601 15.3732 18.0315 16.0291 17.5473C19.9292 14.71 21.1885 9.62156 19.0285 5.39112C17.7605 2.90212 15.3645 0.990772 12.6186 0.277203C11.4206 -0.0286121 9.16447 -0.096571 8.02765 0.14978Z" fill="black"/>
</svg>
