<svg width="16" height="16" viewBox="0 0 16 16" fill="none" xmlns="http://www.w3.org/2000/svg">
<g clip-path="url(#clip0_4647_829)">
<path d="M12.25 0H3.75C1.67893 0 0 1.67893 0 3.75V12.25C0 14.3211 1.67893 16 3.75 16H12.25C14.3211 16 16 14.3211 16 12.25V3.75C16 1.67893 14.3211 0 12.25 0Z" fill="#242938"/>
<path d="M4.75406 2.6875C5.89544 2.6875 6.82062 3.61269 6.82062 4.75406C6.82062 5.89544 5.89544 6.82062 4.75406 6.82062C3.61269 6.82062 2.6875 5.89544 2.6875 4.75406C2.6875 3.61269 3.61269 2.6875 4.75406 2.6875ZM7.73912 6.82062C8.5 6.82062 9.11687 7.4375 9.11687 8.19837C9.11687 8.95925 8.5 9.57606 7.73912 9.57606C6.97825 9.57606 6.36144 8.95925 6.36144 8.19837C6.36144 7.4375 6.97825 6.82062 7.73912 6.82062ZM7.73912 10.4946C8.5 10.4946 9.11687 11.1114 9.11687 11.8723C9.11687 12.6332 8.5 13.25 7.73912 13.25C6.97825 13.25 6.36144 12.6332 6.36144 11.8723C6.36144 11.1114 6.97825 10.4946 7.73912 10.4946Z" stroke="#2088FF" stroke-width="0.45925" stroke-linecap="round" stroke-linejoin="round"/>
<path d="M11.8719 10.4946C12.6328 10.4946 13.2496 11.1114 13.2496 11.8724C13.2496 12.6333 12.6328 13.2501 11.8719 13.2501C11.111 13.2501 10.4941 12.6333 10.4941 11.8724C10.4941 11.1114 11.111 10.4946 11.8719 10.4946Z" stroke="#79B8FF" stroke-width="0.45925" stroke-linecap="round" stroke-linejoin="round"/>
<path d="M8.20722 7.87842L7.50247 8.58223L7.16016 8.24111" stroke="#2088FF" stroke-width="0.45925" stroke-linecap="round" stroke-linejoin="round"/>
<path d="M11.8719 6.8208C12.6328 6.8208 13.2496 7.43768 13.2496 8.19855C13.2496 8.95943 12.6328 9.57624 11.8719 9.57624C11.111 9.57624 10.4941 8.95943 10.4941 8.19855C10.4941 7.43768 11.111 6.8208 11.8719 6.8208Z" stroke="#2088FF" stroke-width="0.45925" stroke-linecap="round" stroke-linejoin="round"/>
<path d="M12.3401 7.87841L11.6354 8.58222L11.2931 8.2411M4.52468 6.82053V10.2648C4.52468 11.1525 5.25424 11.8722 6.13205 11.8722H6.36168M4.06543 4.02197C4.06543 3.84128 4.26455 3.73135 4.41749 3.82772L5.59149 4.56728C5.73505 4.65772 5.7343 4.86728 5.59012 4.95672L4.41605 5.68472C4.26312 5.7796 4.06543 5.6696 4.06543 5.4896V4.02197Z" stroke="#2088FF" stroke-width="0.45925" stroke-linecap="round" stroke-linejoin="round"/>
<path d="M6.3498 8.42786C6.41069 8.42786 6.46909 8.40367 6.51214 8.36062C6.5552 8.31756 6.57939 8.25916 6.57939 8.19827C6.57939 8.13738 6.5552 8.07898 6.51214 8.03592C6.46909 7.99286 6.41069 7.96868 6.3498 7.96868V8.42786ZM4.29492 6.82861C4.29492 7.71186 5.01098 8.42786 5.89417 8.42786V7.96868C5.26455 7.96868 4.75417 7.45824 4.75417 6.82861H4.29492ZM5.89417 8.42786H6.3498V7.96868H5.89417V8.42786Z" fill="#2088FF"/>
<path d="M9.12988 8.19824H10.4949" stroke="#2088FF" stroke-width="0.45925" stroke-linecap="round" stroke-linejoin="round"/>
<path fill-rule="evenodd" clip-rule="evenodd" d="M7.27943 11.6426C7.34033 11.6426 7.39874 11.6668 7.4418 11.7098C7.48486 11.7529 7.50905 11.8113 7.50905 11.8722C7.50905 11.9331 7.48486 11.9915 7.4418 12.0346C7.39874 12.0776 7.34033 12.1018 7.27943 12.1018C7.21853 12.1018 7.16012 12.0776 7.11706 12.0346C7.074 11.9915 7.0498 11.9331 7.0498 11.8722C7.0498 11.8113 7.074 11.7529 7.11706 11.7098C7.16012 11.6668 7.21853 11.6426 7.27943 11.6426ZM8.19793 11.6426C8.24336 11.6426 8.28778 11.656 8.32556 11.6813C8.36334 11.7065 8.39279 11.7424 8.41018 11.7843C8.42758 11.8263 8.43213 11.8725 8.42327 11.9171C8.41441 11.9616 8.39253 12.0026 8.36041 12.0347C8.32828 12.0668 8.28735 12.0887 8.24279 12.0975C8.19823 12.1064 8.15204 12.1018 8.11007 12.0845C8.06809 12.0671 8.03222 12.0376 8.00699 11.9998C7.98175 11.9621 7.96829 11.9176 7.9683 11.8722C7.96834 11.8113 7.99254 11.7529 8.0356 11.7099C8.07865 11.6668 8.13704 11.6426 8.19793 11.6426Z" fill="#79B8FF"/>
<path d="M10.2657 11.874L10.0332 11.8816" stroke="#79B8FF" stroke-width="0.45925" stroke-linecap="round"/>
</g>
<defs>
<clipPath id="clip0_4647_829">
<rect width="16" height="16" fill="white"/>
</clipPath>
</defs>
</svg>
