<svg width="64" height="59" viewBox="0 0 64 59" fill="none" xmlns="http://www.w3.org/2000/svg">
<g clip-path="url(#clip0_4647_821)">
<path d="M32.0184 59.0189L43.7944 22.7764H20.2422L32.0184 59.0189Z" fill="#E24329"/>
<path d="M32.019 59.0184L20.2428 22.7759H3.73926L32.019 59.0184Z" fill="#FC6D26"/>
<path d="M3.73895 22.7759L0.160453 33.7899C0.00126301 34.2795 0.00120176 34.807 0.160278 35.2966C0.319354 35.7863 0.629397 36.213 1.04595 36.5156L32.0187 59.0186L3.73895 22.7759Z" fill="#FCA326"/>
<path d="M3.73926 22.7761H20.2428L13.1505 0.947324C12.7855 -0.175926 11.1965 -0.175676 10.8318 0.947324L3.73926 22.7761Z" fill="#E24329"/>
<path d="M32.0186 59.0184L43.7946 22.7759H60.2983L32.0186 59.0184Z" fill="#FC6D26"/>
<path d="M60.2983 22.7759L63.8768 33.7899C64.036 34.2795 64.036 34.807 63.8769 35.2967C63.7177 35.7864 63.4077 36.2131 62.9911 36.5156L32.0186 59.0186L60.2983 22.7759Z" fill="#FCA326"/>
<path d="M60.2987 22.7761H43.7949L50.8874 0.947324C51.2524 -0.175926 52.8414 -0.175676 53.2062 0.947324L60.2987 22.7761Z" fill="#E24329"/>
</g>
<defs>
<clipPath id="clip0_4647_821">
<rect width="64" height="59" fill="white"/>
</clipPath>
</defs>
</svg>
