<svg width="19" height="19" viewBox="0 0 19 19" fill="none" xmlns="http://www.w3.org/2000/svg">
<path d="M6.3959 0.521008C8.47356 -0.19226 10.7328 -0.172642 12.7978 0.576598C13.9318 1.0012 14.9708 1.64555 15.8552 2.47267C15.5547 2.79419 15.2377 3.09467 14.9312 3.40718C14.3483 3.98912 13.7658 4.56906 13.1839 5.14699C12.6038 4.59211 11.902 4.18051 11.1346 3.94505C10.1525 3.64853 9.10782 3.62823 8.11501 3.88637C7.12221 4.14451 6.21969 4.67111 5.50646 5.40841C4.88391 6.04174 4.41243 6.8075 4.12723 7.64854L1.0127 5.23714C2.12751 3.0264 4.05774 1.33536 6.3959 0.521008Z" fill="#E33629"/>
<path d="M0.186297 7.626C0.353577 6.79632 0.631506 5.99285 1.01263 5.23714L4.12717 7.65455C3.71985 8.85442 3.71985 10.1552 4.12717 11.355C3.08949 12.1563 2.05131 12.9616 1.01263 13.7709C0.0588168 11.8723 -0.232081 9.70912 0.186297 7.626Z" fill="#F8BD00"/>
<path d="M9.50262 7.72366H18.4451C18.7508 9.40179 18.6681 11.1276 18.2032 12.7688C17.7754 14.278 16.9443 15.642 15.7993 16.7142C14.7942 15.9299 13.7845 15.1517 12.7794 14.3674C13.2777 14.0313 13.7031 13.598 14.0299 13.0935C14.3567 12.5891 14.5784 12.0238 14.6815 11.4317H9.50262C9.50112 10.1967 9.50262 8.96016 9.50262 7.72366Z" fill="#587DBD"/>
<path d="M1.01074 13.7709C2.04942 12.9697 3.0876 12.1644 4.12528 11.355C4.52674 12.5332 5.29027 13.5544 6.30681 14.2728C6.94076 14.721 7.66124 15.0322 8.42223 15.1862C9.17202 15.3257 9.94111 15.3257 10.6909 15.1862C11.4385 15.0599 12.1515 14.7784 12.7838 14.3599C13.7889 15.1442 14.7985 15.9224 15.8037 16.7067C14.7037 17.7069 13.3629 18.4043 11.9124 18.7305C10.3114 19.1068 8.64297 19.0888 7.05051 18.6779C5.79103 18.3416 4.61458 17.7488 3.59492 16.9366C2.51577 16.0796 1.6343 14.9998 1.01074 13.7709Z" fill="#319F43"/>
</svg>
