<svg width="45" height="45" viewBox="0 0 45 45" fill="none" xmlns="http://www.w3.org/2000/svg">
<path d="M26.2266 0.317813C24.9953 0.108638 23.7489 0.00233294 22.5 0C10.0687 0 0 10.0687 0 22.5C0 27.2728 1.50047 31.6828 4.02187 35.3405C5.56875 33.068 9.13641 31.5 13.2722 31.5C16.1128 31.5 18.682 32.2495 20.5228 33.4547L26.2266 0.317813ZM38.1825 6.38578C42.068 14.978 38.6592 19.568 38.6592 19.568C36.0225 11.6367 28.3866 10.478 28.3866 10.478C28.3866 10.478 23.3634 37.5455 23.3634 37.8858C23.3634 40.8178 20.25 43.2956 16.0228 44.0452C18.1238 44.6773 20.3059 44.999 22.5 45C34.9313 45 45 34.9313 45 22.5C45 16.1817 42.3858 10.4766 38.1825 6.38578Z" fill="black"/>
</svg>
