<svg width="76" height="63" viewBox="0 0 76 63" fill="none" xmlns="http://www.w3.org/2000/svg">
<g clip-path="url(#clip0_4619_19)">
<g clip-path="url(#clip1_4619_19)">
<g clip-path="url(#clip2_4619_19)">
<g clip-path="url(#clip3_4619_19)">
<path d="M24.3655 50.412V12.0289H31.1123V45.3094H45.4563V50.412H24.3655ZM49.4251 50.412V12.0289C49.6896 12.0289 50.2944 12.0176 51.2393 11.9949C52.1843 11.9798 53.2426 11.9722 54.4143 11.9722C55.586 11.9722 56.7577 11.9609 57.9294 11.9382C59.1011 11.9231 60.065 11.9155 60.8209 11.9155C65.2054 11.9155 68.5391 12.7849 70.8221 14.5235C73.1126 16.2622 74.2578 18.719 74.2578 21.894C74.2578 23.7461 73.7476 25.4091 72.7271 26.8832C71.7065 28.3573 70.2891 29.5479 68.4749 30.4551C70.7427 31.3244 72.47 32.5528 73.6569 34.1403C74.8513 35.7278 75.4485 37.561 75.4485 39.6398C75.4485 42.8904 74.22 45.5059 71.7632 47.4865C69.3064 49.4747 65.5834 50.4687 60.5941 50.4687C59.5736 50.4687 58.4775 50.4687 57.3058 50.4687C56.1341 50.4687 55.019 50.4612 53.9607 50.446C52.9024 50.4234 51.965 50.412 51.1486 50.412C50.3397 50.412 49.7652 50.412 49.4251 50.412ZM56.1719 33.2332V45.5929H61.0477C63.6179 45.5929 65.4586 45.0146 66.5699 43.858C67.6887 42.7089 68.2481 41.2651 68.2481 39.5264C68.2481 38.7327 68.1233 37.9578 67.8739 37.2019C67.632 36.4459 67.2087 35.7656 66.6039 35.1608C65.9991 34.5561 65.1941 34.0723 64.1887 33.7094C63.1908 33.3541 61.9359 33.1765 60.424 33.1765C59.5169 33.1765 58.7118 33.1765 58.0088 33.1765C57.3133 33.1765 56.701 33.1954 56.1719 33.2332ZM56.1719 16.7914V28.3573H60.5374C62.9187 28.3573 64.6195 27.8093 65.6401 26.7132C66.6606 25.617 67.1709 24.2752 67.1709 22.6877C67.1709 21.9696 67.0575 21.2514 66.8307 20.5333C66.6039 19.8152 66.2146 19.1726 65.6627 18.6056C65.1185 18.0387 64.3814 17.5851 63.4516 17.2449C62.5294 16.9048 61.369 16.7347 59.9705 16.7347C59.1389 16.7347 58.4095 16.7347 57.782 16.7347C57.1621 16.7347 56.6254 16.7536 56.1719 16.7914Z" fill="white"/>
</g>
</g>
</g>
</g>
<path d="M0 31.1919C0 13.9652 13.9652 0 31.1919 0C38.8642 0 45.8894 2.76992 51.3223 7.36467H48.5092C43.6487 3.82606 37.6642 1.73852 31.1919 1.73827C14.9252 1.73827 1.73827 14.9252 1.73827 31.1919C1.73827 47.4586 14.9252 60.6455 31.1919 60.6455C37.6642 60.6455 43.6487 58.558 48.5092 55.0191H51.3223C45.8894 59.6136 38.8642 62.3838 31.1919 62.3838C13.9652 62.3838 0 48.4186 0 31.1919Z" fill="white"/>
<defs>
<clipPath id="clip0_4619_19">
<rect width="51.083" height="38.5532" fill="white" transform="translate(24.3655 11.9155)"/>
</clipPath>
<clipPath id="clip1_4619_19">
<rect width="51.083" height="38.5532" fill="white" transform="translate(24.3655 11.9155)"/>
</clipPath>
<clipPath id="clip2_4619_19">
<rect width="51.083" height="38.5532" fill="white" transform="translate(24.3655 11.9155)"/>
</clipPath>
<clipPath id="clip3_4619_19">
<rect width="51.083" height="38.5532" fill="white" transform="translate(24.3655 11.9155)"/>
</clipPath>
</defs>
</svg>
