<svg width="36" height="36" viewBox="0 0 36 36" fill="none" xmlns="http://www.w3.org/2000/svg">
<path d="M17.6816 0.0664062C8.00547 0.0664062 0.161621 7.91026 0.161621 17.5864C0.161621 27.2626 8.00547 35.1064 17.6816 35.1064C27.3578 35.1064 35.2016 27.2626 35.2016 17.5864C35.2016 7.91026 27.3578 0.0664062 17.6816 0.0664062ZM13.3929 24.8481H9.84507V13.4309H13.3929V24.8481ZM11.5971 12.0293C10.4765 12.0293 9.752 11.2354 9.752 10.2536C9.752 9.25163 10.4984 8.48148 11.6427 8.48148C12.787 8.48148 13.4878 9.25163 13.5097 10.2536C13.5097 11.2354 12.787 12.0293 11.5971 12.0293ZM26.3504 24.8481H22.8026V18.5208C22.8026 17.048 22.2879 16.0479 21.0049 16.0479C20.0249 16.0479 19.4427 16.725 19.1854 17.3765C19.0905 17.6083 19.0668 17.9368 19.0668 18.2635V24.8463H15.5172V17.0718C15.5172 15.6464 15.4715 14.4547 15.4241 13.4291H18.5065L18.6689 15.015H18.7401C19.2073 14.2704 20.3516 13.1717 22.266 13.1717C24.6002 13.1717 26.3504 14.7358 26.3504 18.0974V24.8481Z" fill="#448BEF"/>
</svg>
