<svg width="20" height="19" viewBox="0 0 20 19" fill="none" xmlns="http://www.w3.org/2000/svg">
<g clip-path="url(#clip0_2597_736)">
<path d="M17.8144 13.8543C17.3935 14.7973 17.1922 15.219 16.6517 16.0523C15.8965 17.2161 14.8302 18.6684 13.5119 18.6784C12.3393 18.6883 12.0366 17.9042 10.4453 17.917C8.85389 17.9248 8.52238 18.6926 7.34838 18.6805C6.03009 18.6684 5.02079 17.36 4.26487 16.1983C2.15125 12.9398 1.92813 9.12071 3.23446 7.08867C4.15859 5.64779 5.62117 4.80164 6.99435 4.80164C8.39287 4.80164 9.27197 5.57941 10.4284 5.57941C11.5503 5.57941 12.2337 4.7995 13.8511 4.7995C15.0744 4.7995 16.368 5.474 17.2922 6.63781C14.2685 8.31444 14.7598 12.6848 17.8144 13.8543ZM12.6236 3.49894C13.212 2.73469 13.6583 1.65635 13.4964 0.556641C12.5364 0.62288 11.4137 1.24325 10.7578 2.04666C10.1637 2.77814 9.67104 3.86503 9.86319 4.91631C10.9105 4.9505 11.9944 4.31873 12.6236 3.49894Z" fill="black"/>
</g>
<defs>
<clipPath id="clip0_2597_736">
<rect width="18.2998" height="18.5184" fill="white" transform="translate(0.96875 0.359375)"/>
</clipPath>
</defs>
</svg>
