<svg width="16" height="16" viewBox="0 0 16 16" fill="none" xmlns="http://www.w3.org/2000/svg">
<g clip-path="url(#clip0_4648_841)">
<path d="M12.25 0H3.75C1.67893 0 0 1.67893 0 3.75V12.25C0 14.3211 1.67893 16 3.75 16H12.25C14.3211 16 16 14.3211 16 12.25V3.75C16 1.67893 14.3211 0 12.25 0Z" fill="#242938"/>
<mask id="mask0_4648_841" style="mask-type:luminance" maskUnits="userSpaceOnUse" x="2" y="2" width="12" height="12">
<path d="M2.375 2.375H13.625V13.625H2.375V2.375Z" fill="white"/>
</mask>
<g mask="url(#mask0_4648_841)">
<path fill-rule="evenodd" clip-rule="evenodd" d="M12.7376 11.138C12.1258 11.121 11.6511 11.1837 11.2533 11.3511C11.1387 11.3971 10.9549 11.3971 10.9398 11.5413C11.001 11.6018 11.0084 11.7008 11.0621 11.7846C11.1538 11.9368 11.3146 12.1418 11.4599 12.2482L11.9495 12.5981C12.2479 12.7804 12.5845 12.8869 12.8752 13.0694C13.0436 13.1759 13.2118 13.3128 13.3802 13.427C13.466 13.4878 13.5179 13.5869 13.6251 13.6247V13.6017C13.5716 13.5335 13.5561 13.4347 13.5028 13.3583L13.273 13.1379C13.0513 12.8414 12.7757 12.5827 12.4773 12.37C12.2325 12.2027 11.6971 11.9746 11.5976 11.6934L11.5825 11.6764C11.7506 11.6594 11.9495 11.6002 12.1103 11.5546C12.3706 11.4864 12.6076 11.5014 12.8752 11.433L13.2427 11.3265V11.2583C13.105 11.1215 13.0055 10.9389 12.8603 10.8098C12.4701 10.4753 12.0414 10.1482 11.5976 9.87451C11.3605 9.72251 11.0543 9.62345 10.8019 9.49445C10.7098 9.44876 10.557 9.42595 10.5035 9.34995C10.3655 9.18295 10.2891 8.9622 10.1897 8.76439L9.5624 7.44139C9.42471 7.14482 9.34034 6.84826 9.17227 6.57457C8.38409 5.28189 7.52702 4.49882 6.21102 3.7307C5.92809 3.57101 5.59146 3.50232 5.23352 3.41882L4.65977 3.3882C4.53715 3.33501 4.41483 3.19045 4.30771 3.12195C3.87158 2.8482 2.74683 2.2552 2.42521 3.03676C2.21865 3.53095 2.7314 4.01751 2.90546 4.26857C3.03577 4.44345 3.20384 4.64107 3.2959 4.83882C3.34734 4.96801 3.36452 5.10501 3.41821 5.24189C3.54046 5.57639 3.65534 5.94914 3.81602 6.26101C3.90177 6.4207 3.99184 6.5882 4.09896 6.73257C4.16021 6.81776 4.2674 6.85426 4.29021 6.99107C4.18302 7.14326 4.17565 7.37114 4.1144 7.56151C3.83884 8.42076 3.94602 9.48526 4.33615 10.1179C4.45877 10.3079 4.74771 10.7263 5.13977 10.5664C5.48409 10.4296 5.40727 9.9962 5.50671 9.61595C5.52984 9.52482 5.51446 9.46395 5.56021 9.40295V9.42001L5.87402 10.0511C6.11121 10.4236 6.52452 10.8115 6.86865 11.0702C7.05215 11.2071 7.19758 11.4429 7.42702 11.5264V11.5034H7.41196C7.36596 11.4353 7.29702 11.4046 7.23584 11.3514C7.09815 11.2146 6.94515 11.0472 6.83796 10.8952C6.51677 10.4694 6.23383 9.99789 5.98121 9.51132C5.85865 9.27564 5.75146 9.01707 5.65233 8.78139C5.60602 8.69007 5.60602 8.55301 5.52971 8.5077C5.41477 8.6747 5.24677 8.81957 5.16221 9.02476C5.01677 9.35164 5.00171 9.7547 4.94821 10.1729C4.91734 10.1806 4.93102 10.1729 4.91734 10.1899C4.67277 10.1293 4.5884 9.87807 4.49671 9.66539C4.26721 9.12551 4.22877 8.2587 4.42771 7.63514C4.48121 7.47545 4.71102 6.97357 4.61927 6.82151C4.57302 6.67701 4.42034 6.59351 4.33596 6.47932C4.23652 6.33482 4.12971 6.15245 4.06077 5.99276C3.87727 5.5667 3.78552 5.09545 3.5864 4.66964C3.49434 4.47189 3.33384 4.26651 3.20365 4.0842C3.05821 3.87882 2.8979 3.73426 2.78302 3.49107C2.74477 3.40589 2.69127 3.27057 2.75246 3.1792C2.76758 3.11839 2.7984 3.09401 2.85934 3.08039C2.95871 2.99514 3.24209 3.1032 3.34152 3.14851C3.62446 3.2627 3.86165 3.36907 4.09884 3.52857C4.20602 3.60457 4.3209 3.74914 4.45859 3.78732H4.61946C4.86434 3.84045 5.13959 3.80432 5.36884 3.87251C5.77446 4.00201 6.14158 4.19189 6.47083 4.39739C7.47302 5.02851 8.29959 5.92576 8.8579 6.99807C8.94965 7.17295 8.9879 7.33264 9.07227 7.51514C9.23315 7.88789 9.43209 8.26795 9.5924 8.63314C9.75327 8.99051 9.90621 9.35576 10.1357 9.65226C10.2506 9.81195 10.7095 9.89545 10.916 9.97914C11.0691 10.0473 11.3061 10.1087 11.4441 10.1922C11.7041 10.3519 11.9643 10.5344 12.209 10.7093C12.3312 10.8003 12.714 10.9904 12.7368 11.1421L12.7376 11.138ZM4.93496 4.53032C4.82928 4.52942 4.72393 4.54219 4.62152 4.56832V4.58539H4.63658C4.69783 4.70707 4.80502 4.79076 4.88146 4.89726L5.05759 5.26226L5.07271 5.24526C5.17984 5.16926 5.23352 5.04757 5.23352 4.86526C5.18759 4.81207 5.18002 4.7587 5.14177 4.70551C5.09584 4.62951 4.9964 4.59132 4.93496 4.5307V4.53032Z" fill="white"/>
</g>
</g>
<defs>
<clipPath id="clip0_4648_841">
<rect width="16" height="16" fill="white"/>
</clipPath>
</defs>
</svg>
