<svg width="20" height="19" viewBox="0 0 20 19" fill="none" xmlns="http://www.w3.org/2000/svg">
<path d="M0.569075 0.859164C1.10047 -0.462191 2.95855 0.538471 3.67961 1.00004C3.85633 1.11552 4.05903 1.35949 4.26164 1.44967C4.57775 1.46223 4.89359 1.48727 5.21023 1.50064C5.80414 1.64187 6.36045 1.75726 6.82845 2.02699C9.00334 3.32313 10.4191 4.64395 11.7221 6.82563C12.0006 7.28774 12.1397 7.7878 12.3671 8.28786C12.6828 9.03324 13.0375 9.81568 13.4038 10.5205C13.5679 10.8547 13.6948 11.2262 13.9226 11.5084C14.0115 11.6375 14.2641 11.6755 14.4151 11.7526C14.8326 11.9713 15.3384 12.1372 15.731 12.3939C16.4642 12.8565 17.1731 13.4078 17.8176 13.9722C18.0578 14.1901 18.2215 14.4985 18.4503 14.7289V14.8452C18.2472 14.9083 18.0447 14.9729 17.8421 15.0247C17.3996 15.1397 17.0076 15.1137 16.5782 15.2288C16.3129 15.3067 15.9835 15.4094 15.7053 15.4355L15.731 15.4617C15.8947 15.935 16.7803 16.32 17.1853 16.6031C17.6773 16.9624 18.1331 17.3981 18.5001 17.8985C18.6268 18.0262 18.7535 18.1424 18.8796 18.2697C18.9677 18.3987 18.9925 18.5656 19.0817 18.6807V18.7196C18.9829 18.6844 18.9119 18.6171 18.8446 18.5467L18.8045 18.5043C18.7643 18.4621 18.7238 18.4206 18.6776 18.3865C18.3984 18.1935 18.1213 17.9628 17.8421 17.7834C17.3622 17.4753 16.8057 17.2964 16.3129 16.9871C16.0343 16.8076 15.7688 16.6031 15.5032 16.3976C15.2625 16.2175 14.9973 15.8717 14.8461 15.6151C14.7569 15.4733 14.7447 15.3067 14.6429 15.2041C14.6611 15.0328 14.8162 14.9819 14.9727 14.9401L15.0087 14.9305C15.0627 14.9163 15.1155 14.9022 15.1616 14.8834C15.819 14.601 16.6028 14.4985 17.6149 14.5241C17.5767 14.267 16.9443 13.9466 16.7424 13.7926C16.3372 13.497 15.9081 13.1886 15.4783 12.9196C15.2505 12.7787 14.8579 12.6759 14.6056 12.5608C14.2641 12.4195 13.5052 12.2784 13.316 12.0094C12.9945 11.5853 12.7636 11.0795 12.5395 10.5686L12.4785 10.4292C12.4581 10.3827 12.4377 10.3362 12.4173 10.2898C12.1524 9.67454 11.8232 9.03306 11.5577 8.40307C11.4188 8.09575 11.355 7.82602 11.203 7.53126C10.2802 5.7225 8.91441 4.20813 7.2585 3.14314C6.71433 2.7966 6.10757 2.47591 5.43776 2.25796C5.05816 2.14193 4.60257 2.20609 4.19815 2.11708H3.93197C3.70479 2.0523 3.51513 1.80859 3.33788 1.6801C2.9464 1.41109 2.5543 1.23046 2.08613 1.03853C1.92209 0.961545 1.45365 0.782265 1.29014 0.92341C1.18888 0.949162 1.13754 0.987836 1.11262 1.09067C1.01189 1.2441 1.10047 1.47525 1.16316 1.61675C1.35309 2.02681 1.61839 2.27052 1.85922 2.61705C2.07345 2.92438 2.33955 3.27091 2.49144 3.60506C2.81916 4.32335 2.97176 5.11916 3.27545 5.83735C3.38806 6.10744 3.5662 6.41476 3.73015 6.65837C3.8691 6.85174 4.12172 6.99154 4.19815 7.23632C4.35049 7.49295 3.97009 8.33972 3.88204 8.60864C3.55264 9.6609 3.61648 11.1236 3.99581 12.0357L4.01602 12.0838L4.03624 12.1325C4.17474 12.4666 4.323 12.8263 4.69124 12.9197C4.7166 12.8942 4.69124 12.9076 4.74152 12.8942C4.83063 12.1882 4.85573 11.5083 5.0962 10.956C5.23514 10.6106 5.51259 10.3664 5.70279 10.0845C5.82959 10.1613 5.82959 10.3929 5.90513 10.5462C6.0697 10.9437 6.24642 11.3795 6.4493 11.7782C6.86569 12.5992 7.33422 13.3952 7.86509 14.1134C8.04287 14.3699 8.29514 14.6523 8.52266 14.8833C8.62401 14.9728 8.73751 15.0245 8.81368 15.1396H8.83851V15.1784C8.45918 15.0369 8.2187 14.6397 7.91616 14.4079C7.34655 13.972 6.66441 13.3176 6.27178 12.6895C6.10757 12.329 5.93005 11.9835 5.75307 11.6247V11.5988C5.67743 11.7013 5.70279 11.803 5.66493 11.9581C5.50071 12.5992 5.62715 13.3306 5.05816 13.5612C4.41318 13.8313 3.93205 13.1254 3.73015 12.8046C3.08499 11.7398 2.90827 9.94364 3.36324 8.4937C3.46432 8.17274 3.47807 7.7878 3.65452 7.53153C3.61639 7.29985 3.43994 7.2365 3.33788 7.09455C3.16089 6.85192 3.00936 6.56927 2.87076 6.29982C2.60458 5.77346 2.41518 5.14455 2.2131 4.58006C2.12425 4.34955 2.09881 4.11813 2.01023 3.89991C1.85913 3.56684 1.58062 3.23269 1.36577 2.93801C1.07485 2.51449 0.227519 1.69365 0.569075 0.859164ZM4.71634 3.37293C4.75012 3.40721 4.79091 3.43718 4.83312 3.4667L4.88401 3.50205C4.95185 3.54961 5.01755 3.59968 5.05781 3.66787C5.12165 3.75814 5.13353 3.84724 5.20996 3.93769C5.20996 4.24609 5.12165 4.45112 4.94333 4.5789C4.94333 4.5789 4.93118 4.59235 4.91868 4.60492C4.8176 4.39935 4.72902 4.19485 4.62722 3.98946C4.50184 3.81018 4.3246 3.66796 4.22245 3.46311H4.19789V3.43736C4.35049 3.39922 4.50184 3.37293 4.71634 3.37293Z" fill="white"/>
</svg>
