<svg width="33" height="21" viewBox="0 0 33 21" fill="none" xmlns="http://www.w3.org/2000/svg">
<path d="M14.6233 15.0299C14.713 16.2105 14.6955 17.3968 14.5713 18.5742C14.5661 18.7397 14.5174 18.9009 14.4303 19.0417C14.3431 19.1825 14.2205 19.2979 14.0747 19.3763C13.1346 20.0743 9.98395 20.2417 9.59139 18.7586C9.44659 18.753 9.56198 18.2733 9.42396 18.2914C9.14839 18.2688 8.88198 18.1817 8.64618 18.0373C8.41039 17.8929 8.21181 17.6951 8.06642 17.4599C8.07208 15.8377 8.25082 9.98554 5.35135 11.5614C4.72128 11.9126 4.24876 12.4907 4.03001 13.178C3.83464 13.7777 3.74283 14.4062 3.7585 15.0367C3.73588 15.8445 3.93725 16.728 3.96666 17.6975C3.97797 18.1308 4.04698 18.2405 3.72456 18.6093C3.20531 19.2032 2.29915 18.7021 1.8093 18.0493C1.60214 17.7206 1.48835 17.3416 1.4801 16.9531C1.09051 12.7154 1.47383 8.44225 2.61138 4.34158C3.02656 2.9501 3.17137 2.74873 4.49271 2.4365C5.99618 2.1058 7.54239 2.01417 9.0744 2.16499C10.2634 1.77809 13.0848 -0.317042 14.3021 1.34594C16.149 0.935868 18.0594 0.899776 19.9206 1.23979C21.7817 1.57981 23.5559 2.28905 25.1386 3.32569C26.7417 3.44702 28.3503 3.4761 29.9567 3.4128C30.183 3.26799 30.4477 3.11301 30.6785 2.97951C30.8479 2.8648 31.0381 2.78447 31.2385 2.74308C31.4987 2.70235 31.8381 2.69104 31.9172 3.01458C31.9861 3.34662 32.0094 3.6865 31.9863 4.02482C31.9784 4.22877 31.9025 4.42422 31.7707 4.58004C31.6389 4.73585 31.4587 4.84307 31.2588 4.88459C30.8072 4.81046 30.3694 4.66858 29.9601 4.46376C28.4895 4.50448 27.5844 4.42303 26.1138 4.46376C26.3502 4.71716 26.34 4.88459 26.512 5.21945C26.9347 6.33181 27.0758 7.53141 26.9228 8.7115C26.7699 9.89158 26.3275 11.0156 25.6352 11.9834C25.5312 13.669 25.6579 15.3716 25.6703 17.0628C25.676 17.6455 25.7167 18.1998 25.168 18.5867C24.6841 18.8768 24.1401 19.0521 23.5779 19.0992C23.0156 19.1463 22.45 19.0638 21.9246 18.8582C21.6382 18.6938 21.3826 18.481 21.1689 18.2292C20.9811 18.2498 20.7918 18.2536 20.6033 18.2405C20.2828 18.1509 20.0058 17.9479 19.8238 17.6692C19.7195 17.4786 19.6306 17.28 19.558 17.0753C19.558 16.2834 19.5286 15.9734 19.5286 15.1827C17.8976 15.4746 16.224 15.4276 14.612 15.0446L14.6233 15.0299Z" fill="#CCCCCC"/>
<path d="M11.9186 20.0729C11.4514 20.0799 10.9862 20.0095 10.5418 19.8648C10.2952 19.7985 10.0674 19.6757 9.87649 19.506C9.68561 19.3364 9.53692 19.1245 9.44223 18.8873C9.35978 18.7846 9.31935 18.6544 9.32911 18.5231V18.4721C9.04156 18.429 8.76658 18.3249 8.52266 18.1666C8.27875 18.0083 8.07155 17.7997 7.915 17.5547L7.88785 17.5106V17.2164C7.89803 15.8792 7.92405 12.3259 6.71811 11.603C6.51514 11.5044 6.28917 11.4628 6.06439 11.4827C5.83961 11.5027 5.62448 11.5833 5.44202 11.7161C4.84762 12.0473 4.4024 12.5933 4.19761 13.2422C4.0111 13.8223 3.9239 14.4296 3.93968 15.0387C3.93972 15.4929 3.97186 15.9466 4.03584 16.3962C4.08448 16.8103 4.13426 17.2402 4.14897 17.6916C4.14897 17.7583 4.14897 17.816 4.15689 17.868C4.18264 18.0245 4.16925 18.1849 4.11793 18.3349C4.06661 18.4849 3.97894 18.6199 3.86275 18.7278C3.77087 18.8363 3.65518 18.9222 3.5247 18.9787C3.39422 19.0352 3.25246 19.0608 3.11045 19.0536C2.82055 19.0136 2.54228 18.9131 2.29363 18.7588C2.04498 18.6045 1.83148 18.3997 1.66693 18.1576C1.43492 17.8032 1.30857 17.39 1.30266 16.9664C0.908058 12.7065 1.2945 8.41036 2.44299 4.28926C2.86722 2.8695 3.05389 2.59234 4.45554 2.26087C5.96564 1.92853 7.51839 1.83425 9.0576 1.98145C9.39595 1.84969 9.72645 1.69861 10.0475 1.52893C11.4412 0.832062 13.3395 -0.114821 14.3814 1.15108C16.2281 0.752582 18.1354 0.724166 19.9932 1.06748C21.8509 1.41079 23.6221 2.11901 25.2044 3.15119C26.7706 3.26895 28.3423 3.29615 29.9117 3.23264C30.1379 3.0935 30.3777 2.94869 30.5972 2.82199L30.6606 2.78579C30.8302 2.67441 31.0201 2.59752 31.2194 2.55953C31.7217 2.48147 32.0113 2.61949 32.0984 2.96792C32.171 3.31704 32.1957 3.67441 32.172 4.0302C32.1606 4.27739 32.066 4.51349 31.9036 4.70017C31.7411 4.88684 31.5204 5.01313 31.2771 5.05853H31.2477L31.2194 5.05061C31.1218 5.02565 31.0237 5.00227 30.9253 4.98047C30.5723 4.92006 30.2305 4.80639 29.9117 4.64335C29.1955 4.66145 28.605 4.65127 28.0349 4.64335C27.545 4.63543 27.0416 4.62638 26.4578 4.63543C26.494 4.7067 26.5201 4.77571 26.5483 4.84585C26.5851 4.9447 26.6274 5.04139 26.6751 5.13546C27.1139 6.27208 27.265 7.49956 27.1148 8.70867C26.9646 9.91778 26.5178 11.071 25.8141 12.0657C25.7508 13.1585 25.7836 14.2796 25.8141 15.3645C25.8311 15.92 25.8481 16.4958 25.8515 17.0614V17.1587C25.906 17.4493 25.8808 17.7492 25.7786 18.0267C25.6764 18.3041 25.5011 18.5488 25.2711 18.7346C24.7629 19.044 24.1899 19.2313 23.5971 19.2817C23.0043 19.3322 22.4078 19.2444 21.8547 19.0253C21.6111 18.9048 21.3942 18.7367 21.2166 18.531C21.177 18.4902 21.1374 18.4495 21.0967 18.4111C21.0413 18.4111 20.9836 18.4178 20.9327 18.4235C20.8088 18.443 20.6824 18.4407 20.5593 18.4167C20.1955 18.316 19.8806 18.0864 19.6735 17.7708C19.5939 17.6423 19.529 17.5053 19.4801 17.3624C19.4536 17.2906 19.4249 17.2197 19.3941 17.1497L19.3783 17.1146V17.0761C19.3783 16.6836 19.3715 16.4042 19.3636 16.1349C19.3579 15.9087 19.3523 15.6824 19.35 15.3894C17.8483 15.6365 16.3136 15.6012 14.8249 15.2853C14.8929 16.3907 14.8683 17.4998 14.7513 18.6011C14.7428 18.7898 14.6865 18.9732 14.5875 19.1341C14.4885 19.295 14.3503 19.4281 14.1857 19.5208C13.4965 19.9133 12.7111 20.1045 11.9186 20.0729ZM9.69112 18.5819H9.73184L9.76578 18.7108C9.83421 18.9108 9.95216 19.0901 10.1086 19.2322C10.2651 19.3742 10.455 19.4743 10.6606 19.5231C11.7588 19.8579 12.9441 19.7528 13.9662 19.2301C14.0919 19.1661 14.1977 19.0691 14.2724 18.9495C14.3472 18.83 14.388 18.6923 14.3905 18.5513C14.5087 17.433 14.5295 16.3066 14.4527 15.1846L14.3565 15.1575L14.7525 14.3724L14.7989 14.8962C16.3491 15.239 17.9518 15.2728 19.5152 14.9957L19.7199 14.9686V15.1745C19.7199 15.567 19.7267 15.8464 19.7346 16.1157C19.7426 16.3849 19.7482 16.6508 19.7493 17.0286C19.7776 17.0954 19.8025 17.1599 19.8274 17.2221C19.8674 17.3406 19.9201 17.4544 19.9847 17.5615C20.1431 17.8042 20.3843 17.9811 20.6634 18.0592C20.7444 18.0714 20.8268 18.0714 20.9078 18.0592C20.9994 18.0484 21.0916 18.0435 21.1838 18.0445H21.2517L21.3015 18.0909C21.3626 18.1475 21.4236 18.2097 21.4847 18.2719C21.6299 18.4421 21.8066 18.5827 22.0051 18.686C22.5021 18.8798 23.0368 18.9578 23.5684 18.9139C24.1001 18.87 24.6147 18.7054 25.0732 18.4325C25.5121 18.1226 25.5064 17.6972 25.4997 17.1576V17.0592C25.4997 16.4935 25.4793 15.9279 25.4623 15.3713C25.4295 14.2547 25.3956 13.0997 25.4623 11.9673V11.8926L25.5189 11.8428C26.1858 10.9049 26.611 9.81692 26.7568 8.67534C26.9027 7.53376 26.7646 6.37383 26.3549 5.29836C26.3013 5.19293 26.2537 5.08453 26.2124 4.97369C26.1668 4.82807 26.0896 4.69438 25.9861 4.58226L25.7135 4.28926L26.1128 4.27795C26.8527 4.25758 27.4568 4.26777 28.0428 4.27795C28.6288 4.28813 29.225 4.29831 29.9558 4.27795H30.0089L30.0542 4.30623C30.3491 4.46604 30.6682 4.57648 30.9988 4.63317C31.0916 4.65466 31.1832 4.67503 31.2726 4.69765C31.4214 4.65139 31.5523 4.56045 31.6476 4.4372C31.743 4.31394 31.798 4.16434 31.8054 4.0087C31.827 3.68781 31.8049 3.36546 31.7398 3.05051C31.724 2.9815 31.6934 2.8514 31.2692 2.91815C31.1141 2.94865 30.9665 3.00938 30.8348 3.09689L30.7714 3.13309C30.5452 3.26206 30.2861 3.41931 30.0576 3.56185L30.0157 3.58787H29.9671C28.3536 3.65394 26.7376 3.62486 25.1275 3.50076H25.0799L25.0404 3.47361C23.4776 2.44889 21.7251 1.74818 19.8866 1.41298C18.0482 1.07778 16.1611 1.1149 14.3373 1.52214L14.2242 1.54251L14.1574 1.452C13.3124 0.298097 11.517 1.1952 10.2059 1.85022C9.85873 2.03589 9.49971 2.1984 9.13113 2.33667L9.09493 2.34798H9.0576C7.54456 2.19871 6.01746 2.28881 4.53247 2.61496C3.2643 2.91362 3.17493 3.06748 2.78238 4.3956C1.64494 8.47388 1.26156 12.7255 1.6511 16.9415C1.65352 17.2955 1.7546 17.6418 1.94297 17.9416C2.07614 18.1402 2.2485 18.3094 2.44946 18.439C2.65042 18.5686 2.87573 18.6557 3.11158 18.695C3.19987 18.7001 3.28813 18.6845 3.36927 18.6493C3.45041 18.6141 3.52217 18.5604 3.5788 18.4925C3.66389 18.4198 3.7279 18.3256 3.76412 18.2198C3.80034 18.1139 3.80745 18.0002 3.78469 17.8907C3.78469 17.8352 3.77791 17.7775 3.77677 17.7051C3.75948 17.282 3.72172 16.8599 3.66365 16.4404C3.59748 15.9746 3.56459 15.5046 3.56523 15.0342C3.54868 14.3816 3.64474 13.731 3.84918 13.111C4.0844 12.3852 4.58556 11.7753 5.25197 11.4039C5.48811 11.238 5.76509 11.1398 6.053 11.1198C6.3409 11.0999 6.62878 11.159 6.88554 11.2908C8.2691 12.12 8.24308 15.6915 8.23176 17.2164V17.4053C8.36123 17.6016 8.53276 17.7666 8.73392 17.8883C8.93507 18.01 9.1608 18.0854 9.39472 18.109C9.42498 18.1056 9.4556 18.1084 9.48476 18.1172C9.51392 18.1259 9.54101 18.1404 9.56441 18.1599C9.60535 18.2058 9.63649 18.2596 9.65594 18.3179C9.67539 18.3763 9.68274 18.438 9.67754 18.4993C9.68772 18.5253 9.68886 18.5581 9.69112 18.5819Z" fill="#CCCCCC"/>
<path d="M13.9505 14.5768C14.0401 15.7574 14.0227 16.9437 13.8984 18.1211C13.8932 18.2866 13.8446 18.4478 13.7574 18.5886C13.6703 18.7294 13.5476 18.8447 13.4018 18.9232C12.4617 19.6212 9.3111 19.7886 8.91854 18.3055C8.77374 18.2999 8.88913 17.8202 8.75111 17.8383C8.47553 17.8157 8.20912 17.7286 7.97333 17.5842C7.73754 17.4398 7.53896 17.242 7.39357 17.0068C7.39923 15.3845 7.57797 9.53242 4.6785 11.1083C4.04843 11.4594 3.57591 12.0376 3.35716 12.7249C3.16179 13.3246 3.06998 13.9531 3.08565 14.5836C3.06303 15.3913 3.26439 16.2749 3.29381 17.2444C3.30512 17.6777 3.37413 17.7874 3.05171 18.1562C2.53245 18.7501 1.6263 18.2489 1.13645 17.5962C0.929293 17.2674 0.815494 16.8885 0.807249 16.5C0.417661 12.2623 0.800976 7.98913 1.93853 3.88845C2.35371 2.49698 2.49852 2.29561 3.81985 1.98337C5.32333 1.65268 6.86954 1.56105 8.40155 1.71187C9.59052 1.32497 12.4119 -0.770167 13.6292 0.892817C15.4762 0.482743 17.3866 0.446649 19.2477 0.786665C21.1089 1.12668 22.8831 1.83592 24.4658 2.87256C26.0688 2.99389 27.6775 3.02298 29.2839 2.95967C29.5101 2.81487 29.7749 2.65988 30.0056 2.52639C30.175 2.41167 30.3653 2.33134 30.5656 2.28995C30.8258 2.24922 31.1652 2.23791 31.2444 2.56146C31.3133 2.89349 31.3365 3.23338 31.3134 3.57169C31.3055 3.77564 31.2297 3.9711 31.0978 4.12691C30.966 4.28273 30.7858 4.38994 30.586 4.43147C30.1344 4.35733 29.6965 4.21546 29.2873 4.01063C27.8166 4.05136 26.9116 3.9699 25.4409 4.01063C25.6774 4.26404 25.6672 4.43147 25.8391 4.76633C26.2618 5.87869 26.4029 7.07829 26.25 8.25837C26.097 9.43846 25.6547 10.5624 24.9624 11.5303C24.8583 13.2159 24.985 14.9185 24.9975 16.6097C25.0031 17.1923 25.0438 17.7467 24.4952 18.1336C24.0112 18.4237 23.4673 18.599 22.905 18.6461C22.3428 18.6931 21.7772 18.6107 21.2518 18.4051C20.9654 18.2407 20.7097 18.0279 20.4961 17.7761C20.3082 17.7967 20.1189 17.8004 19.9304 17.7874C19.6099 17.6978 19.3329 17.4947 19.151 17.2161C19.0467 17.0255 18.9578 16.8269 18.8851 16.6222C18.8851 15.8303 18.8557 15.5203 18.8557 14.7295C17.2248 15.0214 15.5512 14.9745 13.9392 14.5915L13.9505 14.5768Z" fill="#373435"/>
<path d="M11.2454 19.6203C10.7781 19.6272 10.3129 19.5569 9.86858 19.4121C9.62193 19.3459 9.39411 19.2231 9.20323 19.0534C9.01235 18.8837 8.86366 18.6719 8.76898 18.4347C8.68652 18.332 8.64609 18.2018 8.65585 18.0704V18.0195C8.3683 17.9764 8.09332 17.8722 7.8494 17.714C7.60549 17.5557 7.39829 17.3471 7.24174 17.1021L7.21459 17.0579V16.7638C7.22477 15.4266 7.25079 11.8733 6.04485 11.1504C5.84188 11.0518 5.61591 11.0102 5.39113 11.0301C5.16635 11.05 4.95122 11.1307 4.76876 11.2635C4.17436 11.5947 3.72914 12.1407 3.52435 12.7896C3.33784 13.3696 3.25064 13.977 3.26642 14.5861C3.26645 15.0403 3.29859 15.4939 3.36258 15.9436C3.41122 16.3588 3.461 16.7876 3.47571 17.2401C3.47571 17.3068 3.47571 17.3645 3.48363 17.4165C3.50938 17.573 3.49599 17.7334 3.44467 17.8834C3.39335 18.0334 3.30568 18.1684 3.18949 18.2763C3.09766 18.3849 2.98199 18.4708 2.85149 18.5273C2.721 18.5838 2.57921 18.6094 2.43719 18.6021C2.14729 18.5621 1.86902 18.4616 1.62037 18.3073C1.37172 18.153 1.15822 17.9482 0.993673 17.7062C0.761716 17.3517 0.635376 16.9385 0.6294 16.5149C0.234658 12.2546 0.621106 7.95809 1.76973 3.83664C2.19396 2.41688 2.38063 2.13971 3.78228 1.80825C5.29237 1.47587 6.84513 1.38159 8.38434 1.52882C8.72269 1.39707 9.05319 1.24598 9.37421 1.07631C10.768 0.379438 12.6662 -0.568576 13.7082 0.69846C15.5549 0.300185 17.4623 0.271985 19.32 0.615489C21.1777 0.958993 22.9489 1.66738 24.5311 2.6997C26.0954 2.81804 27.6652 2.84599 29.2327 2.78341C29.4533 2.64653 29.7 2.49833 29.9183 2.37276L29.9816 2.33656C30.1513 2.22518 30.3412 2.1483 30.5405 2.1103C31.0428 2.03224 31.3324 2.17026 31.4195 2.51869C31.4921 2.86781 31.5168 3.22518 31.493 3.58097C31.4817 3.82816 31.3871 4.06426 31.2247 4.25093C31.0622 4.43761 30.8414 4.5639 30.5982 4.6093H30.5688L30.5405 4.60138C30.4428 4.57642 30.3448 4.55304 30.2464 4.53124C29.896 4.46934 29.5569 4.35492 29.2407 4.19186C28.5246 4.20996 27.934 4.19978 27.3639 4.19186C26.874 4.18394 26.3706 4.17489 25.7869 4.18394C25.8231 4.25521 25.8491 4.32422 25.8774 4.39436C25.9141 4.49321 25.9564 4.5899 26.0041 4.68397C26.4428 5.8206 26.5938 7.04807 26.4436 8.25716C26.2934 9.46625 25.8467 10.6195 25.1432 11.6142C25.0798 12.707 25.1126 13.8281 25.1432 14.9119C25.159 15.4685 25.176 16.0432 25.1805 16.6088V16.7061C25.2351 16.9966 25.2101 17.2965 25.1081 17.5739C25.0061 17.8513 24.831 18.096 24.6013 18.282C24.0931 18.5914 23.52 18.7787 22.9272 18.8291C22.3344 18.8796 21.738 18.7918 21.1848 18.5727C20.9413 18.4522 20.7243 18.2841 20.5468 18.0783C20.5072 18.0376 20.4676 17.9969 20.4268 17.9584C20.3714 17.9584 20.3137 17.9652 20.2628 17.9709C20.1389 17.9904 20.0126 17.9881 19.8895 17.9641C19.5256 17.8634 19.2108 17.6338 19.0037 17.3181C18.924 17.1897 18.8591 17.0527 18.8102 16.9097C18.7837 16.838 18.755 16.7671 18.7243 16.6971L18.7084 16.662V16.6235C18.7084 16.231 18.7016 15.9515 18.6937 15.6823C18.6881 15.456 18.6813 15.2298 18.6801 14.9368C17.1784 15.1838 15.6438 15.1485 14.155 14.8327C14.2201 15.9372 14.1929 17.0452 14.0736 18.1451C14.0651 18.3338 14.0087 18.5172 13.9097 18.6781C13.8108 18.839 13.6725 18.9721 13.5079 19.0648C12.8204 19.4576 12.0366 19.65 11.2454 19.6203ZM9.01786 18.1293H9.05858L9.09252 18.2582C9.16095 18.4582 9.2789 18.6375 9.43537 18.7796C9.59185 18.9216 9.78175 19.0217 9.98737 19.0705C11.0855 19.4054 12.2709 19.3003 13.293 18.7775C13.4186 18.7135 13.5245 18.6165 13.5992 18.4969C13.6739 18.3773 13.7147 18.2397 13.7172 18.0987C13.8354 16.9804 13.8562 15.8539 13.7794 14.732L13.6833 14.7049L14.0736 13.9254L14.1199 14.4492C15.6702 14.792 17.2729 14.8258 18.8363 14.5487L19.041 14.5216V14.7275C19.041 15.12 19.0478 15.3995 19.0557 15.6687C19.0636 15.938 19.0693 16.2038 19.0704 16.5817C19.0987 16.6484 19.1236 16.7129 19.1485 16.7762C19.1884 16.8948 19.2411 17.0086 19.3057 17.1156C19.4642 17.3583 19.7054 17.5352 19.9845 17.6134C20.0655 17.6256 20.1479 17.6256 20.2289 17.6134C20.3205 17.6025 20.4127 17.5976 20.5049 17.5987H20.5728L20.6225 17.6451C20.6836 17.7016 20.7447 17.7582 20.8058 17.8261C20.9511 17.9962 21.1278 18.1368 21.3262 18.2401C21.8232 18.434 22.3579 18.512 22.8895 18.4681C23.4212 18.4241 23.9358 18.2595 24.3942 17.9867C24.8332 17.6767 24.8275 17.2514 24.8207 16.7118V16.6133C24.8207 16.0477 24.8004 15.4821 24.7834 14.9243C24.7506 13.8078 24.7167 12.6539 24.7834 11.5214V11.4468L24.84 11.397C25.5068 10.459 25.9319 9.37105 26.0778 8.22948C26.2236 7.08792 26.0856 5.92801 25.676 4.85253C25.6224 4.7471 25.5748 4.63869 25.5334 4.52785C25.4879 4.38224 25.4106 4.24855 25.3072 4.13643L25.0345 3.84342L25.4339 3.83211C26.1737 3.81175 26.7779 3.82193 27.3639 3.83211C27.9499 3.84229 28.546 3.85247 29.2769 3.83211H29.33L29.3753 3.86039C29.6702 4.02021 29.9893 4.13065 30.3199 4.18733C30.4127 4.20883 30.5043 4.22919 30.5937 4.25182C30.7425 4.20555 30.8734 4.11462 30.9687 3.99136C31.064 3.86811 31.1191 3.71851 31.1265 3.56287C31.1481 3.24197 31.126 2.91963 31.0609 2.60467C31.0451 2.53566 31.0145 2.4067 30.5903 2.47231C30.4351 2.50278 30.2875 2.56352 30.1559 2.65105L30.0914 2.68725C29.8651 2.81735 29.6038 2.9746 29.3775 3.11601L29.3459 3.13864H29.2972C27.6837 3.20464 26.0677 3.17556 24.4576 3.05153H24.4101L24.3682 3.02211C22.8055 1.9974 21.053 1.29669 19.2145 0.961491C17.376 0.62629 15.489 0.663409 13.6652 1.07065L13.552 1.09102L13.4853 1.00051C12.6402 -0.153396 10.8449 0.743711 9.53372 1.39872C9.1866 1.5844 8.82758 1.7469 8.459 1.88517L8.4228 1.89649H8.38547C6.87244 1.74715 5.34532 1.83725 3.86034 2.16347C2.59218 2.46213 2.5028 2.61598 2.11025 3.94411C0.972813 8.02239 0.589435 12.2741 0.978967 16.49C0.981392 16.844 1.08247 17.1903 1.27084 17.4901C1.40401 17.6887 1.57637 17.8579 1.77733 17.9875C1.97829 18.1171 2.20361 18.2042 2.43945 18.2435C2.52781 18.2493 2.61628 18.2339 2.69752 18.1987C2.77877 18.1635 2.85046 18.1094 2.90667 18.041C2.99177 17.9683 3.05577 17.8742 3.09199 17.7683C3.12821 17.6624 3.13532 17.5487 3.11256 17.4392C3.11256 17.3837 3.10578 17.326 3.10465 17.2536C3.08735 16.8305 3.04959 16.4084 2.99152 15.9889C2.92531 15.5231 2.89242 15.0532 2.8931 14.5827C2.87655 13.9301 2.97261 13.2795 3.17705 12.6595C3.41227 11.9337 3.91343 11.3239 4.57984 10.9524C4.81598 10.7865 5.09297 10.6883 5.38087 10.6683C5.66877 10.6484 5.95665 10.7075 6.21341 10.8393C7.59697 11.6685 7.57095 15.24 7.55963 16.7649V16.9539C7.69075 17.1507 7.86428 17.3156 8.06748 17.4366C8.27068 17.5576 8.49839 17.6315 8.7339 17.653C8.76416 17.6496 8.79478 17.6524 8.82394 17.6611C8.8531 17.6699 8.88019 17.6844 8.9036 17.7039C8.94453 17.7498 8.97567 17.8036 8.99512 17.8619C9.01458 17.9203 9.02192 17.982 9.01673 18.0433C9.0148 18.0719 9.01517 18.1007 9.01786 18.1293Z" fill="#373435"/>
<path d="M19.2459 14.5371C19.6089 14.502 19.9675 14.4304 20.3161 14.3232C20.4912 15.35 20.5432 16.394 20.4711 17.4331C20.2069 17.4498 19.9438 17.3873 19.7153 17.2537C19.4868 17.1201 19.3033 16.9215 19.1882 16.6831C19.1298 15.9678 19.1491 15.2482 19.2459 14.5371Z" fill="#6978AB"/>
<path d="M20.4333 17.6146C20.1422 17.6245 19.8545 17.5497 19.6051 17.3993C19.3557 17.2489 19.1553 17.0294 19.0282 16.7673L19.0113 16.7356V16.6994C18.9522 15.9709 18.9719 15.2381 19.0701 14.5138L19.0882 14.3735L19.2285 14.3576C19.5795 14.3235 19.9262 14.2545 20.2636 14.1518L20.4491 14.0918L20.4944 14.2819C20.6646 15.2082 20.7204 16.152 20.6607 17.092L20.6516 17.6112H20.4774L20.4333 17.6146ZM19.3654 16.6304C19.4538 16.8046 19.5858 16.953 19.7485 17.061C19.9113 17.1691 20.0993 17.2331 20.2941 17.2469V17.084C20.3428 16.2385 20.3049 15.3901 20.181 14.5522C19.9272 14.619 19.669 14.6681 19.4084 14.6993C19.3294 15.3414 19.3146 15.9898 19.3642 16.6349L19.3654 16.6304Z" fill="#373435"/>
<path d="M2.81977 17.6338C2.56523 15.9663 2.30617 13.0238 3.49854 11.6211C3.5929 11.4939 3.69491 11.3727 3.80399 11.2579C5.68531 9.48632 7.32454 11.0102 7.76913 12.9718C7.86337 14.212 7.88264 15.4568 7.82683 16.6994C7.93797 16.9155 8.10949 17.0947 8.32057 17.2152C8.53164 17.3357 8.77317 17.3923 9.01581 17.3781C9.18889 17.7356 9.14251 18.0015 9.33935 18.2379C9.71298 18.6573 10.203 18.9559 10.747 19.0957C11.291 19.2356 11.8643 19.2103 12.3938 19.023C12.7481 18.8728 13.0931 18.7013 13.4267 18.5094C13.6968 16.992 13.6583 15.4356 13.3135 13.9334C13.3135 13.7252 13.2445 13.5872 13.2445 13.3791C13.374 13.3976 13.4958 13.4517 13.5964 13.5352C13.3701 14.3655 16.4879 14.9368 20.125 13.9334C20.1657 13.7886 20.0956 13.6098 20.1827 13.5578C20.2389 13.5226 20.3023 13.5002 20.3681 13.4922C20.434 13.4841 20.5009 13.4907 20.5639 13.5114C20.5809 13.7773 20.5866 14.0363 20.6047 14.3033C20.8867 14.3299 21.1705 14.3337 21.4531 14.3146C21.2676 14.4815 21.0237 14.5685 20.7744 14.5567C20.8377 14.5567 20.7393 14.6778 20.797 14.6891C20.9644 14.7298 21.2823 14.6665 21.4147 14.7242C21.1669 14.869 20.8897 14.7875 20.7223 14.9504C20.763 15.8328 20.7857 16.7797 20.8207 17.6655C21.3663 18.0796 22.0396 18.2896 22.7238 18.259C23.4081 18.2284 24.06 17.9592 24.5664 17.4981C24.6745 15.7256 24.6367 13.9473 24.4533 12.181C24.3209 12.1641 24.1874 12.1403 24.0551 12.1233C26.1219 9.34265 26.5201 6.49748 24.7881 3.92947C24.7712 3.81634 24.6954 3.70321 24.675 3.59008C26.1819 3.53239 27.7295 3.6885 29.2409 3.63081C29.6489 3.7853 30.0699 3.90304 30.4989 3.98264C30.9434 3.82652 31.0238 2.59229 30.586 2.73031C30.1482 2.86832 29.9072 3.14549 29.4377 3.31857C27.7057 3.31857 25.7837 3.24957 24.0528 3.24957C22.6398 2.1253 20.9662 1.3752 19.1867 1.06853C17.4072 0.761864 15.5791 0.908516 13.8713 1.49495C14.3973 2.6276 14.6941 3.85312 14.7446 5.10094C14.795 6.34876 14.5982 7.59425 14.1654 8.7657C14.067 9.08924 12.5726 10.035 13.7955 9.00213C15.0308 7.9523 14.257 0.658928 12.7389 0.646484C10.9524 0.665026 9.23737 1.35102 7.93091 2.56966C7.69447 2.31626 7.71144 2.4192 7.81778 2.06172C6.52568 1.95045 5.22407 2.0653 3.97142 2.4011C3.64676 2.41146 3.33277 2.51944 3.07042 2.71096C2.80807 2.90248 2.60954 3.16863 2.50075 3.47469C1.35909 7.55466 0.900387 11.7954 1.14321 16.0251C1.20265 16.5323 1.33685 17.0279 1.54142 17.4958C2.22019 18.2402 2.58673 18.0264 2.81185 17.6338H2.81977Z" fill="url(#paint0_linear_2525_652)"/>
<path d="M5.52753 3.76324C5.1469 3.60802 4.73361 3.55009 4.32498 3.59467C4.28749 3.59058 4.24975 3.59963 4.21818 3.62026C4.18662 3.64089 4.16319 3.67183 4.15189 3.7078C4.13669 3.73387 4.12686 3.76271 4.12298 3.79263C4.11909 3.82255 4.12123 3.85294 4.12926 3.88202C4.16433 3.98044 4.16999 3.97478 4.25597 3.99515C4.36984 4.01213 4.4861 4.00205 4.59535 3.96573C4.7245 3.89769 4.867 3.85879 5.0128 3.85175C5.15861 3.84472 5.30419 3.86972 5.43929 3.92501C5.56599 3.91935 5.57844 3.86731 5.53771 3.76776L5.52753 3.76324Z" fill="#373435"/>
<path d="M4.35109 4.18076C4.30624 4.18093 4.2615 4.17638 4.2176 4.16719H4.20289C4.14301 4.1611 4.08671 4.13575 4.04245 4.09496C3.99819 4.05416 3.96835 4.00012 3.9574 3.94093C3.94147 3.88775 3.93637 3.83192 3.94239 3.77674C3.94842 3.72155 3.96545 3.66814 3.99247 3.61965C4.01871 3.55711 4.06344 3.5041 4.12066 3.4677C4.17789 3.4313 4.24487 3.41327 4.31263 3.41602C4.73495 3.37135 5.16181 3.42918 5.55704 3.58458H5.6498L5.69618 3.69771C5.72217 3.74038 5.73572 3.78946 5.7353 3.83942C5.73488 3.88938 5.72051 3.93823 5.69381 3.98046C5.66711 4.02269 5.62914 4.05661 5.58418 4.07841C5.53923 4.10021 5.48908 4.10902 5.43938 4.10383H5.41223L5.38169 4.09479C5.27028 4.04655 5.14951 4.02375 5.02818 4.02805C4.90685 4.03236 4.78801 4.06366 4.68029 4.11967L4.65993 4.13212L4.6373 4.13777C4.54416 4.16443 4.44795 4.17889 4.35109 4.18076ZM4.30131 3.81536C4.37749 3.82321 4.45446 3.81551 4.52757 3.79273L4.58866 3.76219C4.50947 3.76219 4.42915 3.76219 4.3477 3.77463H4.31828L4.31149 3.78821C4.30657 3.79661 4.30312 3.80579 4.30131 3.81536ZM4.59545 5.19439C4.64715 5.08684 4.72874 4.99647 4.83045 4.93407C4.93217 4.87168 5.04971 4.83991 5.16901 4.84256C5.19163 4.69776 5.16901 4.61631 4.98348 4.61631C4.71999 4.74988 4.49493 4.94845 4.3296 5.19326C4.23467 5.40609 4.20438 5.64213 4.24249 5.87203C4.26318 6.02916 4.34435 6.17202 4.46874 6.27024C4.59754 6.35086 4.74771 6.39066 4.89953 6.3844C5.05136 6.37814 5.19774 6.32612 5.31947 6.23517C5.72447 5.99873 6.12947 5.32336 5.41789 5.06882C5.27529 5.04099 5.12857 5.04197 4.98635 5.0717C4.84414 5.10142 4.70931 5.15929 4.58979 5.2419C4.57848 5.24756 4.57282 5.22494 4.58979 5.19552L4.59545 5.19439Z" fill="#373435"/>
<path d="M4.81529 6.57333C4.64718 6.57665 4.48344 6.51966 4.35372 6.41269C4.19366 6.28406 4.08983 6.09828 4.06412 5.89456C4.01803 5.62526 4.0576 5.34829 4.17724 5.10266C4.35828 4.83097 4.60549 4.60984 4.89561 4.46009L4.9352 4.43634H4.97819C5.03368 4.43098 5.08968 4.43783 5.14224 4.45639C5.19481 4.47496 5.24268 4.50479 5.28251 4.54381C5.3167 4.59018 5.3403 4.6435 5.35164 4.69999C5.36298 4.75648 5.36178 4.81477 5.34812 4.87075C5.50174 4.89396 5.6448 4.96294 5.75862 5.06869C5.87244 5.17443 5.95174 5.31204 5.98616 5.46354C5.97963 5.65531 5.92319 5.84206 5.8224 6.00534C5.72161 6.16863 5.57997 6.30279 5.41147 6.39459C5.23179 6.50526 5.02622 6.56689 4.81529 6.57333ZM4.44988 5.36738C4.40802 5.5268 4.39879 5.69303 4.42273 5.8561C4.43859 5.96748 4.49748 6.0682 4.58677 6.13665C4.80511 6.31879 5.1592 6.12421 5.22821 6.08348C5.33705 6.02532 5.43015 5.94161 5.49951 5.83954C5.56887 5.73747 5.61242 5.62009 5.62642 5.49748C5.61624 5.38435 5.52573 5.3029 5.3583 5.24294C5.12296 5.20743 4.88294 5.26328 4.68745 5.39906L4.67275 5.40698L4.5517 5.46807L4.45215 5.36738H4.44988Z" fill="#373435"/>
<path d="M4.90998 5.97893C4.91234 6.02018 4.92033 6.0609 4.93374 6.09998C4.93954 6.11822 4.94752 6.13569 4.9575 6.15202C4.92448 6.17394 4.88661 6.18746 4.84718 6.1914C4.80774 6.19534 4.76794 6.18959 4.73124 6.17465C4.48123 6.06152 4.49933 5.71082 4.62716 5.52076C4.69414 5.42274 4.78316 5.34179 4.8871 5.28442C4.99103 5.22705 5.10698 5.19486 5.22561 5.19043C5.3591 5.25944 5.39983 5.32392 5.32969 5.34089C5.29006 5.3484 5.25188 5.36214 5.21656 5.38162C5.1897 5.39366 5.16572 5.41129 5.14621 5.43333C5.1267 5.45537 5.11212 5.48132 5.10343 5.50945C5.16113 5.52642 5.19054 5.50945 5.24258 5.53208V5.71195C5.18699 5.68402 5.12349 5.67604 5.06271 5.68933C4.94958 5.72439 4.90546 5.88617 4.90546 5.98459L4.90998 5.97893Z" fill="#FEFEFE"/>
<path d="M5.38867 10.593C5.70915 10.5243 6.01282 10.3927 6.28208 10.2059C6.55135 10.019 6.78085 9.78053 6.95731 9.50432C7.13376 9.22812 7.25366 8.91965 7.31005 8.59678C7.36644 8.27391 7.35821 7.94305 7.28583 7.62339C7.0833 7.61918 6.88486 7.56559 6.70775 7.46727C6.69643 7.39261 6.69078 7.31681 6.67833 7.24102C7.14668 7.46727 7.80962 7.53515 7.72364 6.81905C7.78699 6.80208 7.88541 6.79642 7.94989 6.77832C7.92727 7.28061 7.83677 7.32699 7.52793 7.5408C7.61674 8.08843 7.57042 8.64946 7.39297 9.1751C7.21552 9.70074 6.91233 10.1751 6.50977 10.5568C6.48581 10.7139 6.49977 10.8745 6.5505 11.0252C6.40241 10.8704 6.22068 10.7519 6.0194 10.6787C5.81811 10.6055 5.60268 10.5797 5.3898 10.6032L5.38867 10.593Z" fill="#373435"/>
<path d="M6.86922 11.6468L6.41671 11.1468C6.28534 11.0115 6.12447 10.9084 5.94667 10.8456C5.76887 10.7828 5.57895 10.762 5.39176 10.7848H5.2085V10.468L5.33633 10.4171C5.9188 10.2977 6.43178 9.9559 6.76636 9.46438C7.10094 8.97286 7.23077 8.37029 7.12828 7.7846C6.94485 7.77093 6.76728 7.71393 6.61015 7.61831L6.54002 7.57419L6.52757 7.49386L6.51173 7.37508L6.49816 7.26874L6.44612 6.92935L6.75496 7.07868C6.8587 7.14532 6.97598 7.18801 7.09828 7.20366C7.22058 7.21932 7.34483 7.20754 7.46201 7.16919C7.53441 7.11828 7.56156 7.00741 7.54233 6.83998L7.52536 6.68613L7.67469 6.6454C7.71902 6.63438 7.76398 6.62607 7.80931 6.62051C7.83976 6.61694 7.86997 6.61165 7.89982 6.60468L8.13965 6.53906L8.12833 6.78681C8.10458 7.30268 7.99145 7.43277 7.71994 7.62622C7.79063 8.17614 7.73294 8.73496 7.55138 9.25883C7.36982 9.78271 7.06934 10.2574 6.67351 10.6456C6.67374 10.742 6.68706 10.8379 6.7131 10.9307L6.86922 11.6468ZM6.07732 10.5065C6.15957 10.5328 6.23912 10.5669 6.31489 10.6083C6.3183 10.5698 6.32627 10.5318 6.33865 10.4952L6.35109 10.459L6.37711 10.4307C6.47365 10.3273 6.56302 10.2236 6.64522 10.1196C6.47142 10.2699 6.28086 10.3998 6.07732 10.5065Z" fill="#373435"/>
<path d="M23.302 18.2332C23.2737 17.8067 23.2216 17.4323 23.2092 17.0047C23.1809 16.025 22.4365 15.8111 22.3958 16.7908C22.3732 17.3044 22.3958 17.7886 22.3958 18.2728C22.6978 18.3141 23.0047 18.3007 23.302 18.2332Z" fill="#8093D0"/>
<path d="M22.8288 18.3547C22.7157 18.3547 22.6093 18.3479 22.5019 18.3411L22.3322 18.3321V17.7947C22.3322 17.4712 22.322 17.1363 22.3322 16.7913C22.3537 16.2788 22.5584 16.0967 22.7406 16.0967C22.9815 16.0967 23.2462 16.4168 23.2643 17.0017C23.2711 17.263 23.2938 17.5017 23.3164 17.754C23.3311 17.9079 23.3447 18.064 23.356 18.2269V18.2755L23.3096 18.2891C23.1532 18.3335 22.9914 18.3556 22.8288 18.3547ZM22.4566 18.219H22.5109C22.7536 18.2475 22.9992 18.2364 23.2383 18.1862C23.2281 18.0414 23.2146 17.9022 23.2021 17.7653C23.1784 17.5108 23.1569 17.271 23.1489 17.0051C23.1342 16.5175 22.9227 16.2132 22.7451 16.2132C22.6229 16.2132 22.4747 16.3648 22.4566 16.7924C22.4408 17.1318 22.4464 17.4712 22.4566 17.7891C22.4543 17.9339 22.4566 18.0753 22.4566 18.219Z" fill="#373435"/>
<path d="M22.4084 18.2835C22.3263 17.7914 22.2956 17.2921 22.3168 16.7936C22.3801 15.8886 21.5249 14.9349 21.4672 16.6149C21.4462 17.1059 21.4655 17.5977 21.5249 18.0855C21.8138 18.1743 22.1092 18.2405 22.4084 18.2835Z" fill="#8093D0"/>
<path d="M22.478 18.3553L22.3999 18.3428C22.0973 18.3004 21.7984 18.2342 21.5062 18.1449L21.47 18.1324V18.0951C21.4101 17.6035 21.3908 17.1078 21.4123 16.6131C21.4304 16.0712 21.5254 15.7499 21.7098 15.6572C21.7519 15.6362 21.7991 15.6275 21.8459 15.6321C21.8928 15.6367 21.9373 15.6544 21.9745 15.6832C22.1225 15.8259 22.2362 16.0003 22.307 16.1934C22.3777 16.3864 22.4037 16.593 22.3829 16.7975C22.3574 17.2344 22.3783 17.6728 22.4452 18.1053L22.478 18.3553ZM21.5797 18.0419C21.8286 18.1158 22.0822 18.1725 22.3388 18.2116L22.3275 18.1177C22.2576 17.6787 22.2337 17.2336 22.2562 16.7896C22.2754 16.6062 22.2536 16.4208 22.1924 16.2469C22.1311 16.073 22.032 15.9148 21.9021 15.7839C21.8827 15.7673 21.8591 15.7566 21.8338 15.753C21.8086 15.7494 21.7828 15.7531 21.7596 15.7635C21.6974 15.7952 21.5503 15.9434 21.5266 16.6165C21.5063 17.0923 21.5241 17.569 21.5797 18.0419Z" fill="#373435"/>
<path d="M21.5264 18.1619L21.4054 16.2388C21.3183 14.8032 20.7413 14.9706 20.6949 16.1528C20.6723 16.7116 20.7176 17.0171 20.6655 17.5771C20.937 17.7615 21.2199 18.1246 21.5264 18.154V18.1619Z" fill="#8093D0"/>
<path d="M21.521 18.2193C21.2789 18.1602 21.0602 18.0297 20.8931 17.8448C20.8107 17.7689 20.7238 17.6978 20.6329 17.6322L20.6035 17.6118V17.5767C20.6272 17.3059 20.6351 17.0339 20.6273 16.7622V16.1558C20.651 15.5529 20.8105 15.1614 21.0334 15.1592C21.2597 15.1592 21.4158 15.563 21.4565 16.2407L21.5775 18.1639H21.5165L21.521 18.2193ZM20.7291 17.553C20.8105 17.6118 20.892 17.6842 20.9723 17.7543C21.1107 17.8972 21.2771 18.0101 21.461 18.0858L21.3479 16.2486C21.3049 15.537 21.1431 15.2802 21.0447 15.2802C20.9429 15.2802 20.7811 15.5619 20.7585 16.1615C20.7483 16.3878 20.7517 16.5812 20.7585 16.7622C20.7629 17.0254 20.7531 17.2886 20.7291 17.5507V17.553Z" fill="#373435"/>
<path d="M11.6586 19.1552C11.6739 18.705 11.6509 18.2542 11.5896 17.8079C11.3475 16.7671 11.0421 16.6393 10.6846 17.4085V19.1371C11.0079 19.1814 11.3355 19.1852 11.6597 19.1484L11.6586 19.1552Z" fill="#8093D0"/>
<path d="M11.2927 19.2361C11.1049 19.2361 10.9172 19.2192 10.7328 19.2022L10.6196 19.192V17.382C10.7927 17.0098 10.959 16.8367 11.1264 16.8548C11.3323 16.8763 11.4952 17.1738 11.6389 17.7926L11.6502 17.8911C11.706 18.3102 11.726 18.7333 11.7102 19.1558H11.6514L11.6593 19.2079C11.538 19.2269 11.4155 19.2363 11.2927 19.2361ZM10.7429 19.0823C11.027 19.1187 11.3142 19.1236 11.5993 19.097C11.6106 18.6989 11.5901 18.3006 11.5382 17.9058L11.528 17.8141C11.3629 17.1048 11.2022 16.9838 11.1219 16.9758C11.0597 16.9758 10.9319 17.02 10.7429 17.4227V19.0823Z" fill="#373435"/>
<path d="M9.88814 18.8697C9.89379 18.2067 9.89945 17.7678 9.89945 17.1049C10.1415 16.1297 10.3893 16.2281 10.6314 17.399C10.637 18.028 10.6427 18.4375 10.6427 19.0654C10.3779 19.055 10.1183 18.9883 9.88135 18.8697H9.88814Z" fill="#8093D0"/>
<path d="M10.6988 19.1342L10.5969 19.1229C10.3355 19.1102 10.0798 19.042 9.8469 18.9226L9.64893 18.8095H9.82314V18.4701C9.82314 18.0063 9.83106 17.6228 9.83106 17.1002V17.0854C9.95324 16.5945 10.0732 16.375 10.2214 16.375C10.3345 16.375 10.494 16.4938 10.6739 17.3818V17.7733C10.6739 18.2088 10.6818 18.5652 10.6818 19.0618L10.6988 19.1342ZM9.94419 18.8378C10.1435 18.9316 10.3589 18.9861 10.5788 18.9984C10.5788 18.5391 10.5788 18.1941 10.5709 17.7789V17.3999C10.3933 16.5481 10.2576 16.5017 10.2315 16.5017C10.2055 16.5017 10.1082 16.5153 9.9589 17.1126C9.9589 17.6319 9.9589 18.0176 9.95098 18.4769L9.94419 18.8378Z" fill="#373435"/>
<path d="M8.98256 17.5655C9.01763 17.0111 9.13302 16.4512 9.16696 15.8968C8.9407 14.7995 8.69408 14.6038 8.43502 15.3199C8.42371 16.0303 8.41805 16.7464 8.40674 17.4569C8.57789 17.566 8.78399 17.6064 8.98369 17.57L8.98256 17.5655Z" fill="#8093D0"/>
<path d="M8.8393 17.6528C8.70115 17.6456 8.56647 17.6069 8.44561 17.5396L8.35059 17.4966V17.4571C8.35662 17.1018 8.36152 16.7459 8.36529 16.3891C8.36906 16.0324 8.37397 15.676 8.38 15.3201V15.3008C8.49313 14.9761 8.61304 14.8302 8.7488 14.8393C8.88455 14.8483 9.0418 14.9761 9.22846 15.8868V15.9027C9.21149 16.1821 9.17303 16.4683 9.1357 16.7409C9.09836 17.0136 9.06103 17.2953 9.04406 17.569V17.6211L8.99655 17.6313C8.94501 17.6438 8.89232 17.651 8.8393 17.6528ZM8.47276 17.4265L8.49539 17.4367C8.62633 17.5149 8.77949 17.5475 8.93093 17.5295C8.94903 17.2636 8.98524 16.9932 9.02144 16.7319C9.05764 16.4706 9.09497 16.1821 9.11307 15.9095C8.93546 15.0463 8.78613 14.9694 8.74427 14.966C8.72165 14.966 8.63114 14.9852 8.50105 15.3393C8.49501 15.6907 8.49011 16.0433 8.48634 16.397C8.48257 16.7508 8.47804 17.0909 8.47276 17.4175V17.4265Z" fill="#373435"/>
<path d="M19.7535 17.3909C19.7998 16.8015 19.7365 16.3105 19.7535 15.7335C19.7704 15.0344 20.4616 15.2369 20.4911 15.8784C20.5205 16.5198 20.5544 16.849 20.5895 17.4893C20.3093 17.5367 20.0215 17.5026 19.7602 17.3909H19.7535Z" fill="#8093D0"/>
<path d="M20.2537 17.5606C20.0768 17.5668 19.9012 17.5279 19.7435 17.4475H19.6937V17.383C19.714 17.0681 19.7162 16.7524 19.7005 16.4372C19.6937 16.211 19.6858 15.9768 19.6937 15.7291C19.7028 15.3648 19.8827 15.2336 20.0478 15.2324C20.2741 15.2324 20.5309 15.4756 20.5479 15.8727C20.5648 16.1997 20.5818 16.4384 20.5976 16.6884C20.6135 16.9384 20.6293 17.1669 20.6463 17.4803V17.5414L20.4709 17.5482C20.3989 17.5568 20.3263 17.561 20.2537 17.5606ZM19.8159 17.3524C20.0229 17.4381 20.2492 17.4662 20.4709 17.4339H20.5252C20.5115 17.1895 20.4965 16.9451 20.48 16.7008C20.4641 16.4553 20.4483 16.211 20.4302 15.8829C20.4121 15.5548 20.2232 15.3569 20.0501 15.3569C19.9087 15.3569 19.8238 15.5005 19.8148 15.737C19.8057 15.9734 19.8148 16.2132 19.8216 16.4384C19.8355 16.743 19.8336 17.0481 19.8159 17.3524Z" fill="#373435"/>
<path d="M19.7177 17.412C19.7007 16.9799 19.7064 16.4606 19.6894 16.0285C19.7302 15.4345 19.3206 14.5578 19.16 15.533C19.109 15.8941 19.0784 16.2578 19.0684 16.6224C19.2548 16.9089 19.4726 17.1737 19.7177 17.412Z" fill="#B9C5EA"/>
<path d="M19.7822 17.5343L19.6815 17.4619C19.4824 17.2864 19.3084 17.0842 19.1645 16.8612C19.1175 16.7947 19.0692 16.729 19.0197 16.6644L19.005 16.6463V16.6237C19.0129 16.5105 19.0186 16.3974 19.0231 16.3069C19.0316 16.0461 19.0565 15.7862 19.0978 15.5286C19.1181 15.4019 19.1815 15.0172 19.384 15.0421C19.6102 15.0693 19.772 15.6734 19.7471 16.0376C19.7562 16.2481 19.7584 16.4902 19.7618 16.7243C19.7652 16.9585 19.7675 17.1995 19.7765 17.4144L19.7822 17.5343ZM19.1283 16.6044C19.1679 16.6553 19.2131 16.7175 19.2629 16.7877C19.3801 16.9608 19.5106 17.1246 19.6532 17.2775C19.6532 17.0988 19.6453 16.9076 19.643 16.7221C19.643 16.489 19.6374 16.2469 19.6283 16.032C19.6566 15.6112 19.47 15.1688 19.3715 15.1575C19.35 15.1507 19.272 15.2186 19.2177 15.5433C19.1771 15.7964 19.1526 16.0518 19.1441 16.308L19.1283 16.6033V16.6044ZM14.5749 9.4615C14.869 8.05871 15.1575 6.65592 15.4516 5.24748C15.498 4.91827 15.584 4.62414 15.9302 4.59473H16.351C16.6044 4.59473 16.7492 4.74519 16.7718 5.04724L16.6859 5.67058C16.6972 5.92511 16.8533 6.06879 17.1644 6.09254C17.5852 6.10951 18.0129 6.13327 18.4337 6.15024C19.0683 6.19097 19.4948 6.46247 19.4518 7.25324L19.0536 9.34272C19.0464 9.50414 18.9917 9.65984 18.8963 9.79026C18.8009 9.92067 18.6691 10.02 18.5174 10.0758C18.3274 10.0645 18.1135 10.0871 17.9235 10.0758C17.5943 10.0928 17.4042 9.97171 17.5253 9.53843C17.6463 8.98976 17.7968 8.30307 17.9235 7.7544C17.9699 7.10165 17.7278 7.06771 17.471 7.02133C17.2515 6.99191 17.0388 7.02133 16.8194 6.99191C16.4958 7.0383 16.3748 7.3494 16.2831 7.6967C16.1451 8.27931 16.0003 8.86305 15.8623 9.45132C15.7989 9.76921 15.7299 9.97624 15.4935 10.0747H14.7898C14.5244 10.0166 14.4489 9.80881 14.5636 9.45132L14.5749 9.4615Z" fill="#373435"/>
<path d="M18.0434 10.1977H17.9201C17.8351 10.212 17.748 10.2054 17.6661 10.1784C17.5843 10.1514 17.5103 10.1048 17.4506 10.0427C17.4005 9.96375 17.3703 9.87381 17.3626 9.78061C17.355 9.68741 17.37 9.59373 17.4065 9.50763L17.4755 9.19313C17.5807 8.71573 17.7017 8.18289 17.8013 7.7383C17.8364 7.21225 17.695 7.18623 17.4619 7.14325C17.2515 7.11496 17.049 7.14324 16.8227 7.11609C16.5965 7.15682 16.4935 7.38195 16.4008 7.72925L16.213 8.5087L15.9799 9.48161C15.903 9.80742 15.8408 10.0631 15.5399 10.1887L15.5172 10.1977H14.7638C14.6998 10.1872 14.6388 10.1631 14.5849 10.127C14.5311 10.0909 14.4856 10.0436 14.4516 9.98842C14.412 9.89938 14.3916 9.80303 14.3916 9.7056C14.3916 9.60817 14.412 9.51182 14.4516 9.42278L14.4889 9.30965L14.9414 7.11609L15.3317 5.23704C15.3634 5.01078 15.4301 4.52998 15.9188 4.48926H16.3499C16.5354 4.48926 16.8533 4.56166 16.8906 5.0549V5.06734L16.8035 5.69181C16.8114 5.81965 16.8646 5.96558 17.17 5.98821L17.8047 6.01649L18.4348 6.04477C18.5959 6.02971 18.7582 6.05206 18.9092 6.11008C19.0602 6.1681 19.1957 6.26022 19.3052 6.37926C19.4147 6.4983 19.4952 6.64103 19.5405 6.79631C19.5858 6.9516 19.5945 7.11524 19.5661 7.27447V7.29031L19.1679 9.38092C19.1567 9.56308 19.0927 9.73802 18.9836 9.88431C18.8744 10.0306 18.725 10.1419 18.5536 10.2045L18.531 10.2124H18.2199C18.1622 10.1954 18.1022 10.1977 18.0434 10.1977ZM17.9212 9.95335H18.497C18.6225 9.90126 18.7303 9.81413 18.8075 9.70238C18.8848 9.59063 18.9282 9.459 18.9326 9.32323L19.3297 7.23714C19.3647 6.60136 19.0944 6.31175 18.4246 6.2699L17.7956 6.24161L17.1587 6.2122C16.661 6.17487 16.5727 5.86037 16.5648 5.67597V5.66127L16.6508 5.04019C16.6248 4.75058 16.4766 4.71325 16.351 4.71325H15.9302C15.722 4.73135 15.6247 4.87502 15.5704 5.26192L15.1779 7.1489C15.0165 7.92798 14.8543 8.7063 14.6914 9.48387L14.6462 9.70221L14.6326 9.68863C14.624 9.74689 14.6331 9.80638 14.6586 9.85945C14.6748 9.88373 14.6958 9.9044 14.7203 9.92017C14.7448 9.93594 14.7723 9.94646 14.8011 9.95109H15.4652C15.627 9.87416 15.6824 9.72483 15.7412 9.42391L15.9754 8.44535L16.1632 7.66364C16.2322 7.4057 16.3578 6.93056 16.8001 6.87174H16.8329C17.0388 6.89889 17.2538 6.87174 17.4845 6.90115H17.5004C17.8239 6.95998 18.0875 7.06519 18.0389 7.75979V7.77903C17.9359 8.22475 17.8126 8.76098 17.7119 9.24064L17.6407 9.56193C17.5954 9.7237 17.5954 9.83457 17.6407 9.88887C17.6859 9.94317 17.8183 9.95788 17.9156 9.95335H17.9212Z" fill="#FEFEFE"/>
<path d="M9.12333 11.0854C9.41181 9.58984 9.70595 8.09429 9.99555 6.60439C9.99179 6.5367 10.0023 6.46898 10.0265 6.40564C10.0507 6.34231 10.088 6.2848 10.136 6.23686C10.1839 6.18892 10.2414 6.15163 10.3047 6.12744C10.3681 6.10324 10.4358 6.09268 10.5035 6.09645H13.1597C13.4128 6.08898 13.6632 6.15065 13.8838 6.27483C14.1045 6.39901 14.2871 6.58101 14.4121 6.80124C14.5899 7.12322 14.6645 7.49206 14.6259 7.85785C14.569 8.48593 14.2908 9.07334 13.8408 9.51518C13.4723 9.82633 13.0209 10.0229 12.5421 10.0808C12.0896 10.0921 11.637 10.0978 11.1845 10.1102C10.9243 10.0876 10.6653 10.1566 10.6019 10.3648C10.5216 10.6476 10.4639 10.9304 10.3825 11.2076C10.3542 11.27 10.3128 11.3256 10.261 11.3705C10.2093 11.4154 10.1484 11.4486 10.0827 11.4678C9.82247 11.4734 9.55775 11.4734 9.29755 11.4791C9.01926 11.4836 9.07695 11.3184 9.12333 11.0854ZM10.9764 8.52192C11.051 8.12936 11.1438 7.68477 11.2128 7.33859C11.2497 7.23489 11.319 7.14586 11.4105 7.08471C11.502 7.02357 11.6108 6.99358 11.7208 6.99921C11.9946 6.97978 12.2696 7.01516 12.5296 7.10329C12.6435 7.14925 12.7462 7.21888 12.8311 7.30755C12.916 7.39623 12.9811 7.50194 13.0221 7.61767C13.0631 7.7334 13.079 7.85652 13.0688 7.97887C13.0586 8.10121 13.0225 8.21999 12.9629 8.32734C12.8623 8.51629 12.7254 8.68352 12.56 8.81941C12.3946 8.95531 12.2039 9.0572 11.9991 9.11923C11.8109 9.16838 11.6162 9.18785 11.4221 9.17693C10.9255 9.12489 10.8847 8.99253 10.9696 8.51852L10.9764 8.52192Z" fill="#373435"/>
<path d="M9.28353 11.5978C9.23536 11.6026 9.18671 11.5965 9.14125 11.5799C9.09579 11.5632 9.0547 11.5365 9.02107 11.5016C8.93509 11.3987 8.96451 11.2595 8.99505 11.1125L9.00523 11.0616C9.16437 10.238 9.32463 9.41441 9.48603 8.59083L9.87406 6.59751C9.8692 6.5195 9.88056 6.44132 9.90743 6.36791C9.9343 6.2945 9.97609 6.22746 10.0302 6.17102C10.0916 6.10653 10.1661 6.05576 10.2485 6.02203C10.331 5.9883 10.4197 5.97238 10.5087 5.97531H13.1593C13.4345 5.9669 13.7066 6.03433 13.9461 6.1702C14.1855 6.30607 14.383 6.50517 14.5168 6.74571C14.7045 7.08732 14.7834 7.47803 14.7431 7.86568C14.6841 8.52221 14.3939 9.13644 13.924 9.59881L13.9105 9.61125C13.525 9.93565 13.0532 10.1405 12.5529 10.2006C12.3199 10.2074 12.0925 10.2108 11.8662 10.2154L11.1875 10.2301H11.1739C10.9918 10.2142 10.7621 10.2482 10.7214 10.3998C10.6807 10.5513 10.6479 10.6758 10.6083 10.8149C10.5687 10.9541 10.5381 11.0978 10.4951 11.2414C10.4632 11.3221 10.4135 11.3946 10.3496 11.4534C10.2857 11.5121 10.2094 11.5557 10.1263 11.5808L10.1048 11.5899H10.0822L9.69192 11.5955L9.2971 11.6012L9.28353 11.5978ZM9.20773 11.3489C9.23574 11.3564 9.26481 11.3591 9.29371 11.3568L9.69192 11.3512H10.0562C10.1784 11.2969 10.2485 11.238 10.2677 11.1769C10.3073 11.0378 10.3413 10.8998 10.3809 10.7606C10.4205 10.6215 10.451 10.4778 10.494 10.3353C10.5675 10.0932 10.8334 9.96308 11.1965 9.99589L11.8685 9.98118L12.5473 9.96647C12.9977 9.90917 13.422 9.72296 13.7691 9.43025C14.1954 9.0096 14.4594 8.45187 14.5146 7.8555C14.5514 7.51121 14.4811 7.16395 14.3132 6.8611C14.1959 6.66144 14.0271 6.49692 13.8246 6.38469C13.622 6.27247 13.3931 6.21665 13.1616 6.22306H10.503C10.4477 6.22083 10.3925 6.23047 10.3412 6.25135C10.2899 6.27223 10.2436 6.30386 10.2055 6.34411C10.1728 6.37759 10.1477 6.41781 10.1321 6.46196C10.1165 6.50612 10.1106 6.55315 10.115 6.59978V6.63372L9.7236 8.644L9.2428 11.1147L9.23149 11.1679C9.21426 11.2289 9.20663 11.2923 9.20886 11.3557L9.20773 11.3489ZM11.5291 9.29902H11.4092C11.3137 9.30134 11.2187 9.28463 11.1298 9.24987C11.0408 9.2151 10.9597 9.16297 10.8911 9.09652C10.7904 8.96189 10.7994 8.78315 10.8515 8.4992L10.8922 8.27294L10.9001 8.28086C10.9397 8.07836 10.9827 7.87021 11.0223 7.67449L11.1049 7.28646C11.1518 7.16077 11.2378 7.05341 11.3501 6.98012C11.4625 6.90682 11.5954 6.87146 11.7294 6.8792C12.015 6.86007 12.3016 6.89854 12.5722 6.99233C12.6916 7.03518 12.8008 7.10249 12.8928 7.18995C12.9847 7.27742 13.0574 7.38311 13.1061 7.50028C13.1599 7.64134 13.1847 7.79182 13.1788 7.94268C13.173 8.09354 13.1367 8.24167 13.0722 8.37815L13.0643 8.39286C12.9563 8.59419 12.8097 8.77226 12.6329 8.91688C12.456 9.0615 12.2524 9.16982 12.0337 9.23566C11.8679 9.27514 11.6984 9.29639 11.528 9.29902H11.5291ZM11.0619 8.7198C11.0442 8.79575 11.0526 8.87544 11.0857 8.94606C11.1253 8.99809 11.2361 9.03203 11.4341 9.05353C11.6154 9.06251 11.7969 9.04382 11.9726 8.9981C12.1606 8.94052 12.3354 8.84644 12.487 8.72123C12.6386 8.59603 12.764 8.44215 12.8561 8.26842C12.9057 8.16285 12.9338 8.04844 12.9387 7.93188C12.9435 7.81533 12.9251 7.69898 12.8844 7.58965C12.8477 7.50315 12.7935 7.42521 12.7252 7.36075C12.6568 7.2963 12.5758 7.24673 12.4873 7.21519C12.2421 7.13253 11.9829 7.09983 11.7248 7.11904C11.6393 7.11199 11.5538 7.13378 11.482 7.18093C11.4103 7.22808 11.3564 7.29789 11.3289 7.37923L11.2599 7.71861C11.2056 7.9856 11.1467 8.27634 11.0958 8.54332L11.0619 8.7198Z" fill="#FEFEFE"/>
<path d="M19.2151 11.0854C19.5036 9.58984 19.7977 8.09429 20.0874 6.60439C20.0836 6.5367 20.0941 6.46898 20.1183 6.40564C20.1425 6.34231 20.1798 6.2848 20.2278 6.23686C20.2757 6.18892 20.3332 6.15163 20.3966 6.12744C20.4599 6.10324 20.5276 6.09268 20.5953 6.09645H23.2516C23.5046 6.08898 23.755 6.15065 23.9756 6.27483C24.1963 6.39901 24.3789 6.58101 24.5039 6.80124C24.6817 7.12322 24.7563 7.49206 24.7177 7.85785C24.6608 8.48593 24.3826 9.07334 23.9326 9.51518C23.5641 9.82633 23.1127 10.0229 22.6339 10.0808C22.1814 10.0921 21.7288 10.0978 21.2763 10.1102C21.0161 10.0876 20.7571 10.1566 20.6937 10.3648C20.6134 10.6476 20.5557 10.9304 20.4743 11.2076C20.446 11.27 20.4046 11.3256 20.3528 11.3705C20.3011 11.4154 20.2402 11.4486 20.1745 11.4678C19.9143 11.4734 19.6495 11.4734 19.3894 11.4791C19.1111 11.4836 19.1642 11.3184 19.2151 11.0854ZM21.0682 8.52192C21.1428 8.12936 21.2356 7.68477 21.3046 7.33859C21.3415 7.23489 21.4108 7.14586 21.5023 7.08471C21.5938 7.02357 21.7026 6.99358 21.8126 6.99921C22.0864 6.97978 22.3614 7.01516 22.6214 7.10329C22.7353 7.14925 22.838 7.21888 22.9229 7.30755C23.0078 7.39623 23.0729 7.50194 23.1139 7.61767C23.1549 7.7334 23.1708 7.85652 23.1606 7.97887C23.1504 8.10121 23.1143 8.21999 23.0547 8.32734C22.9541 8.51629 22.8172 8.68352 22.6518 8.81941C22.4864 8.95531 22.2957 9.0572 22.0909 9.11923C21.9027 9.16838 21.708 9.18785 21.5139 9.17693C21.0173 9.12489 20.9765 8.99253 21.0614 8.51852L21.0682 8.52192Z" fill="#373435"/>
<path d="M19.3758 11.5978C19.3276 11.6026 19.279 11.5964 19.2336 11.5797C19.1881 11.5631 19.147 11.5364 19.1134 11.5016C19.0274 11.3987 19.0568 11.2595 19.0873 11.1125L19.0975 11.0616C19.2559 10.2402 19.4154 9.41969 19.5761 8.59988L19.9663 6.59751C19.9615 6.5195 19.9728 6.44132 19.9997 6.36791C20.0266 6.2945 20.0684 6.22746 20.1225 6.17102C20.1839 6.10653 20.2583 6.05576 20.3408 6.02203C20.4233 5.9883 20.5119 5.97238 20.601 5.97531H23.2516C23.5268 5.9669 23.7989 6.03433 24.0384 6.1702C24.2778 6.30607 24.4752 6.50517 24.6091 6.74571C24.7967 7.08734 24.8756 7.47804 24.8354 7.86568C24.7763 8.52218 24.4861 9.13638 24.0163 9.59881L24.0028 9.61125C23.6173 9.93565 23.1455 10.1405 22.6452 10.2006C22.4122 10.2074 22.1848 10.2108 21.9585 10.2154L21.2798 10.2301H21.2662C21.0829 10.2142 20.8544 10.2482 20.8137 10.3998C20.7729 10.5513 20.7401 10.6758 20.7005 10.8138C20.6609 10.9518 20.6304 11.0978 20.5874 11.2403C20.5555 11.321 20.5057 11.3934 20.4419 11.4522C20.378 11.511 20.3017 11.5546 20.2186 11.5797L20.1971 11.5887H20.1745L19.7842 11.5944L19.3894 11.6L19.3758 11.5978ZM19.3 11.3489C19.3281 11.3561 19.3571 11.3588 19.386 11.3568L19.7842 11.3512H20.1485C20.2707 11.2969 20.3408 11.238 20.36 11.1769C20.3996 11.0378 20.4347 10.8986 20.4732 10.7606C20.5116 10.6226 20.5433 10.4789 20.5863 10.3364C20.6598 10.0943 20.9257 9.96421 21.2888 9.99702L21.9608 9.98231L22.6396 9.9676C23.09 9.9103 23.5143 9.72409 23.8613 9.43138C24.2877 9.01073 24.5517 8.45301 24.6069 7.85663C24.6438 7.51234 24.5734 7.16505 24.4055 6.86223C24.2882 6.66257 24.1194 6.49805 23.9169 6.38583C23.7143 6.2736 23.4853 6.21778 23.2538 6.22419H20.5953C20.54 6.22181 20.4847 6.23139 20.4334 6.25227C20.382 6.27316 20.3358 6.30487 20.2978 6.34524C20.2651 6.37872 20.24 6.41894 20.2244 6.46309C20.2087 6.50725 20.2029 6.55428 20.2073 6.60091V6.63485L19.8148 8.65419L19.3362 11.1159L19.3249 11.169C19.3077 11.2301 19.3 11.2934 19.3023 11.3568L19.3 11.3489ZM21.6214 9.29902H21.5015C21.406 9.30134 21.311 9.28463 21.2221 9.24987C21.1331 9.2151 21.052 9.16297 20.9834 9.09652C20.8827 8.96189 20.8917 8.78315 20.9438 8.4992L20.9845 8.27294L20.9924 8.28086C21.032 8.07723 21.075 7.86794 21.1146 7.6711L21.1972 7.28533C21.2436 7.15933 21.3295 7.05165 21.442 6.97829C21.5545 6.90492 21.6876 6.86978 21.8216 6.87807C22.1073 6.85928 22.3939 6.89774 22.6645 6.9912C22.7839 7.03405 22.8931 7.10136 22.985 7.18882C23.077 7.27629 23.1497 7.38198 23.1984 7.49915C23.2522 7.64021 23.2769 7.79069 23.2711 7.94155C23.2653 8.09241 23.229 8.24054 23.1645 8.37702L23.1566 8.39173C23.0486 8.59306 22.902 8.77113 22.7252 8.91575C22.5483 9.06036 22.3447 9.16869 22.126 9.23453C21.9606 9.27431 21.7914 9.29593 21.6214 9.29902ZM21.1531 8.72093C21.1353 8.79688 21.1437 8.87657 21.1768 8.94719C21.2164 8.99923 21.3273 9.03316 21.5252 9.05466C21.7065 9.06363 21.8881 9.04493 22.0637 8.99923C22.2517 8.94165 22.4266 8.84757 22.5782 8.72236C22.7298 8.59716 22.8552 8.44328 22.9473 8.26955C22.9969 8.16398 23.025 8.04957 23.0298 7.93301C23.0347 7.81646 23.0162 7.70011 22.9756 7.59078C22.9389 7.50428 22.8847 7.42634 22.8163 7.36188C22.748 7.29743 22.667 7.24786 22.5785 7.21633C22.3333 7.13357 22.074 7.10087 21.816 7.12017C21.7305 7.11332 21.6451 7.13519 21.5734 7.18232C21.5017 7.22944 21.4477 7.29913 21.42 7.38036L21.351 7.71975C21.2967 7.98786 21.2379 8.27973 21.187 8.54671L21.1531 8.72093Z" fill="#FEFEFE"/>
<path d="M2.11027 17.886C1.975 17.7561 1.86053 17.6061 1.77089 17.4414C1.63127 17.1872 1.56361 16.8997 1.57518 16.6099C1.28104 11.5949 1.54011 7.20895 3.13861 3.62504C3.33432 3.18611 3.36486 3.05375 3.77326 2.85125C5.0209 2.39379 6.35925 2.23871 7.67844 2.39873C7.71917 2.28561 7.79949 2.17248 7.76442 2.05935C6.57059 1.96378 5.36916 2.05925 4.20541 2.34217C3.41351 2.46887 2.64198 2.60802 2.45192 3.86601C0.85455 8.09587 0.969941 12.1017 1.13624 16.0375C1.13504 16.3214 1.17778 16.6038 1.26294 16.8746C1.57405 17.8668 1.87497 17.8328 2.1114 17.8849L2.11027 17.886ZM8.24521 17.2581C8.24521 16.214 8.15924 15.1698 8.15924 14.1211C8.11695 13.5227 7.98697 12.9338 7.77347 12.3733C7.54208 11.9655 7.2772 11.5776 6.98157 11.2137C7.88042 12.9219 8.16022 14.8885 7.77347 16.7796C7.93411 16.9402 8.07779 17.102 8.24521 17.2581Z" fill="#EBEFFF"/>
<path d="M8.3313 17.4647L8.25097 17.4342C7.94913 17.3045 7.69024 17.0919 7.50433 16.821L7.42627 16.7226H7.4998C7.51677 16.3482 7.50999 16.0054 7.4998 15.6728C7.49302 15.3221 7.4851 14.9601 7.50546 14.5619V14.4951L7.57221 14.5053C7.75675 14.5232 7.93111 14.5982 8.07102 14.7199C8.21093 14.8415 8.30942 15.0038 8.35279 15.1841V15.2022L8.33808 16.2825L8.32338 17.3799L8.3313 17.4647ZM7.61746 16.7701C7.77294 16.9866 7.97666 17.164 8.21251 17.2883C8.21251 16.9308 8.22156 16.6095 8.22609 16.2803C8.22609 15.9409 8.23514 15.5936 8.24079 15.209C8.20566 15.0638 8.12857 14.9322 8.01912 14.8306C7.90967 14.729 7.77273 14.6619 7.62538 14.6377C7.60954 15.0042 7.61633 15.3424 7.62538 15.6705C7.62538 16.0178 7.63669 16.3764 7.61746 16.7701Z" fill="#373435"/>
<path d="M9.83307 18.7355C9.59713 18.6423 9.39837 18.4742 9.26742 18.2569C9.2267 16.3926 9.19163 14.5237 9.1543 12.6582L9.43825 12.941C9.50182 13.3341 9.53096 13.7319 9.52536 14.13L9.61247 14.3563C9.61086 15.8188 9.68449 17.2805 9.83307 18.7355Z" fill="#EBEFFF"/>
<path d="M9.92756 19.15L9.84837 19.124C9.51934 19.0082 9.24698 18.771 9.08702 18.461L9.0791 18.4452V18.4226C9.0791 17.8015 9.09041 17.1589 9.09041 16.5299V16.5141L9.09833 16.5005C9.26916 16.1894 9.41622 15.9892 9.57687 16.0209C9.70244 16.0458 9.84385 16.1917 9.93888 17.0786C9.93888 17.7381 9.92756 18.4101 9.92756 19.0674V19.15ZM9.20015 18.4147C9.33367 18.6658 9.54758 18.865 9.80765 18.9803C9.80765 18.3502 9.8133 17.7087 9.81896 17.0865C9.73072 16.2618 9.60402 16.1487 9.55424 16.1385C9.50446 16.1283 9.40717 16.1917 9.21486 16.5446C9.2092 17.1669 9.2092 17.8015 9.20015 18.4158V18.4147Z" fill="#373435"/>
<path d="M7.85127 12.4C7.85476 12.3041 7.84096 12.2083 7.81055 12.1172C7.85693 12.1285 7.90331 12.1342 7.94856 12.1466L8.6805 12.7417C8.78243 12.6985 8.86356 12.6173 8.90676 12.5154C8.95305 12.5147 8.99889 12.5245 9.04083 12.5441C9.08277 12.5637 9.11971 12.5926 9.14885 12.6285C9.16017 13.1025 9.12623 13.5698 9.13754 14.0426C9.21351 14.1074 9.2627 14.1981 9.27556 14.2972C9.57862 14.3093 9.88077 14.3384 10.1806 14.3843C10.1976 14.4589 10.2213 14.5053 10.2383 14.5811C9.89995 14.5432 9.55845 14.5432 9.22012 14.5811V14.7949C9.48546 14.7813 9.75146 14.8007 10.012 14.8526L10.0403 15.0087C9.75861 14.975 9.47367 14.9788 9.19297 15.0201C9.2337 16.1842 9.2337 17.3493 9.19297 18.5135C9.10021 18.294 8.9226 18.0802 8.82418 17.8607C8.99984 16.3676 9.02296 14.8605 8.89318 13.3627C8.62478 12.9658 8.26818 12.6363 7.85127 12.4Z" fill="#373435"/>
<path d="M9.03251 18.5851C8.98239 18.4773 8.92375 18.3737 8.85717 18.2752C8.78505 18.1668 8.72078 18.0534 8.66485 17.9358L8.64335 17.8894L8.65014 17.8385C8.82163 16.3739 8.84512 14.8958 8.72028 13.4265C8.46481 13.0716 8.13612 12.7757 7.75643 12.5588L7.65461 12.4932L7.67724 12.3733C7.67766 12.3298 7.67077 12.2866 7.65687 12.2454C7.64914 12.2159 7.64235 12.1861 7.63651 12.1561L7.58447 11.8789L7.85824 11.9468L7.91707 11.9592C7.94309 11.9592 7.97024 11.9694 7.99626 11.9762L8.03472 11.9864L8.69539 12.5226C8.71473 12.5047 8.72981 12.4826 8.73951 12.4581L8.78363 12.345H8.9092C8.98486 12.3444 9.0596 12.3616 9.12739 12.3952C9.19519 12.4288 9.25414 12.4779 9.2995 12.5384L9.33004 12.5826V12.6369C9.3357 12.8778 9.33004 13.1199 9.32438 13.353C9.32438 13.56 9.3142 13.7738 9.3176 13.9842C9.35667 14.0289 9.38941 14.0788 9.41489 14.1324C9.60268 14.1403 9.78821 14.1652 9.96922 14.1879L10.2023 14.2161L10.329 14.2308L10.3572 14.3553C10.3638 14.3828 10.3717 14.41 10.381 14.4367C10.3923 14.4718 10.4048 14.508 10.4149 14.5499L10.4704 14.7897L10.2249 14.7705H10.1808L10.2633 15.223L10.0246 15.1981C9.81094 15.1736 9.59533 15.1701 9.38095 15.1879C9.41618 16.3016 9.41618 17.4161 9.38095 18.5297L9.03251 18.5851ZM9.01668 17.834L9.03817 17.8747V17.627C9.03289 17.6963 9.02573 17.7653 9.01668 17.834ZM8.77345 12.9016C8.84502 12.978 8.91117 13.0592 8.97142 13.1448V12.7534C8.91473 12.8141 8.8477 12.8643 8.77345 12.9016Z" fill="#373435"/>
<path d="M8.55371 2.11404C9.07562 2.04549 9.57844 1.87275 10.0323 1.6061C10.9322 1.10221 11.9358 0.811915 12.9657 0.757634C12.5396 0.565194 12.0603 0.525249 11.6082 0.644506C10.498 0.913969 9.45712 1.41473 8.55371 2.11404ZM14.2022 1.48731C16.6795 0.774171 19.3223 0.893395 21.7252 1.8267C19.363 0.788588 16.7119 0.609691 14.2316 1.32101C14.2305 1.4364 14.2022 1.37871 14.2022 1.48731Z" fill="#EBEFFF"/>
<defs>
<linearGradient id="paint0_linear_2525_652" x1="7.78282" y1="-0.943595" x2="14.9956" y2="23.0759" gradientUnits="userSpaceOnUse">
<stop stop-color="#8A9FE0"/>
<stop offset="0.588" stop-color="#7182B8"/>
<stop offset="1" stop-color="#576490"/>
</linearGradient>
</defs>
</svg>
