<svg width="16" height="16" viewBox="0 0 16 16" fill="none" xmlns="http://www.w3.org/2000/svg">
<g clip-path="url(#clip0_4647_94)">
<path d="M10.7483 9.50916C10.8273 8.85141 10.8037 8.75491 11.2936 8.86141L11.418 8.87241C11.7947 8.88954 12.2876 8.81179 12.577 8.67729C13.2002 8.38816 13.5697 7.90516 12.9552 8.03204C11.5533 8.32116 11.457 7.84666 11.457 7.84666C12.9373 5.65029 13.5562 2.86229 13.0221 2.17979C11.5653 0.318288 9.0436 1.19854 9.00135 1.22141L8.98785 1.22404C8.71085 1.16641 8.40097 1.13216 8.05272 1.12654C7.41835 1.11616 6.93697 1.29291 6.57185 1.56979C6.57185 1.56979 2.07322 -0.283587 2.28247 3.90054C2.32697 4.79066 3.55835 10.6358 5.02697 8.87029C5.56372 8.22479 6.08247 7.67891 6.08247 7.67891C6.3401 7.85004 6.64847 7.93729 6.97197 7.90591L6.99697 7.88466C6.98922 7.96479 6.9926 8.04316 7.0071 8.13591C6.62872 8.55879 6.73997 8.63304 5.98347 8.78866C5.21822 8.94641 5.66785 9.22716 5.96122 9.30054C6.31722 9.38966 7.14035 9.51579 7.69672 8.73691L7.6746 8.82579C7.8231 8.94454 7.81297 9.67916 7.83397 10.204C7.85497 10.7289 7.89022 11.2187 7.99722 11.5077C8.10422 11.7964 8.23047 12.5403 9.2246 12.3273C10.0553 12.149 10.6905 11.8928 10.7483 9.50916Z" fill="black"/>
<path d="M8.90138 12.8462C8.46163 12.8462 8.17538 12.6762 8.00138 12.512C7.73888 12.2643 7.63475 11.9452 7.57263 11.7546L7.54575 11.675C7.4205 11.3368 7.37813 10.8501 7.353 10.2233C7.3493 10.1253 7.34617 10.0273 7.34363 9.92933C7.3415 9.8542 7.33888 9.75995 7.33513 9.66108C7.17668 9.73657 7.00854 9.78974 6.8355 9.81908C6.5255 9.87208 6.19225 9.85483 5.84475 9.76795C5.59963 9.7067 5.34488 9.5797 5.19975 9.38345C4.77663 9.75408 4.373 9.7037 4.15313 9.63045C3.76525 9.50108 3.41813 9.1377 3.09175 8.5192C2.85938 8.07883 2.6345 7.50483 2.42338 6.81345C2.05588 5.60933 1.82238 4.34108 1.80163 3.92483C1.73638 2.62145 2.08713 1.68945 2.84413 1.15483C4.0385 0.311202 5.84788 0.807202 6.5075 1.03245C6.95063 0.765327 7.472 0.635202 8.06125 0.644702C8.37775 0.649827 8.679 0.677702 8.95888 0.727452C9.25075 0.635702 9.8275 0.503952 10.4876 0.512077C11.7039 0.526577 12.7118 1.00058 13.4021 1.88283C13.8948 2.51233 13.6513 3.83408 13.4621 4.56608C13.1963 5.59545 12.7301 6.69058 12.1576 7.64383C12.3131 7.64495 12.5383 7.6262 12.8585 7.5602C13.4903 7.4297 13.6749 7.76845 13.725 7.92008C13.9259 8.52845 13.0528 8.98808 12.7804 9.11445C12.4314 9.27658 11.8625 9.3752 11.3965 9.35383L11.3761 9.35245L11.2538 9.3417L11.2416 9.4437L11.23 9.54358C11.1988 10.7516 11.0261 11.5166 10.671 12.0222C10.2989 12.5521 9.7815 12.7007 9.32588 12.7983C9.18649 12.8294 9.04418 12.8454 8.90138 12.8462ZM7.97613 8.44945C8.26 8.67658 8.28488 9.10395 8.307 9.9027C8.30975 10.0023 8.31238 10.0967 8.31588 10.1848C8.32663 10.4516 8.35175 11.0763 8.4495 11.3403C8.46338 11.3776 8.47575 11.4156 8.48875 11.4556C8.59775 11.7896 8.6525 11.957 9.12388 11.856C9.51975 11.7712 9.72313 11.6951 9.88238 11.4683C10.1139 11.1386 10.2434 10.4757 10.2671 9.49745L10.7486 9.5092L10.2704 9.45183L10.2844 9.33245C10.3303 8.93895 10.3633 8.65445 10.6264 8.46645C10.8374 8.31558 11.078 8.3302 11.2696 8.3647C11.0591 8.20583 11.0009 8.01908 10.9854 7.94258L10.9453 7.74483L11.058 7.57733C11.708 6.61283 12.2441 5.42745 12.5289 4.32508C12.8214 3.19233 12.7321 2.5907 12.643 2.47695C11.4623 0.968077 9.41438 1.59095 9.20063 1.66183L9.16438 1.68133L8.98313 1.7152L8.89025 1.69595C8.63438 1.64283 8.35013 1.61345 8.04525 1.60845C7.56638 1.60045 7.18013 1.71358 6.86338 1.95395L6.64363 2.12058L6.3885 2.01545C5.84375 1.7927 4.24325 1.34483 3.39875 1.94295C2.93 2.27495 2.7165 2.92558 2.764 3.8767C2.77963 4.1907 2.99313 5.37933 3.34488 6.53233C3.83125 8.12558 4.27325 8.6547 4.45775 8.71633C4.48988 8.7272 4.5735 8.6622 4.65663 8.56245C5.19738 7.91208 5.71163 7.36995 5.73325 7.34708L6.01213 7.0537L6.34925 7.2777C6.48513 7.36808 6.635 7.4192 6.789 7.42883L7.59313 6.74308L7.47663 7.93183C7.474 7.95858 7.47275 7.99483 7.48325 8.06233L7.51825 8.2877L7.36663 8.45745L7.34913 8.47708L7.79088 8.68108L7.97613 8.44945Z" fill="black"/>
<path d="M12.9557 8.0321C11.5537 8.32122 11.4573 7.8466 11.4573 7.8466C12.9376 5.65022 13.5563 2.8621 13.0223 2.17972C11.5655 0.318224 9.04372 1.1986 9.0016 1.22147L8.98797 1.22385C8.71097 1.16647 8.4011 1.13222 8.05272 1.1266C7.41835 1.11622 6.9371 1.29285 6.57197 1.56972C6.57197 1.56972 2.07322 -0.283526 2.28247 3.9006C2.32697 4.79072 3.55835 10.6358 5.02697 8.87035C5.56372 8.22485 6.08235 7.67897 6.08235 7.67897C6.33997 7.8501 6.64835 7.93735 6.97172 7.90597L6.99685 7.88472C6.9891 7.96485 6.9926 8.04322 7.00685 8.13597C6.6286 8.55885 6.7396 8.6331 5.98335 8.78872C5.21797 8.94647 5.6676 9.22722 5.96122 9.3006C6.3171 9.38972 7.14035 9.51585 7.6966 8.73697L7.67435 8.82585C7.8226 8.9446 7.92672 9.59822 7.90922 10.1907C7.89172 10.7832 7.8801 11.19 7.99697 11.5077C8.11385 11.8255 8.23022 12.5403 9.22447 12.3273C10.0552 12.1492 10.4857 11.6878 10.5457 10.9183C10.5882 10.3712 10.6843 10.4521 10.6905 9.96285L10.7677 9.73122C10.8566 8.98947 10.7818 8.75022 11.2937 8.8616L11.4181 8.87247C11.7948 8.88972 12.2878 8.81185 12.5772 8.67735C13.2005 8.3881 13.5701 7.90522 12.9557 8.0321Z" fill="#336791"/>
<path d="M8.95087 12.5493C8.12199 12.5495 7.85949 11.8931 7.75199 11.6247C7.59487 11.2315 7.56087 9.70497 7.59587 8.45309C7.5982 8.4113 7.61675 8.37206 7.64756 8.34372C7.67837 8.31539 7.71902 8.30019 7.76087 8.30136C7.80271 8.30254 7.84245 8.31999 7.87163 8.35C7.90081 8.38002 7.91713 8.42023 7.91712 8.46209C7.87674 9.90597 7.93412 11.2143 8.05037 11.5053C8.23199 11.9593 8.50737 12.3565 9.28624 12.1897C10.0256 12.0311 10.3025 11.7507 10.4257 11.036C10.5205 10.4873 10.7075 8.92672 10.7305 8.61872C10.7337 8.57623 10.7536 8.53674 10.7858 8.50894C10.8181 8.48114 10.8601 8.4673 10.9026 8.47047C10.9451 8.47363 10.9846 8.49354 11.0124 8.52582C11.0402 8.5581 11.054 8.60011 11.0509 8.64259C11.0269 8.96309 10.8406 10.5208 10.7422 11.0906C10.5966 11.935 10.2202 12.318 9.35349 12.5038C9.22124 12.533 9.0863 12.5483 8.95087 12.5493ZM4.45699 9.34372C4.38455 9.34373 4.31259 9.33187 4.24399 9.30859C3.70562 9.12897 3.19287 8.25222 2.71987 6.70247C2.35987 5.52272 2.13174 4.29147 2.11174 3.89134C2.05237 2.70509 2.35799 1.86572 3.01987 1.39672C4.32937 0.468841 6.53237 1.35247 6.62549 1.39047C6.66457 1.40682 6.69561 1.43795 6.71184 1.47708C6.72808 1.51621 6.7282 1.56017 6.71217 1.59939C6.69615 1.63861 6.66528 1.66991 6.62629 1.68647C6.5873 1.70304 6.54334 1.70353 6.50399 1.68784V1.68797C6.48274 1.67922 4.37024 0.832966 3.20499 1.65934C2.63899 2.06072 2.37912 2.80622 2.43249 3.87547C2.44937 4.21247 2.66249 5.41434 3.02712 6.60884C3.44937 7.99222 3.92999 8.86534 4.34562 9.00384C4.41074 9.02572 4.60924 9.09184 4.89324 8.75059C5.42724 8.10809 5.91787 7.59534 5.92274 7.59022C5.95261 7.56127 5.99255 7.54503 6.03414 7.54491C6.07574 7.54479 6.11577 7.5608 6.1458 7.58958C6.17584 7.61836 6.19356 7.65766 6.19522 7.69922C6.19689 7.74078 6.18238 7.78138 6.15474 7.81247C6.14987 7.81747 5.66674 8.32259 5.14024 8.95597C4.89087 9.25572 4.65174 9.34372 4.45699 9.34372ZM11.447 7.99009C11.4178 7.99013 11.3892 7.98223 11.3642 7.96722C11.3392 7.95221 11.3187 7.93067 11.305 7.90491C11.2913 7.87915 11.2849 7.85015 11.2865 7.82102C11.288 7.7919 11.2975 7.76374 11.3139 7.73959C12.8102 5.51909 13.3355 2.83622 12.8856 2.26147C12.3194 1.53797 11.5197 1.15997 10.5091 1.13834C9.76074 1.12209 9.16587 1.31322 9.06874 1.34659L9.04437 1.35647C8.94662 1.38722 8.87162 1.33359 8.84337 1.27097C8.82727 1.23508 8.82484 1.19456 8.83653 1.15701C8.84823 1.11946 8.87324 1.08748 8.90687 1.06709L8.95012 1.04934L8.94799 1.04997L8.95024 1.04922C9.11537 0.988841 9.71924 0.807591 10.4674 0.816216C11.5857 0.827966 12.5095 1.25934 13.1387 2.06334C13.4365 2.44384 13.4371 3.32047 13.1406 4.46834C12.8384 5.63859 12.2696 6.89647 11.5804 7.91922C11.5657 7.9411 11.5458 7.95902 11.5226 7.97138C11.4993 7.98375 11.4733 7.99017 11.447 7.99009ZM11.5234 9.01797C11.2679 9.01797 11.0389 8.98209 10.9017 8.89984C10.7607 8.81547 10.7339 8.70059 10.7304 8.63972C10.6919 7.96422 11.0646 7.84659 11.2547 7.79297C11.2282 7.75297 11.1905 7.70584 11.1516 7.65722C11.0407 7.51872 10.889 7.32897 10.772 7.04522C10.7537 7.00097 10.6962 6.89784 10.6297 6.77859C10.2694 6.13247 9.51962 4.78784 10.0012 4.09922C10.2242 3.78059 10.668 3.65522 11.322 3.72522C11.1296 3.13909 10.2134 1.30547 8.03962 1.26984C7.38574 1.25884 6.84949 1.45997 6.44662 1.86672C5.54449 2.77784 5.57724 4.42634 5.57762 4.44272C5.57817 4.4638 5.57456 4.48479 5.567 4.50448C5.55944 4.52417 5.54807 4.54218 5.53355 4.55748C5.51903 4.57278 5.50164 4.58506 5.48237 4.59364C5.4631 4.60222 5.44233 4.60692 5.42124 4.60747C5.40016 4.60802 5.37917 4.60441 5.35948 4.59685C5.33979 4.58929 5.32178 4.57792 5.30648 4.5634C5.29118 4.54888 5.27889 4.53149 5.27032 4.51222C5.26174 4.49295 5.25704 4.47218 5.25649 4.45109C5.25449 4.37797 5.22074 2.64809 6.21837 1.64059C6.68524 1.16909 7.29974 0.936341 8.04487 0.948466C9.43587 0.971341 10.331 1.67834 10.8371 2.26759C11.3886 2.90959 11.6591 3.61784 11.6814 3.85409C11.698 4.02984 11.5719 4.06509 11.5464 4.07022L11.4885 4.07159C10.8466 3.96884 10.4349 4.04009 10.2646 4.28347C9.89824 4.80697 10.6075 6.07884 10.9104 6.62209C10.9877 6.76059 11.0435 6.86072 11.069 6.92259C11.1685 7.16384 11.2982 7.32597 11.4025 7.45622C11.4941 7.57084 11.5736 7.67009 11.6021 7.78684C11.6152 7.80997 11.8025 8.08672 12.9131 7.85747C13.1915 7.80009 13.3584 7.84922 13.4094 8.00347C13.5097 8.30709 12.9466 8.66109 12.6349 8.80597C12.3551 8.93584 11.9092 9.01797 11.5234 9.01797ZM11.0507 8.61322C11.0859 8.64884 11.2621 8.71009 11.6272 8.69447C11.9517 8.68047 12.2941 8.60984 12.4996 8.51459C12.7624 8.39259 12.9376 8.25622 13.0285 8.16309L12.978 8.17234C12.2679 8.31897 11.7656 8.29947 11.4852 8.11422C11.4664 8.10175 11.4482 8.08827 11.4309 8.07384C11.4005 8.08584 11.3724 8.09372 11.3524 8.09934C11.1932 8.14397 11.0287 8.19009 11.0507 8.61322ZM6.46362 9.51059C6.28724 9.51059 6.10162 9.48672 5.91199 9.43909C5.71562 9.38997 5.38437 9.24209 5.38949 8.99922C5.39512 8.72659 5.79149 8.64484 5.94087 8.61409C6.47987 8.50309 6.51499 8.45859 6.68349 8.24472C6.73262 8.18234 6.79374 8.10472 6.87699 8.01159C7.00074 7.87322 7.13599 7.80297 7.27899 7.80297C7.37849 7.80297 7.46024 7.83684 7.51412 7.85909C7.68612 7.93034 7.82962 8.10259 7.88862 8.30884C7.94187 8.49484 7.91649 8.67384 7.81712 8.81284C7.49112 9.26947 7.02312 9.51059 6.46362 9.51059ZM5.73649 9.01309C5.78499 9.05047 5.88199 9.10047 5.98987 9.12759C6.15412 9.16859 6.31337 9.18947 6.46362 9.18947C6.92137 9.18947 7.28874 8.99984 7.55574 8.62622C7.61137 8.54822 7.59474 8.44934 7.57987 8.39722C7.54862 8.28822 7.47112 8.18909 7.39124 8.15584C7.34787 8.13784 7.31199 8.12409 7.27899 8.12409C7.26124 8.12409 7.20737 8.12409 7.11649 8.22572C7.03974 8.31147 6.98462 8.38147 6.93574 8.44334C6.72599 8.70972 6.62987 8.80009 6.00562 8.92872C5.85337 8.96022 5.77524 8.99197 5.73649 9.01309ZM6.97174 8.27209C6.9334 8.27203 6.89634 8.25827 6.86725 8.23328C6.83816 8.2083 6.81896 8.17374 6.81312 8.13584C6.809 8.10917 6.80633 8.0823 6.80512 8.05534C6.39587 8.04759 6.00112 7.87209 5.70149 7.55934C5.32262 7.16397 5.15012 6.61622 5.22837 6.05659C5.31337 5.44884 5.28162 4.91234 5.26449 4.62409C5.26024 4.5648 5.25761 4.5054 5.25662 4.44597C5.25687 4.39522 5.25787 4.26034 5.70849 4.03197C5.86874 3.95072 6.19012 3.80897 6.54112 3.77259C7.12287 3.71259 7.50624 3.97159 7.62099 4.50209C7.93074 5.93459 7.64549 6.56822 7.43724 7.03084C7.39837 7.11684 7.36174 7.19834 7.33249 7.27709L7.30662 7.34672C7.19662 7.64172 7.10149 7.89659 7.13074 8.08709C7.13717 8.1292 7.12663 8.17214 7.10144 8.2065C7.07625 8.24085 7.03846 8.26381 6.99637 8.27034L6.97174 8.27209ZM5.57887 4.49034L5.58524 4.60509C5.60299 4.90447 5.63599 5.46172 5.54649 6.10122C5.48199 6.56272 5.62299 7.01334 5.93337 7.33722C6.17862 7.59322 6.50162 7.73447 6.83349 7.73447H6.84037C6.87762 7.57784 6.93924 7.41259 7.00562 7.23447L7.03137 7.16534C7.06449 7.07634 7.10324 6.99022 7.14424 6.89909C7.34474 6.45359 7.59424 5.89909 7.30687 4.56997C7.24987 4.30684 7.11187 4.15447 6.88499 4.10422C6.41899 4.00122 5.72462 4.35172 5.57887 4.49034ZM6.54837 4.42222C6.54037 4.47897 6.65249 4.63059 6.79849 4.65084C6.94437 4.67122 7.06924 4.55272 7.07712 4.49597C7.08499 4.43922 6.97299 4.37659 6.82687 4.35622C6.68099 4.33584 6.55612 4.36534 6.54837 4.42222ZM6.83212 4.70684L6.79112 4.70397C6.70049 4.69134 6.60887 4.63422 6.54624 4.55109C6.52424 4.52197 6.48824 4.46522 6.49537 4.41472C6.50562 4.34059 6.59587 4.29634 6.73699 4.29634C6.76874 4.29634 6.80124 4.29863 6.83449 4.30322C6.91149 4.31397 6.98312 4.33622 7.03599 4.36572C7.12762 4.41697 7.13437 4.47397 7.13024 4.50359C7.11887 4.58522 6.98862 4.70684 6.83212 4.70684ZM6.60162 4.43172C6.60624 4.46672 6.69287 4.58234 6.80587 4.59797L6.83199 4.59984C6.93624 4.59984 7.01424 4.51772 7.02337 4.49084C7.01374 4.47259 6.94674 4.42697 6.81949 4.40947C6.79211 4.40564 6.76451 4.40364 6.73687 4.40347C6.65537 4.40334 6.61174 4.42172 6.60162 4.43172ZM10.9917 4.30634C10.9996 4.36322 10.8877 4.51484 10.7416 4.53509C10.5956 4.55534 10.4707 4.43697 10.4627 4.38009C10.455 4.32334 10.567 4.26072 10.713 4.24047C10.859 4.21997 10.9837 4.24972 10.9917 4.30634ZM10.708 4.56409C10.5674 4.56409 10.4462 4.45472 10.4362 4.38384C10.4247 4.29872 10.5649 4.23397 10.7094 4.21397C10.7413 4.20947 10.7725 4.20722 10.803 4.20722C10.9276 4.20722 11.0101 4.24384 11.0184 4.30272C11.0237 4.34097 10.9945 4.39984 10.944 4.45284C10.9107 4.48784 10.8407 4.54847 10.7455 4.56159L10.708 4.56409ZM10.8029 4.26072C10.7749 4.26072 10.7461 4.26276 10.7166 4.26684C10.5714 4.28697 10.485 4.34534 10.4891 4.37659C10.494 4.41084 10.5866 4.51059 10.7079 4.51059L10.7377 4.50847C10.817 4.49734 10.8765 4.44572 10.9049 4.41584C10.9494 4.36897 10.9671 4.32497 10.965 4.30984C10.9624 4.29022 10.9089 4.26072 10.8029 4.26072ZM11.2021 7.56734C11.173 7.56732 11.1445 7.55941 11.1195 7.54443C11.0946 7.52946 11.0742 7.50799 11.0605 7.48232C11.0468 7.45665 11.0403 7.42775 11.0418 7.39869C11.0432 7.36963 11.0526 7.34151 11.0687 7.31734C11.4107 6.80647 11.3481 6.28534 11.2876 5.78159C11.2617 5.56684 11.2351 5.34497 11.2421 5.13184C11.2491 4.91272 11.2769 4.73197 11.3039 4.55697C11.3357 4.34984 11.3659 4.15397 11.3534 3.92172C11.3524 3.87997 11.3678 3.83951 11.3962 3.8089C11.4246 3.77828 11.4638 3.7599 11.5054 3.75766C11.5471 3.75542 11.5881 3.76949 11.6196 3.79689C11.6511 3.82429 11.6707 3.86287 11.6742 3.90447C11.6885 4.16997 11.6544 4.39147 11.6214 4.60584C11.5959 4.77122 11.5695 4.94222 11.5631 5.14209C11.557 5.33072 11.5811 5.53109 11.6066 5.74309C11.6711 6.27897 11.744 6.88634 11.3357 7.49597C11.3047 7.54222 11.2539 7.56734 11.2021 7.56734Z" fill="white"/>
<path d="M0.354492 12.8978C0.53395 12.8685 0.715546 12.8544 0.897367 12.8555C1.17674 12.8555 1.38162 12.9205 1.51162 13.0375C1.63187 13.1415 1.70337 13.3008 1.70337 13.4959C1.70337 13.6942 1.64474 13.8502 1.53424 13.9639C1.38474 14.1232 1.14099 14.2044 0.864742 14.2044C0.780242 14.2044 0.702242 14.2012 0.637367 14.1849V15.0625H0.354492V12.8978ZM0.637367 13.954C0.699117 13.9703 0.777117 13.9768 0.871367 13.9768C1.21249 13.9768 1.42062 13.811 1.42062 13.5088C1.42062 13.2195 1.21587 13.0798 0.903867 13.0798C0.780367 13.0798 0.686117 13.0895 0.637367 13.1025V13.954ZM3.41612 14.2628C3.41612 14.8445 3.01299 15.0982 2.63274 15.0982C2.20699 15.0982 1.87874 14.7862 1.87874 14.2888C1.87874 13.7623 2.22324 13.4535 2.65874 13.4535C3.11062 13.4534 3.41612 13.7818 3.41612 14.2628ZM2.16812 14.279C2.16812 14.6235 2.36637 14.8835 2.64587 14.8835C2.91887 14.8835 3.12349 14.6268 3.12349 14.2725C3.12349 14.006 2.99037 13.668 2.65224 13.668C2.31412 13.668 2.16812 13.98 2.16812 14.279ZM3.73774 14.7698C3.82224 14.825 3.97174 14.8835 4.11474 14.8835C4.32274 14.8835 4.42024 14.7795 4.42024 14.6495C4.42024 14.513 4.33912 14.4383 4.12774 14.3603C3.84499 14.2595 3.71174 14.1035 3.71174 13.915C3.71174 13.6615 3.91649 13.4535 4.25449 13.4535C4.41374 13.4535 4.55362 13.499 4.64137 13.551L4.56987 13.759C4.47313 13.6994 4.36173 13.6679 4.24812 13.668C4.07912 13.668 3.98487 13.7655 3.98487 13.8825C3.98487 14.0125 4.07924 14.071 4.28399 14.149C4.55699 14.253 4.69674 14.3895 4.69674 14.6235C4.69674 14.8998 4.48224 15.0948 4.10849 15.0948C3.93624 15.0948 3.77699 15.0525 3.66649 14.9875L3.73774 14.7698ZM5.40837 13.0374V13.4892H5.81774V13.7069H5.40837V14.5552C5.40837 14.7502 5.46349 14.8607 5.62287 14.8607C5.67874 14.8616 5.73449 14.855 5.78862 14.8412L5.80162 15.0557C5.74649 15.0784 5.65862 15.0947 5.54824 15.0947C5.41499 15.0947 5.30762 15.0524 5.23937 14.9744C5.15824 14.8899 5.12887 14.7502 5.12887 14.5649V13.7069H4.88512V13.4892H5.12887V13.1122L5.40837 13.0374ZM7.47537 13.4893C7.46874 13.603 7.46237 13.7298 7.46237 13.9215V14.8348C7.46237 15.1955 7.39087 15.4165 7.23812 15.5532C7.08537 15.6962 6.86437 15.7417 6.66612 15.7417C6.47762 15.7417 6.26962 15.6962 6.14274 15.6117L6.21424 15.3939C6.31824 15.4589 6.48074 15.5174 6.67574 15.5174C6.96824 15.5174 7.18274 15.3647 7.18274 14.9682V14.7927H7.17624C7.08849 14.9389 6.91949 15.0559 6.67574 15.0559C6.28574 15.0559 6.00624 14.7244 6.00624 14.2888C6.00624 13.7558 6.35399 13.4535 6.71474 13.4535C6.98787 13.4535 7.13737 13.5965 7.20562 13.7265H7.21212L7.22512 13.4893H7.47537ZM7.17962 14.11C7.17962 14.0613 7.17637 14.019 7.16337 13.98C7.11137 13.8143 6.97162 13.6778 6.76362 13.6778C6.49049 13.6778 6.29562 13.9085 6.29562 14.2725C6.29562 14.5813 6.45162 14.838 6.76037 14.838C6.93587 14.838 7.09512 14.7275 7.15687 14.5455C7.17312 14.4968 7.17974 14.4415 7.17974 14.3928L7.17962 14.11ZM7.91724 13.98C7.91724 13.7948 7.91399 13.6355 7.90424 13.4893H8.15462L8.16424 13.798H8.17724C8.24874 13.5868 8.42099 13.4535 8.61274 13.4535C8.64524 13.4535 8.66787 13.4568 8.69387 13.4633V13.733C8.66189 13.726 8.62922 13.7228 8.59649 13.7233C8.39499 13.7233 8.25187 13.876 8.21299 14.0905C8.20494 14.1345 8.20059 14.1791 8.19999 14.2238V15.0623H7.91724V13.98ZM9.10687 14.3278C9.11337 14.7145 9.36024 14.8738 9.64624 14.8738C9.85112 14.8738 9.97449 14.838 10.0817 14.7925L10.1305 14.9973C10.0297 15.0428 9.85749 15.0948 9.60724 15.0948C9.12299 15.0948 8.83374 14.7763 8.83374 14.3018C8.83374 13.8273 9.11324 13.4534 9.57149 13.4534C10.085 13.4534 10.2215 13.9052 10.2215 14.1944C10.2215 14.2529 10.215 14.2984 10.2117 14.3277L9.10687 14.3278ZM9.94537 14.123C9.94849 13.941 9.87049 13.6583 9.54887 13.6583C9.25962 13.6583 9.13287 13.9248 9.10999 14.123H9.94537Z" fill="black"/>
<path d="M10.5462 14.7182C10.6994 14.8103 10.8745 14.8597 11.0532 14.8612C11.3425 14.8612 11.5115 14.7084 11.5115 14.4874C11.5115 14.2827 11.3945 14.1657 11.0987 14.0519C10.7412 13.9252 10.5202 13.7399 10.5202 13.4312C10.5202 13.0899 10.803 12.8364 11.2287 12.8364C11.453 12.8364 11.6155 12.8884 11.713 12.9437L11.635 13.1744C11.5071 13.1058 11.3641 13.0701 11.219 13.0704C10.92 13.0704 10.8062 13.2492 10.8062 13.3987C10.8062 13.6034 10.9394 13.7042 11.2417 13.8212C11.6122 13.9643 11.8007 14.1429 11.8007 14.4647C11.8007 14.8027 11.5505 15.0952 11.0337 15.0952C10.8225 15.0952 10.5917 15.0334 10.4746 14.9554L10.5462 14.7182ZM13.9945 15.3844C13.712 15.3103 13.4323 15.2257 13.156 15.1309C13.1105 15.1147 13.065 15.0984 13.0227 15.0984C12.5027 15.0789 12.0575 14.6954 12.0575 13.9902C12.0575 13.2882 12.4865 12.8364 13.078 12.8364C13.6727 12.8364 14.0596 13.2979 14.0596 13.9447C14.0596 14.5069 13.7996 14.8677 13.4356 14.9944V15.0074C13.6534 15.0627 13.8906 15.1147 14.0759 15.1472L13.9945 15.3844ZM13.7605 13.9577C13.7605 13.5189 13.5331 13.0671 13.0682 13.0671C12.5905 13.0671 12.3565 13.5091 12.3597 13.9837C12.3565 14.4484 12.6132 14.8677 13.0552 14.8677C13.5071 14.8677 13.7605 14.4582 13.7605 13.9577ZM14.4266 12.8722H14.7095V14.8254H15.6455V15.0627H14.4266V12.8722Z" fill="#336791"/>
</g>
<defs>
<clipPath id="clip0_4647_94">
<rect width="16" height="16" fill="white"/>
</clipPath>
</defs>
</svg>
