<svg width="16" height="16" viewBox="0 0 16 16" fill="none" xmlns="http://www.w3.org/2000/svg">
<path d="M15.2251 11.6375C14.3876 12.075 10.0501 13.85 9.1251 14.3375C8.2001 14.825 7.6876 14.8125 6.9626 14.4625C6.2376 14.1125 1.6251 12.2625 0.787598 11.8625C0.375098 11.6625 0.162598 11.5 0.162598 11.3375V9.75003C0.162598 9.75003 6.1626 8.43753 7.1376 8.10003C8.1126 7.75003 8.4376 7.73753 9.2626 8.03753C10.0876 8.33753 15.0251 9.22503 15.8376 9.52503V11.0875C15.8376 11.25 15.6501 11.425 15.2251 11.6375Z" fill="#A41E11"/>
<path d="M15.2248 10.0626C14.3873 10.5001 10.0498 12.2751 9.12483 12.7626C8.19983 13.2501 7.68733 13.2376 6.96233 12.8876C6.23733 12.5376 1.62483 10.6751 0.787333 10.2751C-0.037667 9.87513 -0.062667 9.60013 0.749833 9.28763C1.56233 8.96263 6.14983 7.16263 7.12483 6.82513C8.09983 6.47513 8.42483 6.46263 9.24983 6.76263C10.0748 7.06263 14.3873 8.77513 15.1998 9.07513C16.0373 9.37513 16.0623 9.62513 15.2248 10.0626Z" fill="#D82C20"/>
<path d="M15.2251 9.06263C14.3876 9.50013 10.0501 11.2751 9.1251 11.7626C8.2001 12.2376 7.6876 12.2376 6.9626 11.8876C6.2376 11.5376 1.6251 9.67513 0.787598 9.27513C0.375098 9.07513 0.162598 8.91263 0.162598 8.75013V7.16263C0.162598 7.16263 6.1626 5.85013 7.1376 5.51263C8.1126 5.16263 8.4376 5.15013 9.2626 5.45013C10.0876 5.75013 15.0251 6.63763 15.8376 6.93763V8.50013C15.8376 8.66263 15.6501 8.83763 15.2251 9.06263Z" fill="#A41E11"/>
<path d="M15.225 7.47523C14.3875 7.91273 10.05 9.68773 9.12504 10.1752C8.20004 10.6502 7.68754 10.6502 6.96254 10.3002C6.23754 9.95023 1.62504 8.08773 0.787544 7.68773C-0.0499556 7.28773 -0.0624557 7.01273 0.750044 6.70023C1.56254 6.37523 6.15004 4.57523 7.12504 4.23773C8.10004 3.88773 8.42504 3.87523 9.25004 4.17523C10.075 4.47523 14.3875 6.18773 15.2 6.48773C16.0375 6.78773 16.0625 7.03773 15.225 7.47523Z" fill="#D82C20"/>
<path d="M15.2249 6.37484C14.3874 6.81234 10.0499 8.58733 9.1249 9.07483C8.1999 9.54983 7.6874 9.54983 6.9624 9.19983C6.2374 8.86233 1.6249 6.99983 0.787402 6.59983C0.374902 6.39983 0.149902 6.23734 0.149902 6.07484V4.48734C0.149902 4.48734 6.1499 3.17484 7.1249 2.83734C8.0999 2.48734 8.4249 2.47484 9.2499 2.77484C10.0749 3.07484 15.0124 3.96234 15.8249 4.26234V5.82484C15.8374 5.98734 15.6499 6.14984 15.2249 6.37484Z" fill="#A41E11"/>
<path d="M15.225 4.78743C14.3875 5.22493 10.05 6.99993 9.12504 7.48743C8.20004 7.96243 7.68754 7.96243 6.96254 7.61243C6.23754 7.26243 1.62504 5.41243 0.787544 5.01243C-0.0499556 4.61243 -0.0624557 4.33743 0.750044 4.02493C1.56254 3.69993 6.15004 1.89993 7.12504 1.56243C8.10004 1.21243 8.42504 1.19993 9.25004 1.49993C10.075 1.79993 14.3875 3.51243 15.2 3.81243C16.0375 4.11243 16.0625 4.36243 15.225 4.78743Z" fill="#D82C20"/>
<path d="M10.0499 3.2623L8.6999 3.4123L8.3874 4.1373L7.8999 3.3248L6.3374 3.1873L7.4999 2.7623L7.1499 2.1123L8.2499 2.5373L9.2749 2.1998L8.9999 2.8748L10.0499 3.2623ZM8.3124 6.8123L5.7749 5.7623L9.4124 5.2123L8.3124 6.8123Z" fill="white"/>
<path d="M4.7998 5.1748C5.86986 5.1748 6.7373 4.83902 6.7373 4.4248C6.7373 4.01059 5.86986 3.6748 4.7998 3.6748C3.72975 3.6748 2.8623 4.01059 2.8623 4.4248C2.8623 4.83902 3.72975 5.1748 4.7998 5.1748Z" fill="white"/>
<path d="M11.6626 3.4624L13.8126 4.3124L11.6626 5.1624V3.4624Z" fill="#7A0C00"/>
<path d="M9.2876 4.4124L11.6626 3.4624V5.1624L11.4251 5.2624L9.2876 4.4124Z" fill="#AD2115"/>
</svg>
