<svg width="14" height="19" viewBox="0 0 14 19" fill="none" xmlns="http://www.w3.org/2000/svg">
<path d="M1.94029 8.96854C3.50101 9.52368 5.1475 9.79092 6.8015 9.75756C8.45554 9.79071 10.102 9.52324 11.6627 8.96788C12.881 8.48706 13.313 7.95267 13.313 7.64513V5.29395C12.887 5.58258 12.4301 5.82133 11.9509 6.00558C10.2997 6.60393 8.55521 6.89565 6.8015 6.86669C5.04795 6.8951 3.30366 6.60386 1.65207 6.00691C1.17266 5.82263 0.715672 5.58342 0.290039 5.29395V7.64183C0.290039 7.95532 0.723352 8.48706 1.94029 8.96854ZM1.94029 13.4031C2.49164 13.6158 3.0602 13.7798 3.63956 13.8931C4.68137 14.0971 5.74039 14.1974 6.8015 14.1927C7.86259 14.1977 8.92162 14.0975 9.96345 13.8938C10.5428 13.7805 11.1114 13.6165 11.6627 13.4037C12.881 12.9229 13.313 12.3885 13.313 12.081V9.83891C12.9609 10.0533 12.5909 10.2359 12.2071 10.3845C10.4724 11.0061 8.64142 11.3069 6.8015 11.2728C4.96138 11.3059 3.13037 11.0039 1.39587 10.3812C1.01231 10.2322 0.6423 10.0496 0.290039 9.83561V12.0796C0.290039 12.3879 0.723352 12.9203 1.94029 13.4031ZM6.8015 18.7199C10.3961 18.7199 13.313 17.5664 13.313 16.1445V14.2681C12.9927 14.4635 12.6572 14.6321 12.3097 14.7721L12.2071 14.8138C10.4728 15.4371 8.64174 15.7398 6.8015 15.7073C4.96119 15.7407 3.13001 15.4381 1.39587 14.8138C1.36058 14.8005 1.32659 14.7853 1.29326 14.7721C0.945842 14.6321 0.610318 14.4635 0.290039 14.2681V16.1445C0.290039 17.5664 3.2069 18.7199 6.8015 18.7199Z" fill="#FFDA44"/>
<path d="M6.8015 5.35196C10.3977 5.35196 13.313 4.19892 13.313 2.77656C13.313 1.35421 10.3977 0.201172 6.8015 0.201172C3.20532 0.201172 0.290039 1.35421 0.290039 2.77656C0.290039 4.19892 3.20532 5.35196 6.8015 5.35196Z" fill="#FFDA44"/>
</svg>
