<svg width="16" height="16" viewBox="0 0 16 16" fill="none" xmlns="http://www.w3.org/2000/svg">
<path d="M0.55325 8.55335C0.468059 8.53639 0.383681 8.51557 0.300375 8.49097L0.12825 8.44322L0.216125 8.28222L0.304125 8.12097L0.232625 8.03297C0.131875 7.90847 0.00175 7.63385 0 7.54572C0 7.34047 0.2675 7.0401 0.595375 6.87885C0.820625 6.76897 1.00012 6.76535 1.2255 6.86972L1.396 6.94847L1.44537 6.87897C1.47287 6.84022 1.49487 6.78897 1.49487 6.7671C1.49487 6.74522 1.51675 6.7251 1.54425 6.7251C1.57175 6.7251 1.59375 6.73222 1.59375 6.7396C1.59375 6.75985 1.396 7.25635 1.38312 7.26897C1.37762 7.27447 1.32438 7.24897 1.264 7.2141C1.09363 7.11335 0.8775 7.04547 0.71075 7.04197C0.322375 7.03272 0.188625 7.41197 0.461625 7.74347L0.558625 7.86085L0.8225 7.64835C1.1175 7.4101 1.15225 7.4046 1.38312 7.56397C1.64137 7.74172 1.64688 8.01272 1.396 8.2986C1.1725 8.54772 0.9435 8.61747 0.55325 8.55335ZM1.2145 8.28035C1.34275 8.17947 1.33362 7.9926 1.1945 7.84435C1.02037 7.65935 0.965375 7.6666 0.657625 7.9231C0.35175 8.17772 0.34975 8.1686 0.71625 8.28585C0.958 8.3646 1.11012 8.36272 1.2145 8.28035ZM3.70225 9.2641C3.61438 9.23285 3.378 9.1341 3.1785 9.04597C2.63437 8.80797 2.55738 8.80422 2.39438 9.0021C2.35588 9.04785 2.3155 9.07535 2.30463 9.06435C2.26975 9.0296 2.37237 8.86285 2.49875 8.75297C2.60125 8.66322 2.63438 8.6521 2.746 8.66322C2.8175 8.67047 3.05575 8.75297 3.27362 8.84635C3.76637 9.0551 3.91112 9.10097 4.09987 9.10097C4.32875 9.10097 4.44788 8.93985 4.37463 8.72722C4.35638 8.6741 4.36175 8.65585 4.39838 8.65585C4.46625 8.65585 4.49912 8.90497 4.45175 9.0496C4.43137 9.1121 4.37087 9.1981 4.31787 9.2421C4.239 9.3081 4.18962 9.32272 4.04112 9.32085C3.94237 9.32272 3.79012 9.29522 3.70237 9.26397L3.70225 9.2641ZM2.431 8.5001C2.22762 8.40672 2.04613 8.22535 1.94 8.01472C1.77138 7.6776 1.82275 7.46135 2.14325 7.16835C2.41262 6.92272 2.63075 6.82747 2.92738 6.82747C3.13988 6.82747 3.18575 6.8386 3.32488 6.9246C3.65288 7.12797 3.73337 7.5146 3.53562 7.9341C3.303 8.4306 2.81575 8.67972 2.431 8.5001ZM3.10888 8.2656C3.26075 8.1906 3.36525 7.84435 3.32125 7.55672C3.268 7.2031 2.78825 6.95947 2.4365 7.1096C2.0755 7.26347 2.07 7.67585 2.42563 8.04585C2.67463 8.30772 2.88713 8.3756 3.10888 8.2656ZM3.79763 8.56597C3.79763 8.55147 3.85438 8.52397 3.92388 8.50735L4.05037 8.47622L4.07788 8.02385C4.10725 7.52185 4.08525 7.0291 4.032 6.9631C4.01188 6.93935 3.95325 6.91185 3.89825 6.89897C3.67663 6.8496 3.82512 6.81472 4.25375 6.81472C4.6825 6.81472 4.82 6.84597 4.61462 6.89722C4.43875 6.9411 4.43875 6.94297 4.43875 7.65935C4.43875 8.05685 4.4535 8.35535 4.4735 8.39385C4.50287 8.4471 4.545 8.45797 4.70975 8.45797C5.04888 8.45797 5.166 8.37747 5.25763 8.0806C5.28513 7.99085 5.3565 8.00735 5.33087 8.09697C5.31987 8.13922 5.29963 8.26747 5.28888 8.38297L5.26862 8.5936H4.53575C4.12712 8.5936 3.79737 8.58072 3.79737 8.5661L3.79763 8.56597Z" fill="#333333"/>
<path d="M10.2295 6.52739C10.1874 6.52589 10.0843 6.56464 9.92952 6.64439C9.67114 6.77814 9.63802 6.80376 9.65827 6.86426C9.68927 6.96139 9.71689 8.12651 9.69114 8.29864C9.67664 8.39926 9.65264 8.44714 9.60702 8.46176C9.40177 8.59364 9.77364 8.65226 9.86514 8.60451C10.14 8.60451 10.1896 8.59551 10.2079 8.54776C10.2206 8.51664 10.2169 8.48739 10.2004 8.48201C10.0703 8.43976 10.0465 8.38289 10.0539 8.13364C10.0613 7.85526 10.1238 7.71239 10.2684 7.63001C10.349 7.58614 10.3598 7.58601 10.4221 7.64814C10.5595 7.78564 10.5466 8.32614 10.4019 8.45989C10.2664 8.58614 10.2994 8.60639 10.6456 8.60639C10.9149 8.60639 10.9718 8.59739 10.9881 8.55339C11.0119 8.49301 11.0158 8.49839 10.9131 8.44514C10.8363 8.40489 10.8361 8.40126 10.8581 8.03664C10.8763 7.73801 10.871 7.65189 10.8306 7.57301C10.772 7.45951 10.5981 7.30576 10.5303 7.30576C10.4534 7.30576 10.2974 7.39739 10.1528 7.52751L10.0193 7.64814L10.041 7.53839C10.0539 7.47801 10.0629 7.27464 10.0629 7.08776C10.0629 6.74901 10.065 6.74689 10.1639 6.65351C10.2526 6.57101 10.2715 6.52901 10.2295 6.52739ZM8.30802 6.54264C8.26364 6.54764 8.16889 6.58751 8.02052 6.66439C7.76227 6.79814 7.72902 6.82401 7.74927 6.88439C7.78027 6.98151 7.80802 8.14651 7.78227 8.31889C7.76752 8.41951 7.74389 8.46726 7.69802 8.48201C7.66327 8.49289 7.63389 8.52951 7.63389 8.56426C7.63389 8.62301 7.65952 8.62639 7.96189 8.62639C8.22189 8.62639 8.29152 8.61739 8.30614 8.57714C8.31714 8.54776 8.29164 8.50189 8.23839 8.45989L8.15239 8.39214L8.16139 7.56426L8.17077 6.73614L8.26402 6.66089C8.31727 6.61864 8.34852 6.56926 8.33564 6.54901C8.33197 6.54309 8.32277 6.54097 8.30802 6.54264ZM6.56952 6.77076C6.56952 6.76901 6.52377 6.77276 6.47077 6.77826C6.37902 6.78914 6.37164 6.79264 6.34789 6.87514C6.31489 6.98326 5.97777 7.70326 5.76164 8.12276C5.62602 8.38839 5.58764 8.44514 5.53089 8.47076C5.48877 8.49076 5.46289 8.51664 5.46289 8.54401C5.46289 8.58439 5.47777 8.58614 5.72327 8.58614C5.95589 8.58614 5.98702 8.58251 5.99614 8.54964C6.00339 8.52214 5.98514 8.50739 5.92477 8.49101C5.80214 8.45801 5.80377 8.39039 5.93564 8.09901L6.00702 7.94314H6.74352L6.84089 8.17239C6.89389 8.29864 6.93777 8.41589 6.93777 8.43426C6.93777 8.45251 6.90689 8.47626 6.86452 8.49101C6.82064 8.50751 6.79127 8.52951 6.79127 8.55151C6.79127 8.58264 6.82802 8.58614 7.15952 8.58614C7.48927 8.58614 7.52752 8.58264 7.52752 8.55151C7.52752 8.53326 7.49289 8.50026 7.44889 8.47826C7.37564 8.44339 7.35164 8.40326 7.13364 7.96526C6.99671 7.68922 6.86366 7.41128 6.73452 7.13151C6.64477 6.93564 6.57139 6.77264 6.56952 6.77076ZM6.38089 7.18664C6.40652 7.19414 6.68502 7.80039 6.67214 7.82251C6.65752 7.84439 6.07502 7.84251 6.07502 7.81876C6.07502 7.77464 6.36252 7.18126 6.38089 7.18664ZM15.1209 7.26551C15.1008 7.26551 14.9615 7.32414 14.8094 7.39551L14.5331 7.52551L14.7985 8.03114C14.9433 8.30951 15.0588 8.54951 15.0533 8.56401C15.0478 8.57876 14.9231 8.68701 14.7785 8.80439C14.5585 8.98026 14.5055 9.04226 14.4618 9.17051C14.4323 9.25476 14.4084 9.34289 14.4084 9.36664C14.4084 9.43439 14.4981 9.41626 14.5219 9.34476C14.5329 9.31001 14.5679 9.26776 14.597 9.25126C14.7565 9.16514 15.7401 9.10826 15.7401 9.18326C15.7401 9.20176 15.7181 9.26976 15.6906 9.33389C15.6631 9.39801 15.6414 9.45826 15.6414 9.46551V9.46576C15.6414 9.47301 15.6651 9.47451 15.6963 9.47114C15.7549 9.45826 16.0003 9.06989 16.0003 8.99114C16.0003 8.85739 15.9528 8.84289 15.5718 8.84464C15.3701 8.84651 15.1466 8.85714 15.0751 8.87026L14.9451 8.89201L15.1081 8.75476C15.4415 8.47264 15.7823 8.12476 15.8428 8.00739C15.971 7.75651 15.8959 7.47251 15.6688 7.34976L15.5515 7.28739L15.4196 7.37539C15.3481 7.42289 15.2878 7.48351 15.2878 7.50914C15.2878 7.53476 15.3503 7.59689 15.4253 7.64814C15.5444 7.72889 15.5661 7.75814 15.5734 7.86989C15.5808 7.96689 15.5608 8.03301 15.4929 8.13739C15.4434 8.21264 15.3921 8.27489 15.3775 8.27489C15.3464 8.27489 14.9946 7.57501 14.9946 7.51289C14.9946 7.48539 15.0311 7.43576 15.0751 7.40089C15.1594 7.33501 15.1833 7.26551 15.1209 7.26551ZM11.8253 7.28201C11.2134 7.37364 10.8709 8.15576 11.415 8.56051C11.4754 8.60076 11.5615 8.63389 11.6074 8.63201C11.8069 8.63201 12.2249 8.32064 12.1405 8.23626C12.1111 8.20714 12.0728 8.21626 11.9703 8.27301C11.8548 8.33889 11.8255 8.34251 11.7411 8.30764C11.6295 8.26189 11.5065 8.10639 11.5213 8.03114C11.5268 8.00189 11.6695 7.91751 11.84 7.84064C12.2173 7.67014 12.2468 7.60989 12.0379 7.42114C11.9666 7.35526 11.869 7.29301 11.8253 7.28201ZM9.09302 7.28551C9.08286 7.28553 9.07274 7.28679 9.06289 7.28926C8.94552 7.31864 8.68552 7.50926 8.57364 7.64664C8.49114 7.74914 8.47302 7.80051 8.46389 7.98551C8.45277 8.16676 8.46389 8.22726 8.52964 8.35001C8.57352 8.43064 8.65777 8.52926 8.71652 8.56964H8.71677C8.90552 8.69776 9.11427 8.65214 9.35764 8.42864C9.46214 8.33339 9.48952 8.29114 9.46577 8.25464C9.43827 8.21426 9.41639 8.21814 9.30452 8.28051C9.14527 8.36839 9.04077 8.35176 8.92727 8.21626C8.87235 8.14981 8.83325 8.07174 8.81294 7.98795C8.79263 7.90417 8.79163 7.81686 8.81002 7.73264C8.82627 7.65751 8.85577 7.58039 8.87427 7.56214C8.91989 7.51626 9.05927 7.61176 9.12152 7.73264L9.17077 7.82776L9.31739 7.77289C9.39802 7.74351 9.47114 7.69226 9.48239 7.65939C9.52352 7.53389 9.25239 7.28439 9.09302 7.28551ZM13.224 7.31564C13.1965 7.31726 13.1663 7.33139 13.115 7.35876C13.0526 7.39189 12.9503 7.46701 12.8861 7.52564L12.7708 7.63164V7.48889C12.7708 7.31301 12.7231 7.28739 12.5545 7.37714C12.3349 7.49464 12.342 7.47789 12.4006 7.70864C12.4721 7.98901 12.4466 8.38101 12.3494 8.45989C12.3128 8.49089 12.2834 8.53701 12.2834 8.56614C12.2834 8.61026 12.3328 8.61739 12.5911 8.61201C12.9429 8.61201 12.9923 8.57714 12.853 8.43801C12.7834 8.36839 12.7689 8.32226 12.7689 8.18139C12.7689 7.95039 12.8146 7.80589 12.9208 7.69401C13.0308 7.58051 13.0711 7.58026 13.1574 7.68839C13.2141 7.75989 13.225 7.82051 13.225 8.06414C13.225 8.33164 13.2195 8.36114 13.1443 8.43614C12.9943 8.58639 13.0271 8.61201 13.3844 8.61201C13.6793 8.61201 13.7086 8.60639 13.7234 8.54776C13.7343 8.50751 13.7233 8.48351 13.6956 8.48351C13.4998 8.48351 13.5069 7.90651 13.7065 7.69589C13.8075 7.58964 13.8553 7.58614 13.9413 7.67214C13.9961 7.72701 14.0055 7.78026 14.0055 8.02214C14.0055 8.36289 13.9869 8.44514 13.9045 8.47076C13.8698 8.48176 13.8421 8.51864 13.8421 8.55326C13.8421 8.61026 13.8681 8.61576 14.1521 8.61576C14.3994 8.61576 14.467 8.60464 14.4816 8.56614C14.4945 8.53689 14.4688 8.49114 14.4175 8.45076C14.3331 8.38476 14.3334 8.38451 14.3535 8.01276C14.3718 7.65364 14.37 7.63739 14.2911 7.51814C14.1941 7.36989 14.0715 7.29851 13.9634 7.32576C13.9194 7.33676 13.8113 7.41026 13.7215 7.49101L13.5603 7.63539L13.4833 7.51626C13.4393 7.45039 13.3661 7.37526 13.3168 7.34789C13.2764 7.32501 13.2514 7.31414 13.224 7.31564ZM11.6068 7.53739C11.628 7.53501 11.6551 7.54826 11.7065 7.57489C11.8348 7.64276 11.8255 7.68514 11.6588 7.78039C11.589 7.82064 11.5194 7.85339 11.5066 7.85339C11.459 7.85514 11.4845 7.66476 11.5413 7.59339C11.5696 7.55751 11.5855 7.53964 11.6068 7.53739Z" fill="#CA2727"/>
</svg>
