<svg width="19" height="20" viewBox="0 0 19 20" fill="none" xmlns="http://www.w3.org/2000/svg">
<path d="M9.49365 19.2142C14.7368 19.2142 18.9873 14.913 18.9873 9.6071C18.9873 4.30125 14.7368 0 9.49365 0C4.25045 0 0 4.30125 0 9.6071C0 14.913 4.25045 19.2142 9.49365 19.2142Z" fill="#1A171B"/>
<path d="M13.625 3.54947C12.6618 3.58347 11.8212 4.12065 11.1954 4.8637C10.5025 5.67842 10.0416 6.64476 9.70942 7.63114C9.11533 7.1384 8.65696 6.50051 7.70381 6.22235C6.96709 6.00829 6.19328 6.09671 5.4817 6.6332C5.14461 6.88802 4.91238 7.2732 4.80194 7.63527C4.51602 8.57624 5.10255 9.41363 5.36897 9.71431L5.95142 10.346C6.0715 10.4698 6.36068 10.7929 6.21932 11.2562C6.06653 11.7598 5.4665 12.0859 4.85104 11.8938C4.57617 11.809 4.1813 11.6017 4.26971 11.3099C4.30627 11.1906 4.39068 11.1013 4.43592 10.9981C4.47745 10.9094 4.49726 10.8429 4.50987 10.8039C4.62231 10.4324 4.4687 9.94901 4.07546 9.82629C3.70862 9.71251 3.33325 9.80265 3.18773 10.2807C3.0227 10.8237 3.27947 11.8093 4.65502 12.2384C6.26664 12.7395 7.62994 11.8515 7.8233 10.6933C7.94509 9.96792 7.62141 9.42902 7.02843 8.73588L6.54529 8.19518C6.25262 7.89931 6.15212 7.39502 6.45503 7.00743C6.71061 6.68049 7.07464 6.54096 7.67081 6.70503C8.54103 6.94416 8.92894 7.55518 9.57621 8.048C9.30898 8.93508 9.13431 9.82546 8.97618 10.6239L8.87984 11.2192C8.41717 13.6751 8.06398 15.0236 7.14613 15.7978C6.96123 15.9309 6.69689 16.13 6.29846 16.1439C6.0896 16.1505 6.0221 16.0051 6.01921 15.9417C6.01424 15.7934 6.1378 15.7254 6.21991 15.6586C6.34259 15.5909 6.52808 15.4786 6.51547 15.1188C6.50212 14.6937 6.15412 14.3251 5.65111 14.342C5.27433 14.355 4.70004 14.7138 4.72162 15.3706C4.74409 16.0491 5.36897 16.5575 6.31106 16.5253C6.81467 16.5078 7.93923 16.3004 9.04753 14.9671C10.3375 13.4389 10.6982 11.6868 10.9696 10.4045L11.2725 8.71157C11.4408 8.73198 11.6208 8.74556 11.8165 8.75029C13.4231 8.78459 14.2267 7.94247 14.2386 7.32994C14.2466 6.95924 13.9983 6.59448 13.6506 6.60273C13.4018 6.60986 13.0892 6.77746 13.0141 7.12572C12.9408 7.46737 13.5253 7.7757 13.0685 8.07517C12.7439 8.28773 12.162 8.43754 11.3426 8.3158L11.4916 7.48246C11.7957 5.90216 12.1708 3.9583 13.5937 3.91102C13.6973 3.90569 14.0768 3.91574 14.0856 4.16966C14.0882 4.25447 14.0675 4.27609 13.9693 4.47025C13.8694 4.62164 13.8317 4.75051 13.8364 4.8986C13.8501 5.30209 14.1533 5.56727 14.5918 5.55128C15.179 5.53206 15.3478 4.95361 15.3382 4.65654C15.3145 3.95853 14.5875 3.51758 13.625 3.54947Z" fill="white"/>
</svg>
