<svg width="50" height="46" viewBox="0 0 50 46" fill="none" xmlns="http://www.w3.org/2000/svg">
<g clip-path="url(#clip0_4647_56)">
<path d="M27.0764 6.36328C27.3649 6.36329 27.6421 6.47726 27.8487 6.68088C28.0553 6.8845 28.1751 7.16167 28.1824 7.45326L28.1828 7.48169V20.2837C28.1829 20.5754 28.0701 20.8556 27.8687 21.0645C27.6672 21.2734 27.393 21.3945 27.1045 21.4019L27.0764 21.4023H16.749C16.4604 21.4024 16.1832 21.2884 15.9765 21.0847C15.7698 20.8811 15.6501 20.6038 15.6428 20.3121L15.6426 20.2837V7.48169C15.6426 7.19 15.7554 6.90986 15.9568 6.70098C16.1583 6.4921 16.4324 6.37099 16.7209 6.36348L16.749 6.36328H27.0764ZM27.0764 6.86079H16.749C16.5899 6.86083 16.4369 6.92321 16.3223 7.03483C16.2077 7.14645 16.1403 7.29862 16.1344 7.45938L16.1338 7.48169V20.2837C16.134 20.4447 16.1959 20.5994 16.3065 20.7152C16.4171 20.8311 16.5678 20.8992 16.727 20.9052L16.749 20.9056H27.0764C27.2356 20.9053 27.3886 20.8427 27.5031 20.7309C27.6177 20.6191 27.6851 20.4669 27.691 20.306L27.6914 20.2837V7.48169C27.6911 7.31693 27.6262 7.159 27.5109 7.04259C27.3955 6.92618 27.2392 6.86079 27.0762 6.86079M18.224 18.2952V19.0403H17.4861V18.2952H18.224ZM26.4623 18.2952V19.0403H18.5934V18.2952H26.4623ZM18.224 15.064V15.8091H17.4861V15.064H18.224ZM26.4623 15.064V15.8091H18.5934V15.064H26.4623ZM18.224 11.9569V12.7018H17.4861V11.9569H18.224ZM26.4623 11.9569V12.7018H18.5934V11.9569H26.4623ZM26.4623 9.09821V9.84408H17.4859V9.09801L26.4623 9.09821ZM27.0764 24.0107V24.0186C27.3637 24.0185 27.6398 24.1315 27.8462 24.3335C28.0526 24.5355 28.1732 24.8108 28.1824 25.1011L28.1828 25.1293V37.9313C28.1829 38.2231 28.0701 38.5032 27.8687 38.7122C27.6672 38.9211 27.393 39.0421 27.1045 39.0495L27.0764 39.0499H16.749C16.4614 39.05 16.185 38.9368 15.9785 38.7343C15.7721 38.5319 15.6517 38.2561 15.643 37.9655L15.6426 37.9313V25.1293C15.6426 24.8376 15.7554 24.5575 15.9568 24.3486C16.1583 24.1397 16.4324 24.0186 16.7209 24.0111L16.749 24.0109L27.0764 24.0107ZM27.0764 24.5084H16.749C16.5899 24.5084 16.4369 24.5708 16.3223 24.6824C16.2077 24.7941 16.1403 24.9462 16.1344 25.107L16.1338 25.1293V37.9313C16.134 38.0923 16.1959 38.247 16.3065 38.3628C16.4171 38.4787 16.5678 38.5468 16.727 38.5528L16.749 38.5532H27.0764C27.235 38.553 27.3874 38.4909 27.5019 38.3799C27.6164 38.2689 27.6841 38.1176 27.691 37.9574L27.6914 37.9353V25.1333C27.6912 24.9724 27.6292 24.8179 27.5187 24.7022C27.4081 24.5865 27.2575 24.5186 27.0984 24.5127L27.0764 24.5124V24.5084ZM18.224 35.9456V36.6917H17.4861V35.9456H18.224ZM26.4623 35.9515V36.686H18.5934V35.9515H26.4623ZM18.224 32.7144V33.4602H17.4861V32.7144H18.224ZM26.4623 32.7201V33.4545H18.5934V32.7201H26.4623ZM18.224 29.6081V30.3532H17.4861V29.6081H18.224ZM26.4623 29.614V30.3474H18.5934V29.6136L26.4623 29.614ZM26.4623 26.7494V27.4952H17.4859V26.7494H26.4623ZM30.0547 13.8828V14.5035H33.7428V31.3895H30.0547V32.0111H34.3578V13.8828H33.7428H30.0547Z" fill="#8E8F8F"/>
<path d="M3.77578 2.9207C4.50293 1.71503 5.70098 1.0118 6.91113 0.603528L7.07617 0.549631L7.24102 0.499288C7.32344 0.474938 7.40566 0.451906 7.4877 0.430189L7.65117 0.388137C7.67852 0.381293 7.70566 0.374712 7.73262 0.368395L7.89473 0.330884L7.975 0.313313L8.13477 0.280343L8.29277 0.250335L8.44863 0.222695L8.60234 0.19782L8.75332 0.175116L8.90156 0.154979L9.04668 0.137013L9.18848 0.121021L9.32676 0.107004L9.52676 0.0892361L9.71719 0.0754163L9.89727 0.0651502L10.093 0.0566609L10.2721 0.0515279L10.3814 0.0497511L10.4822 0.0489614H10.5742L10.6947 0.0505408L10.7627 0.0519227L10.8867 0.0562661L10.9414 0.05903V3.04291C8.33047 2.79179 7.16543 3.58899 6.65176 4.43851L6.60547 4.51827C6.54144 4.63311 6.48627 4.75278 6.44043 4.8762L6.4127 4.95438C6.40814 4.96714 6.40384 4.98004 6.3998 4.99307L6.37617 5.07007L6.35508 5.14568L6.33672 5.21991C6.33372 5.23215 6.33092 5.24433 6.32832 5.25644L6.31328 5.3285L6.30664 5.36403L6.29492 5.43313L6.28477 5.50026L6.27676 5.56521L6.26758 5.658L6.26152 5.74467L6.25859 5.81258L6.25723 5.87556V5.93282L6.2582 5.98415L6.26016 6.02955L6.26348 6.08483L6.26973 6.14998V7.24628L6.26328 9.48449L6.25547 11.0975L6.24648 12.4542L6.23672 13.6006L6.22695 14.5034L6.21562 15.3824L6.20391 16.1316L6.18906 16.9254L6.17988 17.339L6.16992 17.7299L6.15703 18.1653L6.15254 18.3015L6.15215 18.5534L6.15078 18.7076L6.14902 18.8118L6.14512 18.9694L6.13887 19.1218L6.13379 19.2146L6.12793 19.3078L6.12051 19.4013L6.10723 19.5419L6.09668 19.6359L6.08438 19.7301L6.07051 19.8242L6.06289 19.8712L6.04629 19.9652L6.0373 20.0122L6.01777 20.1059L5.99629 20.1995L5.97266 20.2929C5.96432 20.324 5.9556 20.3549 5.94648 20.3857L5.91797 20.4785L5.88711 20.5703L5.85352 20.6617C5.47539 21.6494 4.61914 22.5289 2.68066 22.9362C4.5666 23.3321 5.42812 24.1741 5.82168 25.1276L5.85762 25.2189C5.89238 25.3105 5.92318 25.4028 5.95 25.4958L5.97598 25.589C5.99238 25.6513 6.00736 25.7138 6.0209 25.7766L6.04004 25.8706L6.04883 25.9177L6.06523 26.0119L6.07988 26.1063L6.09258 26.2006L6.10391 26.295L6.11367 26.3892L6.12187 26.4832L6.12891 26.5769L6.1373 26.7169L6.1416 26.8097L6.14688 26.9653L6.14922 27.0679L6.15098 27.17L6.15215 27.321L6.15254 27.5718L6.16582 28.0089L6.17754 28.4704L6.18848 28.9652L6.19824 29.4892L6.20898 30.1316L6.22344 31.1927L6.2332 32.092L6.23828 32.5978L6.24863 33.8902L6.25996 35.8075L6.26777 37.8827L6.2707 37.8809V39.7215L6.26777 39.7476L6.26426 39.7866L6.26211 39.8218L6.25918 39.8871L6.2582 39.9387V39.9959L6.25957 40.0589L6.2625 40.1268L6.26836 40.2125L6.27402 40.2727L6.28535 40.3679L6.29512 40.4342L6.30664 40.5023L6.32031 40.5724L6.32773 40.6079L6.34453 40.6806L6.35391 40.7173L6.37422 40.7919L6.39727 40.8675C6.40117 40.8804 6.40534 40.8932 6.40977 40.9058L6.43691 40.9828C6.44642 41.0088 6.45638 41.0348 6.4668 41.0608L6.5 41.139C6.91016 42.0685 7.9916 43.0724 10.7891 42.8422L10.9424 42.8284V45.8124L10.8641 45.8164L10.7188 45.8205L10.5992 45.8225H10.4572L10.3508 45.8215L10.2355 45.8192L10.1121 45.8156L9.95156 45.8091L9.83828 45.8034L9.7207 45.7963L9.59844 45.7878L9.47227 45.7779L9.34219 45.766L9.2084 45.7528L9.07109 45.7376L8.93066 45.7204L8.7873 45.7013L8.71465 45.6908L8.56738 45.6683L8.49277 45.6565L8.34199 45.6304L8.26582 45.6166L8.11211 45.5866L8.03457 45.5708L7.87832 45.5372L7.72109 45.5005C7.66836 45.488 7.61556 45.4748 7.5627 45.461L7.40332 45.4186C5.94043 45.0154 4.40332 44.2186 3.61289 42.6572C3.78437 40.7378 4.56523 39.1016 5.96777 38.0831C6.03379 38.0359 6.10065 37.9903 6.16836 37.9462L6.24492 37.8971C6.14987 37.9563 6.05658 38.019 5.96504 38.085C4.56523 39.1016 3.78437 40.7378 3.61289 42.6495C3.26115 41.9311 3.07676 41.1409 3.07383 40.3394L3.05625 39.5168L3.0334 38.5194L3.00488 37.3522L2.96582 35.8644L2.93027 34.574L2.88105 32.8847L2.82559 31.0751L2.73262 28.2274L2.71016 27.567C2.65527 26.0721 2.06172 25.344 1.44395 24.9926L1.37109 24.9529L1.33477 24.9344L1.26191 24.8996C1.2377 24.8886 1.21354 24.878 1.18945 24.868L1.11738 24.8396C1.09355 24.8304 1.06973 24.8218 1.0459 24.8139L0.975195 24.7906C0.951758 24.7835 0.928581 24.7768 0.905664 24.7703L0.850391 24.7555L0.796094 24.7423L0.742578 24.7304L0.690234 24.72L0.613867 24.7065L0.564453 24.6992L0.516602 24.6929L0.447656 24.6852L0.386719 24.6848L0.262305 24.6834C0.197334 24.6824 0.132353 24.6824 0.0673828 24.6834L0 24.6852V21.1882C0.161914 21.1942 0.306641 21.1912 0.447656 21.1835L0.516602 21.1756L0.564453 21.1695L0.613867 21.162L0.690234 21.1485L0.742578 21.1381L0.796094 21.1262L0.850391 21.113L0.905664 21.0984L0.975195 21.0779L1.0459 21.0548L1.11738 21.0291C1.83535 20.7576 2.64551 20.0601 2.71016 18.3015L2.79414 15.7725L2.85918 13.7066L2.89434 12.5343L2.94824 10.6536L2.9834 9.3455L3.00898 8.3491L3.04121 7.0151L3.05996 6.18591L3.07383 5.52829C3.09531 4.49201 3.34805 3.65078 3.74902 2.96809L3.77598 2.92288L3.77578 2.9207ZM39.0576 2.99375V0.0100687L39.1369 0.00612017L39.2471 0.00276395L39.3186 0.00138197L39.4447 0H39.541L39.6465 0.00118455L39.809 0.00454077L40.0166 0.0120429L40.1277 0.0173734L40.2434 0.0240858L40.4252 0.0365236L40.5516 0.0467897L40.6816 0.0586352L40.8154 0.0724549L40.9523 0.0878541L41.0926 0.105227L41.2355 0.124575L41.3812 0.146292L41.5295 0.169983L41.6043 0.182815L41.7557 0.210257L41.9088 0.240266L42.0635 0.272644L42.2197 0.30818L42.3768 0.346086C42.4558 0.365828 42.535 0.386755 42.6143 0.408867L42.7732 0.45467C44.2596 0.895914 45.7875 1.75609 46.5053 3.42137C46.7782 4.0724 46.9212 4.7715 46.9262 5.47854L46.9438 6.30121L46.9666 7.2986L46.9826 7.9659L47.008 8.96487L47.043 10.2803L47.0697 11.2445L47.1189 12.9341L47.1744 14.7437L47.2674 17.5913L47.2898 18.2517C47.3457 19.7715 47.9582 20.4984 48.5869 20.8429L48.6596 20.881L48.6959 20.8988L48.7682 20.9324L48.8404 20.9624C48.8524 20.9672 48.8644 20.9719 48.8764 20.9764L48.9477 21.0025L48.983 21.0143L49.0531 21.0362L49.0877 21.0463L49.1904 21.0729L49.2574 21.0881L49.3227 21.101L49.3861 21.112L49.4355 21.1195L49.4834 21.1258L49.5523 21.1335C49.6732 21.1401 49.799 21.1432 49.9326 21.1403L50 21.1383V24.6363C49.8508 24.631 49.7014 24.6326 49.5523 24.6412L49.5068 24.6459L49.4596 24.6519L49.3861 24.6625L49.3098 24.6759L49.2574 24.6864L49.2039 24.6982L49.1496 24.7115L49.0943 24.7261L49.0598 24.736L48.9895 24.7577L48.9541 24.7695L48.8826 24.7954L48.8467 24.8092L48.7744 24.8394C48.0855 25.1393 47.3512 25.8522 47.29 27.523L47.2057 30.0506L47.1408 32.1167L47.1057 33.2892L47.0518 35.1701L47.0166 36.4782L46.991 37.4746L46.9588 38.8086L46.94 39.6378L46.9262 40.2952C46.9207 40.9101 46.8127 41.5197 46.6066 42.0983L46.582 42.166L46.5832 42.1723C45.8473 44.0943 44.0664 44.9979 42.4223 45.4184L42.2609 45.4583L42.1809 45.477L42.0213 45.5126L41.9422 45.5289L41.7852 45.5601L41.7072 45.5747L41.5529 45.602L41.4768 45.6146L41.326 45.6383L41.1779 45.6594L41.0328 45.6784L40.8906 45.6952L40.752 45.7102L40.617 45.7232L40.4217 45.7394L40.2967 45.7483L40.118 45.7589L39.95 45.7664L39.7449 45.7728L39.6281 45.7747L39.5207 45.7755H39.4234L39.3365 45.7745L39.2607 45.7732L39.1684 45.7704L39.0883 45.767L39.0604 45.7655V42.7816C41.7937 43.0445 42.9424 42.1585 43.4182 41.2663L43.4592 41.1864C43.4722 41.1598 43.4846 41.1332 43.4963 41.1066L43.5305 41.0273C43.5413 41.0009 43.5516 40.9746 43.5613 40.9483L43.5893 40.8703L43.6143 40.7929L43.6258 40.7546L43.6469 40.679L43.6652 40.6046L43.6814 40.5317L43.6953 40.4606L43.707 40.3916L43.717 40.3244L43.7252 40.2593L43.7344 40.1665L43.7387 40.108L43.7434 40.0119L43.7447 39.9491V39.8919L43.7438 39.8401L43.7418 39.7949L43.7398 39.7564L43.7352 39.7006L43.7322 39.6745V38.038L43.7367 36.5145L43.7441 34.9424L43.7529 33.6175L43.7645 32.2649L43.7777 31.051L43.7871 30.3452L43.7959 29.7768L43.8076 29.1249L43.8158 28.7123L43.825 28.3198L43.8346 27.9496L43.8475 27.522L43.8479 27.2713L43.8492 27.1185L43.8508 27.0154L43.8533 26.9116L43.8588 26.7544L43.8639 26.649L43.8695 26.555L43.8764 26.4609L43.8842 26.3663L43.8939 26.2715L43.9047 26.1768L43.9172 26.0816L43.9242 26.0342L43.9393 25.9393L43.9562 25.8445L43.9752 25.7497L43.9963 25.655C44.0219 25.5449 44.0524 25.4356 44.0877 25.3268L44.1195 25.2341C44.1634 25.1109 44.215 24.9894 44.2744 24.8696L44.3205 24.7804C44.767 23.9516 45.6342 23.2405 47.3193 22.8863C45.1939 22.4403 44.3697 21.4279 44.0498 20.3275L44.024 20.2343C44.0077 20.172 43.9928 20.1095 43.9791 20.0467L43.96 19.9527L43.9512 19.9058L43.9348 19.8114L43.9201 19.717L43.9074 19.6227L43.8961 19.5285L43.8863 19.4343L43.8781 19.3403L43.8711 19.2466L43.8627 19.1066L43.8584 19.0138L43.8531 18.8582L43.8508 18.7556L43.849 18.6537L43.8479 18.5025L43.8475 18.2517L43.8383 17.9601L43.8283 17.5894L43.817 17.1122L43.8066 16.604L43.7969 16.069L43.7855 15.3214L43.7721 14.2462L43.7619 13.2415L43.7525 12.0777L43.7402 10.0081L43.7322 7.76531C43.9002 7.6716 44.0627 7.56894 44.2197 7.45733C45.0018 6.89112 45.5908 6.12787 45.9879 5.22998L46.0152 5.1672C45.6176 6.09233 45.0191 6.87828 44.217 7.45851C44.0861 7.5513 43.9514 7.63811 43.8127 7.71892L43.7293 7.7663V6.10122L43.7322 6.07516L43.7357 6.03587L43.7379 6.00073L43.7408 5.93558L43.7418 5.88405V5.8268L43.7404 5.76362L43.7375 5.69571L43.734 5.63944L43.7262 5.54981L43.7146 5.45465L43.7049 5.38852L43.6934 5.32021L43.6797 5.25012L43.6723 5.21458L43.6555 5.14213L43.6461 5.10521L43.6258 5.03058L43.6027 4.95497C43.5988 4.94233 43.5947 4.92957 43.5902 4.91667L43.5631 4.83967C43.5536 4.81388 43.5436 4.78795 43.5332 4.76189L43.5 4.68351C43.0898 3.75423 42.0084 2.75033 39.2109 2.98033L39.0576 2.99375Z" fill="#FE0902"/>
<path d="M6.08828 7.12546C6.11771 7.14704 6.14779 7.16771 6.17852 7.18745L6.27012 7.24668V6.15038L6.26719 6.12432L6.26387 6.08503L6.26152 6.04989L6.25859 5.98454L6.25762 5.93321V5.87576L6.25898 5.81278L6.26191 5.74487L6.26562 5.68761L6.27051 5.62779L6.27715 5.56541L6.28516 5.50045L6.29512 5.43333L6.30684 5.36423L6.3209 5.29296L6.32871 5.25663L6.3459 5.18319L6.36563 5.10817L6.37656 5.07007L6.4 4.99327L6.41309 4.95458L6.44082 4.87639C6.48496 4.75853 6.53926 4.6383 6.60586 4.51846L6.65215 4.4387C7.16582 3.58918 8.33086 2.79218 10.942 3.04311V0.0592275L10.8873 0.0564635L10.7934 0.0531073L10.7305 0.0513305L10.5746 0.0493562H10.4828L10.3818 0.0499485L10.2146 0.0531073L10.0619 0.0580429L9.89766 0.0653476L9.71758 0.0758112L9.52715 0.0896309L9.39473 0.100884L9.18887 0.121219L9.04707 0.137013L8.90195 0.155176L8.75371 0.175313L8.60273 0.198017L8.44902 0.222893L8.29316 0.250532L8.13516 0.280541L7.97539 0.313511L7.89492 0.331279L7.73301 0.368592C7.70605 0.37491 7.67891 0.381491 7.65156 0.388335L7.48809 0.430386C7.40606 0.452103 7.32383 0.475136 7.24141 0.499485L7.07656 0.549828L6.91152 0.603725C5.70137 1.012 4.50332 1.71523 3.77617 2.9209C4.01133 4.68134 4.77891 6.18216 6.08828 7.12546ZM10.9428 45.8128V42.8288C8.08711 43.1034 6.96113 42.124 6.5252 41.1937L6.48945 41.1141C6.47267 41.075 6.45678 41.0355 6.4418 40.9957L6.41406 40.9173L6.40117 40.8786L6.37754 40.8016L6.35645 40.7262L6.33789 40.6518L6.32188 40.5789L6.30801 40.5078L6.29609 40.4387L6.28633 40.3716L6.27812 40.3065L6.26895 40.2137L6.26289 40.127L6.25996 40.0591L6.25859 39.9961V39.9389L6.25957 39.8875L6.26152 39.8421L6.26348 39.8036L6.26816 39.7477L6.27109 39.7201V37.8811C6.16823 37.9453 6.06732 38.0127 5.96836 38.0833C4.56563 39.1018 3.78477 40.738 3.61328 42.6576C4.40391 44.2188 5.94062 45.0156 7.40371 45.4188L7.56309 45.4612C7.61582 45.475 7.66862 45.4882 7.72148 45.5007L7.87891 45.5372L8.03496 45.571L8.18945 45.602L8.26621 45.6166L8.41797 45.6438L8.49316 45.6565L8.6416 45.6802L8.71504 45.691L8.85977 45.7114L8.93105 45.7206L9.07168 45.7378L9.20879 45.753L9.34258 45.7662L9.47266 45.7781L9.59883 45.788L9.72109 45.7965L9.83867 45.8036L10.0066 45.8119L10.1125 45.8158L10.2361 45.8194L10.3514 45.8217L10.4576 45.8227L10.5996 45.8225L10.7191 45.8207L10.8148 45.8182L10.9428 45.8128ZM46.5057 3.42137C45.742 1.65008 44.0621 0.7897 42.4906 0.375305L42.3338 0.335425L42.1779 0.298309L42.1006 0.280738L41.9467 0.247768L41.8701 0.232369L41.7186 0.203348L41.5689 0.176695L41.4213 0.152412L41.276 0.1303L41.1332 0.110558L40.9932 0.0927897L40.8563 0.0767983L40.7225 0.0627811L40.5922 0.0503433L40.4037 0.0349442L40.2242 0.0229013L40.0547 0.0136223L39.8957 0.0071073L39.7961 0.00414592L39.676 0.0015794L39.5648 0H39.4637L39.3725 0.000592275L39.292 0.00177682L39.192 0.00434335L39.1186 0.0071073L39.058 0.0100687V2.99415C41.9137 2.71933 43.0396 3.69876 43.4756 4.62902L43.5113 4.70878C43.5283 4.74827 43.5441 4.78775 43.559 4.82724L43.5867 4.90542C43.5911 4.91831 43.5954 4.93128 43.5996 4.94431L43.6232 5.02111L43.6443 5.09672L43.6629 5.17095L43.6789 5.244L43.6928 5.31507L43.7047 5.38417L43.7145 5.4513L43.7227 5.51645L43.7318 5.60924L43.7379 5.69571L43.7408 5.76382L43.7422 5.8266V5.88385L43.7412 5.93538L43.7393 5.98079L43.7361 6.03607L43.7297 6.10161V7.7665C43.8977 7.67266 44.0602 7.56999 44.2174 7.45851C45.4867 6.54009 46.2467 5.10699 46.5057 3.42137ZM44.343 38.4163C44.1482 38.2764 43.9443 38.15 43.7326 38.0381V39.6745L43.7355 39.7006L43.7389 39.7397L43.7412 39.7748L43.7441 39.8401L43.7451 39.8917V39.9489L43.7438 40.0119L43.7391 40.1081L43.7348 40.1665L43.7256 40.2593L43.7174 40.3244L43.7076 40.3916L43.6957 40.4607L43.6818 40.5317L43.6656 40.6048L43.6473 40.679L43.6262 40.7546L43.6146 40.7929L43.5896 40.8703L43.5617 40.9485C43.552 40.9745 43.5417 41.0009 43.5309 41.0275L43.4969 41.1066C43.485 41.1333 43.4725 41.1599 43.4594 41.1864L43.4186 41.2663C42.9428 42.1587 41.7941 43.0445 39.0607 42.7816V45.7655L39.1045 45.7678L39.2303 45.7724L39.3848 45.7751L39.4785 45.7757L39.6387 45.7747L39.7574 45.7726L39.8854 45.7688L40.0439 45.7625L40.2131 45.7536L40.3314 45.7459L40.5168 45.7321L40.6451 45.7206L40.7771 45.7076L40.9125 45.6928L41.0512 45.676L41.1926 45.6575L41.3369 45.6365L41.4834 45.6136C41.5081 45.6097 41.5329 45.6055 41.5576 45.6012L41.7076 45.5747L41.8594 45.5457L41.9359 45.5303L42.0902 45.4976L42.1678 45.4802L42.324 45.4431C43.9951 45.0336 45.8328 44.1328 46.5838 42.1723C46.2865 40.6062 45.5381 39.2816 44.343 38.4163Z" fill="#FFAB00"/>
</g>
<defs>
<clipPath id="clip0_4647_56">
<rect width="50" height="46" fill="white"/>
</clipPath>
</defs>
</svg>
