<svg width="19" height="20" viewBox="0 0 19 20" fill="none" xmlns="http://www.w3.org/2000/svg">
<path d="M17.8382 2.68234L14.048 0.835414C13.8339 0.731147 13.5931 0.696803 13.3588 0.737136C13.1246 0.777468 12.9086 0.890482 12.7406 1.06053L0.333031 12.5084C0.254191 12.5812 0.19123 12.6698 0.148177 12.7685C0.105123 12.8673 0.0829269 12.9741 0.083008 13.0821C0.0830892 13.1901 0.105446 13.2968 0.148648 13.3955C0.19185 13.4943 0.254944 13.5828 0.333893 13.6554L1.34733 14.5877C1.47974 14.7095 1.65009 14.7807 1.82887 14.7887C2.00765 14.7967 2.18357 14.7412 2.32614 14.6318L17.2678 3.16123C17.769 2.77643 18.489 3.13825 18.489 3.77493V3.73043C18.489 3.51143 18.4279 3.29688 18.3128 3.11145C18.1976 2.92601 18.0331 2.77737 17.8382 2.68234Z" fill="#19376D"/>
<g filter="url(#filter0_d_2597_814)">
<path d="M17.8382 17.2772L14.048 19.1238C13.8339 19.2281 13.5931 19.2625 13.3589 19.2222C13.1247 19.182 12.9086 19.069 12.7406 18.899L0.333031 7.45098C0.254191 7.37824 0.19123 7.28964 0.148177 7.19085C0.105123 7.09206 0.0829269 6.98527 0.083008 6.8773C0.0830892 6.76933 0.105446 6.66257 0.148648 6.56385C0.19185 6.46513 0.254944 6.37663 0.333893 6.304L1.34733 5.37167C1.47974 5.24984 1.65009 5.17874 1.82887 5.17069C2.00765 5.16264 2.18357 5.21815 2.32614 5.3276L17.2678 16.798C17.769 17.183 18.489 16.8211 18.489 16.1845V16.229C18.489 16.448 18.4279 16.6625 18.3128 16.8479C18.1976 17.0334 18.0331 17.1822 17.8382 17.2772Z" fill="#2D569F"/>
</g>
<g filter="url(#filter1_d_2597_814)">
<path d="M14.0487 19.1248C13.8346 19.229 13.5937 19.2633 13.3595 19.2229C13.1253 19.1826 12.9092 19.0695 12.7412 18.8995C13.1654 19.3288 13.8909 19.0247 13.8909 18.4176V1.54236C13.8909 0.935201 13.1654 0.631113 12.7412 1.06056C12.9092 0.890526 13.1253 0.777517 13.3595 0.737161C13.5937 0.696805 13.8346 0.731096 14.0487 0.835292L17.8382 2.6796C18.0333 2.77456 18.198 2.92335 18.3132 3.10885C18.4285 3.29435 18.4896 3.50901 18.4896 3.72813V16.2322C18.4896 16.4513 18.4285 16.666 18.3132 16.8515C18.198 17.037 18.0333 17.1858 17.8382 17.2808L14.0487 19.1248Z" fill="#19376D"/>
</g>
<path opacity="0.25" fill-rule="evenodd" clip-rule="evenodd" d="M13.1272 19.16C13.2736 19.2177 13.4301 19.2444 13.5871 19.2383C13.744 19.2322 13.8981 19.1934 14.0396 19.1245L17.8268 17.2803C18.0219 17.1853 18.1865 17.0365 18.3016 16.851C18.4168 16.6655 18.4779 16.4509 18.4778 16.2318V3.72771C18.4779 3.50865 18.4168 3.29402 18.3016 3.10852C18.1865 2.92303 18.0219 2.77421 17.8268 2.67918L14.0396 0.835316C13.8256 0.731118 13.5849 0.696811 13.3508 0.737143C13.1167 0.777476 12.9008 0.890452 12.7329 1.06044L5.48274 7.75386L2.32486 5.32814C2.18241 5.21869 2.00659 5.16315 1.8279 5.17117C1.64921 5.1792 1.47894 5.25027 1.34663 5.37206L0.333763 6.30439C0.25485 6.37705 0.191788 6.46558 0.148611 6.56431C0.105433 6.66303 0.0830892 6.76979 0.083008 6.87776C0.0829269 6.98573 0.10511 7.09252 0.148139 7.19132C0.191169 7.29011 0.254097 7.37874 0.332901 7.45152L3.07158 9.97977L0.333044 12.5082C0.254221 12.5809 0.191275 12.6695 0.148233 12.7683C0.105191 12.8671 0.0830009 12.9739 0.0830821 13.0819C0.0831632 13.1899 0.105514 13.2967 0.148704 13.3954C0.191895 13.4941 0.254974 13.5826 0.333907 13.6553L1.34677 14.5876C1.47907 14.7094 1.64933 14.7805 1.82802 14.7886C2.0067 14.7966 2.18254 14.7411 2.325 14.6317L5.48302 12.2058L12.7332 18.8992C12.8452 19.0129 12.9794 19.1017 13.1272 19.16ZM13.882 5.75395L8.38078 9.97977L13.882 14.2054V5.75395Z" fill="url(#paint0_linear_2597_814)"/>
<defs>
<filter id="filter0_d_2597_814" x="-8.25099" y="-3.16408" width="35.0742" height="30.7364" filterUnits="userSpaceOnUse" color-interpolation-filters="sRGB">
<feFlood flood-opacity="0" result="BackgroundImageFix"/>
<feColorMatrix in="SourceAlpha" type="matrix" values="0 0 0 0 0 0 0 0 0 0 0 0 0 0 0 0 0 0 127 0" result="hardAlpha"/>
<feOffset/>
<feGaussianBlur stdDeviation="4.167"/>
<feColorMatrix type="matrix" values="0 0 0 0 0 0 0 0 0 0 0 0 0 0 0 0 0 0 0.25 0"/>
<feBlend mode="overlay" in2="BackgroundImageFix" result="effect1_dropShadow_2597_814"/>
<feBlend mode="normal" in="SourceGraphic" in2="effect1_dropShadow_2597_814" result="shape"/>
</filter>
<filter id="filter1_d_2597_814" x="4.40721" y="-7.6133" width="22.416" height="35.1866" filterUnits="userSpaceOnUse" color-interpolation-filters="sRGB">
<feFlood flood-opacity="0" result="BackgroundImageFix"/>
<feColorMatrix in="SourceAlpha" type="matrix" values="0 0 0 0 0 0 0 0 0 0 0 0 0 0 0 0 0 0 127 0" result="hardAlpha"/>
<feOffset/>
<feGaussianBlur stdDeviation="4.167"/>
<feColorMatrix type="matrix" values="0 0 0 0 0 0 0 0 0 0 0 0 0 0 0 0 0 0 0.25 0"/>
<feBlend mode="overlay" in2="BackgroundImageFix" result="effect1_dropShadow_2597_814"/>
<feBlend mode="normal" in="SourceGraphic" in2="effect1_dropShadow_2597_814" result="shape"/>
</filter>
<linearGradient id="paint0_linear_2597_814" x1="9.28041" y1="0.720428" x2="9.28041" y2="19.2391" gradientUnits="userSpaceOnUse">
<stop/>
<stop offset="1" stop-color="white" stop-opacity="0"/>
</linearGradient>
</defs>
</svg>
