<svg width="63" height="63" viewBox="0 0 63 63" fill="none" xmlns="http://www.w3.org/2000/svg">
<g clip-path="url(#clip0_4619_19)">
<g clip-path="url(#clip1_4619_19)">
<g clip-path="url(#clip2_4619_19)">
<g clip-path="url(#clip3_4619_19)">
<path d="M11.3655 50.412V12.0289H18.1123V45.3094H32.4563V50.412H11.3655ZM36.4251 50.412V12.0289C36.6896 12.0289 37.2944 12.0176 38.2393 11.9949C39.1843 11.9798 40.2426 11.9722 41.4143 11.9722C42.586 11.9722 43.7577 11.9609 44.9294 11.9382C46.1011 11.9231 47.065 11.9155 47.8209 11.9155C52.2054 11.9155 55.5391 12.7849 57.8221 14.5235C60.1126 16.2622 61.2578 18.719 61.2578 21.894C61.2578 23.7461 60.7476 25.4091 59.7271 26.8832C58.7065 28.3573 57.2891 29.5479 55.4749 30.4551C57.7427 31.3244 59.47 32.5528 60.6569 34.1403C61.8513 35.7278 62.4485 37.561 62.4485 39.6398C62.4485 42.8904 61.22 45.5059 58.7632 47.4865C56.3064 49.4747 52.5834 50.4687 47.5941 50.4687C46.5736 50.4687 45.4775 50.4687 44.3058 50.4687C43.1341 50.4687 42.019 50.4612 40.9607 50.446C39.9024 50.4234 38.965 50.412 38.1486 50.412C37.3397 50.412 36.7652 50.412 36.4251 50.412ZM43.1719 33.2332V45.5929H48.0477C50.6179 45.5929 52.4586 45.0146 53.5699 43.858C54.6887 42.7089 55.2481 41.2651 55.2481 39.5264C55.2481 38.7327 55.1233 37.9578 54.8739 37.2019C54.632 36.4459 54.2087 35.7656 53.6039 35.1608C52.9991 34.5561 52.1941 34.0723 51.1887 33.7094C50.1908 33.3541 48.9359 33.1765 47.424 33.1765C46.5169 33.1765 45.7118 33.1765 45.0088 33.1765C44.3133 33.1765 43.701 33.1954 43.1719 33.2332ZM43.1719 16.7914V28.3573H47.5374C49.9187 28.3573 51.6195 27.8093 52.6401 26.7132C53.6606 25.617 54.1709 24.2752 54.1709 22.6877C54.1709 21.9696 54.0575 21.2514 53.8307 20.5333C53.6039 19.8152 53.2146 19.1726 52.6627 18.6056C52.1185 18.0387 51.3814 17.5851 50.4516 17.2449C49.5294 16.9048 48.369 16.7347 46.9705 16.7347C46.1389 16.7347 45.4095 16.7347 44.782 16.7347C44.1621 16.7347 43.6254 16.7536 43.1719 16.7914Z" fill="white"/>
</g>
</g>
</g>
</g>
<path d="M-13 31.1919C-13 13.9652 0.96519 0 18.1919 0C25.8642 0 32.8894 2.76992 38.3223 7.36467H35.5092C30.6487 3.82606 24.6642 1.73852 18.1919 1.73827C1.92517 1.73827 -11.2617 14.9252 -11.2617 31.1919C-11.2617 47.4586 1.92517 60.6455 18.1919 60.6455C24.6642 60.6455 30.6487 58.558 35.5092 55.0191H38.3223C32.8894 59.6136 25.8642 62.3838 18.1919 62.3838C0.96519 62.3838 -13 48.4186 -13 31.1919Z" fill="white"/>
<defs>
<clipPath id="clip0_4619_19">
<rect width="51.083" height="38.5532" fill="white" transform="translate(11.3655 11.9155)"/>
</clipPath>
<clipPath id="clip1_4619_19">
<rect width="51.083" height="38.5532" fill="white" transform="translate(11.3655 11.9155)"/>
</clipPath>
<clipPath id="clip2_4619_19">
<rect width="51.083" height="38.5532" fill="white" transform="translate(11.3655 11.9155)"/>
</clipPath>
<clipPath id="clip3_4619_19">
<rect width="51.083" height="38.5532" fill="white" transform="translate(11.3655 11.9155)"/>
</clipPath>
</defs>
</svg>
